<svg width="2021" height="755" viewBox="0 0 2021 755" fill="none" xmlns="http://www.w3.org/2000/svg">
<path d="M72.32 58.752C74.5387 59.8613 75.8187 61.6107 76.16 64C76.5867 66.3893 75.9893 68.5653 74.368 70.528C73.2587 72.064 71.808 72.9173 70.016 73.088C68.3093 73.2587 66.56 72.9173 64.768 72.064C62.72 71.1253 60.544 70.4 58.24 69.888C56.0213 69.376 53.6747 69.12 51.2 69.12C46.592 69.12 42.4533 69.8453 38.784 71.296C35.2 72.7467 32.128 74.8373 29.568 77.568C27.008 80.2133 25.0453 83.3707 23.68 87.04C22.4 90.7093 21.76 94.7627 21.76 99.2C21.76 104.405 22.4853 108.928 23.936 112.768C25.472 116.608 27.5627 119.808 30.208 122.368C32.8533 124.928 35.968 126.848 39.552 128.128C43.136 129.323 47.0187 129.92 51.2 129.92C53.504 129.92 55.808 129.707 58.112 129.28C60.416 128.853 62.6347 128.085 64.768 126.976C66.56 126.123 68.3093 125.824 70.016 126.08C71.808 126.336 73.3013 127.232 74.496 128.768C76.2027 130.901 76.8 133.12 76.288 135.424C75.8613 137.643 74.5813 139.264 72.448 140.288C70.2293 141.397 67.9253 142.336 65.536 143.104C63.232 143.787 60.8853 144.299 58.496 144.64C56.1067 145.067 53.6747 145.28 51.2 145.28C45.056 145.28 39.2107 144.299 33.664 142.336C28.2027 140.373 23.296 137.472 18.944 133.632C14.6773 129.792 11.3067 125.013 8.832 119.296C6.35733 113.493 5.12 106.795 5.12 99.2C5.12 92.6293 6.22933 86.5707 8.448 81.024C10.752 75.4773 13.952 70.6987 18.048 66.688C22.2293 62.592 27.136 59.4347 32.768 57.216C38.4 54.912 44.544 53.76 51.2 53.76C54.9547 53.76 58.624 54.1867 62.208 55.04C65.792 55.8933 69.1627 57.1307 72.32 58.752ZM155.002 109.824C155.002 116.821 153.423 123.008 150.266 128.384C147.194 133.675 143.013 137.813 137.722 140.8C132.517 143.787 126.671 145.28 120.186 145.28C113.701 145.28 107.813 143.787 102.522 140.8C97.3167 137.813 93.1353 133.675 89.978 128.384C86.906 123.008 85.37 116.821 85.37 109.824C85.37 102.827 86.906 96.6827 89.978 91.392C93.1353 86.016 97.3167 81.8347 102.522 78.848C107.813 75.776 113.701 74.24 120.186 74.24C126.671 74.24 132.517 75.776 137.722 78.848C143.013 81.8347 147.194 86.016 150.266 91.392C153.423 96.6827 155.002 102.827 155.002 109.824ZM139.642 109.824C139.642 105.472 138.746 101.717 136.954 98.56C135.247 95.3173 132.901 92.8 129.914 91.008C127.013 89.216 123.77 88.32 120.186 88.32C116.602 88.32 113.317 89.216 110.33 91.008C107.429 92.8 105.082 95.3173 103.29 98.56C101.583 101.717 100.73 105.472 100.73 109.824C100.73 114.091 101.583 117.845 103.29 121.088C105.082 124.245 107.429 126.72 110.33 128.512C113.317 130.304 116.602 131.2 120.186 131.2C123.77 131.2 127.013 130.304 129.914 128.512C132.901 126.72 135.247 124.245 136.954 121.088C138.746 117.845 139.642 114.091 139.642 109.824ZM185.085 136.192C185.085 138.411 184.317 140.288 182.781 141.824C181.33 143.275 179.496 144 177.277 144C175.144 144 173.352 143.275 171.901 141.824C170.45 140.288 169.725 138.411 169.725 136.192V57.088C169.725 54.8693 170.45 53.0347 171.901 51.584C173.437 50.048 175.314 49.28 177.533 49.28C179.752 49.28 181.544 50.048 182.909 51.584C184.36 53.0347 185.085 54.8693 185.085 57.088V136.192ZM268.127 109.824C268.127 116.821 266.548 123.008 263.391 128.384C260.319 133.675 256.138 137.813 250.847 140.8C245.642 143.787 239.796 145.28 233.311 145.28C226.826 145.28 220.938 143.787 215.647 140.8C210.442 137.813 206.26 133.675 203.103 128.384C200.031 123.008 198.495 116.821 198.495 109.824C198.495 102.827 200.031 96.6827 203.103 91.392C206.26 86.016 210.442 81.8347 215.647 78.848C220.938 75.776 226.826 74.24 233.311 74.24C239.796 74.24 245.642 75.776 250.847 78.848C256.138 81.8347 260.319 86.016 263.391 91.392C266.548 96.6827 268.127 102.827 268.127 109.824ZM252.767 109.824C252.767 105.472 251.871 101.717 250.079 98.56C248.372 95.3173 246.026 92.8 243.039 91.008C240.138 89.216 236.895 88.32 233.311 88.32C229.727 88.32 226.442 89.216 223.455 91.008C220.554 92.8 218.207 95.3173 216.415 98.56C214.708 101.717 213.855 105.472 213.855 109.824C213.855 114.091 214.708 117.845 216.415 121.088C218.207 124.245 220.554 126.72 223.455 128.512C226.442 130.304 229.727 131.2 233.311 131.2C236.895 131.2 240.138 130.304 243.039 128.512C246.026 126.72 248.372 124.245 250.079 121.088C251.871 117.845 252.767 114.091 252.767 109.824ZM289.25 144C287.031 144 285.197 143.275 283.746 141.824C282.295 140.288 281.57 138.411 281.57 136.192V83.328C281.57 81.1093 282.295 79.2747 283.746 77.824C285.197 76.288 287.031 75.52 289.25 75.52C291.469 75.52 293.303 76.288 294.754 77.824C296.205 79.2747 296.93 81.1093 296.93 83.328V95.36L296.034 86.784C296.973 84.736 298.167 82.944 299.618 81.408C301.154 79.7867 302.861 78.464 304.738 77.44C306.615 76.3307 308.621 75.52 310.754 75.008C312.887 74.496 315.021 74.24 317.154 74.24C319.714 74.24 321.847 74.9653 323.554 76.416C325.346 77.8667 326.242 79.5733 326.242 81.536C326.242 84.352 325.517 86.4 324.066 87.68C322.615 88.8747 321.037 89.472 319.33 89.472C317.709 89.472 316.215 89.1733 314.85 88.576C313.57 87.9787 312.077 87.68 310.37 87.68C308.834 87.68 307.255 88.064 305.634 88.832C304.098 89.5147 302.647 90.624 301.282 92.16C300.002 93.696 298.935 95.616 298.082 97.92C297.314 100.139 296.93 102.784 296.93 105.856V136.192C296.93 138.411 296.205 140.288 294.754 141.824C293.303 143.275 291.469 144 289.25 144Z" fill="white"/>
<g filter="url(#filter0_d_6908_27832)">
<g clip-path="url(#clip0_6908_27832)">
<path d="M224 423H128V471H224V423Z" fill="#071415"/>
<path d="M324 423H228V471H324V423Z" fill="#0D1B1D"/>
<path d="M424 423H328V471H424V423Z" fill="#002D31"/>
<path d="M524 423H428V471H524V423Z" fill="#003A40"/>
<path d="M624 423H528V471H624V423Z" fill="#00484E"/>
<path d="M724 423H628V471H724V423Z" fill="#00585F"/>
<path d="M824 423H728V471H824V423Z" fill="#006B73"/>
<path d="M924 423H828V471H924V423Z" fill="#00858F"/>
<path d="M1024 423H928V471H1024V423Z" fill="#00C6D3"/>
<path d="M1124 423H1028V471H1124V423Z" fill="#00BAC7"/>
<path d="M1224 423H1128V471H1224V423Z" fill="#26D1DE"/>
<path d="M1324 423H1228V471H1324V423Z" fill="#B1EFF4"/>
<path d="M224 475H128V523H224V475Z" fill="#00ABDE" fill-opacity="0.0196078"/>
<path d="M324 475H228V523H324V475Z" fill="#00D6FD" fill-opacity="0.0509804"/>
<path d="M424 475H328V523H424V475Z" fill="#00DDFB" fill-opacity="0.137255"/>
<path d="M524 475H428V523H524V475Z" fill="#00DEFC" fill-opacity="0.2"/>
<path d="M624 475H528V523H624V475Z" fill="#00E5FD" fill-opacity="0.258824"/>
<path d="M724 475H628V523H724V475Z" fill="#00E9FE" fill-opacity="0.329412"/>
<path d="M824 475H728V523H824V475Z" fill="#00ECFF" fill-opacity="0.411765"/>
<path d="M924 475H828V523H924V475Z" fill="#00EDFF" fill-opacity="0.529412"/>
<path d="M1024 475H928V523H1024V475Z" fill="#00EFFF" fill-opacity="0.815686"/>
<path d="M1124 475H1028V523H1124V475Z" fill="#00EEFF" fill-opacity="0.764706"/>
<path d="M1224 475H1128V523H1224V475Z" fill="#2AF0FF" fill-opacity="0.862745"/>
<path d="M1324 475H1228V523H1324V475Z" fill="#B8F9FE" fill-opacity="0.956863"/>
<path d="M224 527H128V575H224V527Z" fill="#111113"/>
<path d="M324 527H228V575H324V527Z" fill="#19191B"/>
<path d="M424 527H328V575H424V527Z" fill="#222325"/>
<path d="M524 527H428V575H524V527Z" fill="#292A2E"/>
<path d="M624 527H528V575H624V527Z" fill="#303136"/>
<path d="M724 527H628V575H724V527Z" fill="#393A40"/>
<path d="M824 527H728V575H824V527Z" fill="#46484F"/>
<path d="M924 527H828V575H924V527Z" fill="#5F606A"/>
<path d="M1024 527H928V575H1024V527Z" fill="#6C6E79"/>
<path d="M1124 527H1028V575H1124V527Z" fill="#797B86"/>
<path d="M1224 527H1128V575H1224V527Z" fill="#B2B3BD"/>
<path d="M1324 527H1228V575H1324V527Z" fill="#EEEEF0"/>
<path d="M224 579H128V627H224V579Z" fill="#1111BB" fill-opacity="0.0117647"/>
<path d="M324 579H228V627H324V579Z" fill="#CBCBF9" fill-opacity="0.0431373"/>
<path d="M424 579H328V627H424V579Z" fill="#D6E2F9" fill-opacity="0.0862745"/>
<path d="M524 579H428V627H524V579Z" fill="#D1D9F9" fill-opacity="0.12549"/>
<path d="M624 579H528V627H624V579Z" fill="#D7DDFD" fill-opacity="0.156863"/>
<path d="M724 579H628V627H724V579Z" fill="#D9DEFC" fill-opacity="0.2"/>
<path d="M824 579H728V627H824V579Z" fill="#DAE2FD" fill-opacity="0.262745"/>
<path d="M924 579H828V627H924V579Z" fill="#E0E3FD" fill-opacity="0.376471"/>
<path d="M1024 579H928V627H1024V579Z" fill="#E0E4FD" fill-opacity="0.439216"/>
<path d="M1124 579H1028V627H1124V579Z" fill="#E3E7FD" fill-opacity="0.494118"/>
<path d="M1224 579H1128V627H1224V579Z" fill="#EFF0FE" fill-opacity="0.72549"/>
<path d="M1324 579H1228V627H1324V579Z" fill="#FDFDFF" fill-opacity="0.937255"/>
<path d="M1273.97 398.273V407H1272.91V399.381H1272.86L1270.73 400.795V399.722L1272.91 398.273H1273.97ZM1276.48 407V406.233L1279.36 403.08C1279.7 402.71 1279.98 402.389 1280.2 402.116C1280.42 401.841 1280.58 401.582 1280.68 401.341C1280.79 401.097 1280.85 400.841 1280.85 400.574C1280.85 400.267 1280.77 400.001 1280.62 399.777C1280.48 399.553 1280.28 399.379 1280.03 399.257C1279.77 399.135 1279.49 399.074 1279.17 399.074C1278.84 399.074 1278.55 399.143 1278.3 399.283C1278.05 399.419 1277.86 399.611 1277.72 399.858C1277.59 400.105 1277.52 400.395 1277.52 400.727H1276.52C1276.52 400.216 1276.63 399.767 1276.87 399.381C1277.11 398.994 1277.43 398.693 1277.83 398.477C1278.24 398.261 1278.7 398.153 1279.21 398.153C1279.72 398.153 1280.17 398.261 1280.57 398.477C1280.96 398.693 1281.27 398.984 1281.5 399.351C1281.72 399.717 1281.83 400.125 1281.83 400.574C1281.83 400.895 1281.78 401.209 1281.66 401.516C1281.55 401.82 1281.35 402.159 1281.06 402.534C1280.78 402.906 1280.39 403.361 1279.89 403.898L1277.93 405.994V406.062H1281.99V407H1276.48Z" fill="#B2B3BD"/>
<path d="M1173.97 398.273V407H1172.91V399.381H1172.86L1170.73 400.795V399.722L1172.91 398.273H1173.97ZM1179.55 398.273V407H1178.49V399.381H1178.44L1176.31 400.795V399.722L1178.49 398.273H1179.55Z" fill="#B2B3BD"/>
<path d="M1072.97 398.273V407H1071.91V399.381H1071.86L1069.73 400.795V399.722L1071.91 398.273H1072.97ZM1078.33 407.119C1077.69 407.119 1077.14 406.945 1076.69 406.595C1076.24 406.243 1075.89 405.733 1075.65 405.065C1075.41 404.395 1075.29 403.585 1075.29 402.636C1075.29 401.693 1075.41 400.888 1075.65 400.22C1075.89 399.55 1076.24 399.038 1076.69 398.686C1077.15 398.331 1077.69 398.153 1078.33 398.153C1078.96 398.153 1079.51 398.331 1079.96 398.686C1080.41 399.038 1080.76 399.55 1081 400.22C1081.24 400.888 1081.36 401.693 1081.36 402.636C1081.36 403.585 1081.24 404.395 1081 405.065C1080.77 405.733 1080.42 406.243 1079.97 406.595C1079.52 406.945 1078.97 407.119 1078.33 407.119ZM1078.33 406.182C1078.96 406.182 1079.46 405.875 1079.81 405.261C1080.16 404.648 1080.34 403.773 1080.34 402.636C1080.34 401.881 1080.26 401.237 1080.1 400.706C1079.94 400.175 1079.71 399.77 1079.41 399.491C1079.11 399.213 1078.75 399.074 1078.33 399.074C1077.7 399.074 1077.2 399.385 1076.85 400.007C1076.49 400.626 1076.32 401.503 1076.32 402.636C1076.32 403.392 1076.4 404.034 1076.56 404.562C1076.71 405.091 1076.94 405.493 1077.24 405.768C1077.54 406.044 1077.9 406.182 1078.33 406.182Z" fill="#B2B3BD"/>
<path d="M975.683 398.153C976.041 398.156 976.399 398.224 976.757 398.358C977.115 398.491 977.441 398.713 977.737 399.023C978.032 399.33 978.269 399.749 978.448 400.28C978.627 400.811 978.717 401.477 978.717 402.278C978.717 403.054 978.643 403.743 978.495 404.345C978.35 404.945 978.14 405.45 977.865 405.862C977.592 406.274 977.26 406.587 976.867 406.8C976.478 407.013 976.038 407.119 975.546 407.119C975.058 407.119 974.622 407.023 974.238 406.83C973.858 406.634 973.545 406.362 973.301 406.016C973.059 405.666 972.904 405.261 972.836 404.801H973.876C973.97 405.202 974.156 405.533 974.434 405.794C974.715 406.053 975.086 406.182 975.546 406.182C976.22 406.182 976.751 405.888 977.14 405.3C977.532 404.712 977.728 403.881 977.728 402.807H977.66C977.501 403.045 977.312 403.251 977.093 403.425C976.875 403.598 976.632 403.732 976.365 403.825C976.098 403.919 975.814 403.966 975.512 403.966C975.012 403.966 974.554 403.842 974.136 403.595C973.721 403.345 973.389 403.003 973.139 402.568C972.892 402.131 972.768 401.631 972.768 401.068C972.768 400.534 972.887 400.045 973.126 399.602C973.367 399.156 973.706 398.801 974.14 398.537C974.578 398.273 975.092 398.145 975.683 398.153ZM975.683 399.091C975.325 399.091 975.002 399.18 974.715 399.359C974.431 399.536 974.206 399.774 974.038 400.075C973.873 400.374 973.791 400.705 973.791 401.068C973.791 401.432 973.87 401.763 974.029 402.061C974.191 402.357 974.412 402.592 974.69 402.768C974.971 402.942 975.291 403.028 975.649 403.028C975.919 403.028 976.17 402.976 976.403 402.871C976.636 402.763 976.839 402.616 977.012 402.432C977.189 402.244 977.326 402.033 977.426 401.797C977.525 401.558 977.575 401.31 977.575 401.051C977.575 400.71 977.492 400.391 977.328 400.092C977.166 399.794 976.941 399.553 976.654 399.368C976.37 399.183 976.046 399.091 975.683 399.091Z" fill="#B2B3BD"/>
<path d="M875.699 407.119C875.114 407.119 874.597 407.016 874.148 406.808C873.702 406.598 873.354 406.31 873.104 405.943C872.854 405.574 872.73 405.153 872.733 404.682C872.73 404.312 872.803 403.972 872.95 403.659C873.098 403.344 873.3 403.081 873.555 402.871C873.814 402.658 874.102 402.523 874.42 402.466V402.415C874.003 402.307 873.67 402.072 873.423 401.712C873.176 401.348 873.054 400.935 873.057 400.472C873.054 400.028 873.166 399.632 873.393 399.283C873.621 398.933 873.933 398.658 874.331 398.456C874.732 398.254 875.188 398.153 875.699 398.153C876.205 398.153 876.656 398.254 877.054 398.456C877.452 398.658 877.764 398.933 877.991 399.283C878.222 399.632 878.338 400.028 878.341 400.472C878.338 400.935 878.212 401.348 877.962 401.712C877.714 402.072 877.386 402.307 876.977 402.415V402.466C877.293 402.523 877.577 402.658 877.83 402.871C878.082 403.081 878.284 403.344 878.435 403.659C878.585 403.972 878.662 404.312 878.665 404.682C878.662 405.153 878.534 405.574 878.281 405.943C878.031 406.31 877.683 406.598 877.237 406.808C876.794 407.016 876.281 407.119 875.699 407.119ZM875.699 406.182C876.094 406.182 876.435 406.118 876.722 405.99C877.009 405.862 877.23 405.682 877.386 405.449C877.543 405.216 877.622 404.943 877.625 404.631C877.622 404.301 877.537 404.01 877.369 403.757C877.202 403.504 876.973 403.305 876.683 403.161C876.396 403.016 876.068 402.943 875.699 402.943C875.327 402.943 874.994 403.016 874.702 403.161C874.412 403.305 874.183 403.504 874.016 403.757C873.851 404.01 873.77 404.301 873.773 404.631C873.77 404.943 873.845 405.216 873.999 405.449C874.155 405.682 874.378 405.862 874.668 405.99C874.957 406.118 875.301 406.182 875.699 406.182ZM875.699 402.04C876.011 402.04 876.288 401.977 876.53 401.852C876.774 401.727 876.966 401.553 877.105 401.328C877.244 401.104 877.315 400.841 877.318 400.54C877.315 400.244 877.246 399.987 877.109 399.768C876.973 399.547 876.784 399.376 876.543 399.257C876.301 399.135 876.02 399.074 875.699 399.074C875.372 399.074 875.087 399.135 874.842 399.257C874.598 399.376 874.409 399.547 874.276 399.768C874.142 399.987 874.077 400.244 874.08 400.54C874.077 400.841 874.143 401.104 874.28 401.328C874.419 401.553 874.611 401.727 874.855 401.852C875.099 401.977 875.381 402.04 875.699 402.04Z" fill="#B2B3BD"/>
<path d="M774.176 407L778.08 399.278V399.21H773.58V398.273H779.17V399.261L775.284 407H774.176Z" fill="#B2B3BD"/>
<path d="M675.802 407.119C675.444 407.114 675.086 407.045 674.728 406.915C674.37 406.784 674.044 406.564 673.748 406.254C673.453 405.942 673.215 405.52 673.037 404.989C672.858 404.455 672.768 403.784 672.768 402.977C672.768 402.205 672.84 401.52 672.985 400.923C673.13 400.324 673.34 399.82 673.616 399.411C673.892 398.999 674.224 398.686 674.613 398.473C675.005 398.26 675.447 398.153 675.939 398.153C676.427 398.153 676.862 398.251 677.242 398.447C677.626 398.641 677.939 398.911 678.18 399.257C678.421 399.604 678.578 400.003 678.649 400.455H677.609C677.512 400.062 677.325 399.737 677.046 399.479C676.768 399.22 676.399 399.091 675.939 399.091C675.262 399.091 674.73 399.385 674.34 399.973C673.954 400.561 673.76 401.386 673.757 402.449H673.825C673.984 402.207 674.173 402.001 674.392 401.831C674.613 401.658 674.858 401.524 675.125 401.43C675.392 401.337 675.674 401.29 675.973 401.29C676.473 401.29 676.93 401.415 677.345 401.665C677.76 401.912 678.092 402.254 678.342 402.692C678.592 403.126 678.717 403.625 678.717 404.188C678.717 404.727 678.596 405.222 678.355 405.67C678.113 406.116 677.774 406.472 677.336 406.736C676.902 406.997 676.39 407.125 675.802 407.119ZM675.802 406.182C676.16 406.182 676.481 406.092 676.765 405.913C677.052 405.734 677.278 405.494 677.443 405.193C677.61 404.892 677.694 404.557 677.694 404.188C677.694 403.827 677.613 403.499 677.451 403.203C677.292 402.905 677.072 402.668 676.791 402.491C676.512 402.315 676.194 402.227 675.836 402.227C675.566 402.227 675.315 402.281 675.082 402.389C674.849 402.494 674.644 402.639 674.468 402.824C674.295 403.009 674.159 403.22 674.059 403.459C673.96 403.695 673.91 403.943 673.91 404.205C673.91 404.551 673.991 404.875 674.153 405.176C674.318 405.477 674.542 405.72 674.826 405.905C675.113 406.089 675.439 406.182 675.802 406.182Z" fill="#B2B3BD"/>
<path d="M575.631 407.119C575.131 407.119 574.68 407.02 574.28 406.821C573.879 406.622 573.558 406.349 573.317 406.003C573.075 405.656 572.943 405.261 572.92 404.818H573.943C573.983 405.213 574.162 405.54 574.48 405.798C574.801 406.054 575.185 406.182 575.631 406.182C575.989 406.182 576.307 406.098 576.585 405.93C576.866 405.763 577.087 405.533 577.246 405.24C577.408 404.945 577.489 404.611 577.489 404.239C577.489 403.858 577.405 403.518 577.237 403.22C577.072 402.919 576.845 402.682 576.555 402.509C576.266 402.335 575.935 402.247 575.562 402.244C575.295 402.241 575.021 402.283 574.74 402.368C574.459 402.45 574.227 402.557 574.045 402.688L573.057 402.568L573.585 398.273H578.119V399.21H574.472L574.165 401.784H574.216C574.395 401.642 574.619 401.524 574.889 401.43C575.159 401.337 575.44 401.29 575.733 401.29C576.267 401.29 576.743 401.418 577.161 401.673C577.581 401.926 577.911 402.273 578.149 402.713C578.391 403.153 578.511 403.656 578.511 404.222C578.511 404.778 578.386 405.276 578.136 405.713C577.889 406.148 577.548 406.491 577.114 406.744C576.679 406.994 576.185 407.119 575.631 407.119Z" fill="#B2B3BD"/>
<path d="M472.699 405.21V404.341L476.534 398.273H477.165V399.619H476.739L473.841 404.205V404.273H479.006V405.21H472.699ZM476.807 407V404.946V404.541V398.273H477.812V407H476.807Z" fill="#B2B3BD"/>
<path d="M375.853 407.119C375.291 407.119 374.789 407.023 374.349 406.83C373.912 406.636 373.564 406.368 373.305 406.024C373.049 405.678 372.91 405.276 372.887 404.818H373.961C373.984 405.099 374.081 405.342 374.251 405.547C374.421 405.749 374.644 405.905 374.92 406.016C375.196 406.126 375.501 406.182 375.836 406.182C376.211 406.182 376.544 406.116 376.833 405.986C377.123 405.855 377.35 405.673 377.515 405.44C377.68 405.207 377.762 404.938 377.762 404.631C377.762 404.31 377.683 404.027 377.524 403.783C377.365 403.536 377.132 403.342 376.825 403.203C376.518 403.064 376.143 402.994 375.7 402.994H375.001V402.057H375.7C376.046 402.057 376.35 401.994 376.612 401.869C376.876 401.744 377.082 401.568 377.23 401.341C377.38 401.114 377.456 400.847 377.456 400.54C377.456 400.244 377.39 399.987 377.26 399.768C377.129 399.55 376.944 399.379 376.706 399.257C376.47 399.135 376.191 399.074 375.87 399.074C375.569 399.074 375.285 399.129 375.018 399.24C374.754 399.348 374.538 399.506 374.37 399.713C374.203 399.918 374.112 400.165 374.098 400.455H373.075C373.092 399.997 373.23 399.597 373.488 399.253C373.747 398.906 374.085 398.636 374.502 398.443C374.923 398.25 375.385 398.153 375.887 398.153C376.427 398.153 376.89 398.263 377.277 398.482C377.663 398.697 377.96 398.983 378.167 399.338C378.375 399.693 378.478 400.077 378.478 400.489C378.478 400.98 378.349 401.399 378.09 401.746C377.835 402.092 377.487 402.332 377.046 402.466V402.534C377.598 402.625 378.028 402.859 378.338 403.237C378.647 403.612 378.802 404.077 378.802 404.631C378.802 405.105 378.673 405.531 378.414 405.909C378.159 406.284 377.809 406.58 377.366 406.795C376.923 407.011 376.419 407.119 375.853 407.119Z" fill="#B2B3BD"/>
<path d="M272.902 407V406.233L275.783 403.08C276.121 402.71 276.4 402.389 276.618 402.116C276.837 401.841 276.999 401.582 277.104 401.341C277.212 401.097 277.266 400.841 277.266 400.574C277.266 400.267 277.192 400.001 277.044 399.777C276.9 399.553 276.701 399.379 276.448 399.257C276.195 399.135 275.911 399.074 275.596 399.074C275.26 399.074 274.968 399.143 274.718 399.283C274.471 399.419 274.279 399.611 274.142 399.858C274.009 400.105 273.942 400.395 273.942 400.727H272.937C272.937 400.216 273.054 399.767 273.29 399.381C273.526 398.994 273.847 398.693 274.253 398.477C274.662 398.261 275.121 398.153 275.63 398.153C276.141 398.153 276.594 398.261 276.989 398.477C277.384 398.693 277.694 398.984 277.918 399.351C278.142 399.717 278.255 400.125 278.255 400.574C278.255 400.895 278.196 401.209 278.08 401.516C277.966 401.82 277.767 402.159 277.483 402.534C277.202 402.906 276.811 403.361 276.311 403.898L274.351 405.994V406.062H278.408V407H272.902Z" fill="#B2B3BD"/>
<path d="M176.971 398.273V407H175.914V399.381H175.863L173.732 400.795V399.722L175.914 398.273H176.971Z" fill="#B2B3BD"/>
</g>
</g>
<path d="M1572.66 209.5C1570.27 209.5 1568.31 208.775 1566.78 207.324C1565.33 205.788 1564.6 203.911 1564.6 201.692V127.708C1564.6 125.489 1565.33 123.655 1566.78 122.204C1568.31 120.668 1570.19 119.9 1572.41 119.9H1614.01C1616.23 119.9 1618.06 120.625 1619.51 122.076C1621.05 123.441 1621.82 125.233 1621.82 127.452C1621.82 129.329 1621.05 130.993 1619.51 132.444C1618.06 133.895 1616.23 134.62 1614.01 134.62H1579.45L1580.6 133.084V158.812L1579.7 157.148H1608.25C1610.47 157.148 1612.3 157.873 1613.75 159.324C1615.29 160.689 1616.06 162.481 1616.06 164.7C1616.06 166.577 1615.29 168.241 1613.75 169.692C1612.3 171.143 1610.47 171.868 1608.25 171.868H1579.45L1580.6 170.716V201.692C1580.6 203.911 1579.79 205.788 1578.17 207.324C1576.63 208.775 1574.8 209.5 1572.66 209.5ZM1699.75 175.324C1699.75 182.321 1698.17 188.508 1695.02 193.884C1691.94 199.175 1687.76 203.313 1682.47 206.3C1677.27 209.287 1671.42 210.78 1664.94 210.78C1658.45 210.78 1652.56 209.287 1647.27 206.3C1642.07 203.313 1637.89 199.175 1634.73 193.884C1631.66 188.508 1630.12 182.321 1630.12 175.324C1630.12 168.327 1631.66 162.183 1634.73 156.892C1637.89 151.516 1642.07 147.335 1647.27 144.348C1652.56 141.276 1658.45 139.74 1664.94 139.74C1671.42 139.74 1677.27 141.276 1682.47 144.348C1687.76 147.335 1691.94 151.516 1695.02 156.892C1698.17 162.183 1699.75 168.327 1699.75 175.324ZM1684.39 175.324C1684.39 170.972 1683.5 167.217 1681.7 164.06C1680 160.817 1677.65 158.3 1674.66 156.508C1671.76 154.716 1668.52 153.82 1664.94 153.82C1661.35 153.82 1658.07 154.716 1655.08 156.508C1652.18 158.3 1649.83 160.817 1648.04 164.06C1646.33 167.217 1645.48 170.972 1645.48 175.324C1645.48 179.591 1646.33 183.345 1648.04 186.588C1649.83 189.745 1652.18 192.22 1655.08 194.012C1658.07 195.804 1661.35 196.7 1664.94 196.7C1668.52 196.7 1671.76 195.804 1674.66 194.012C1677.65 192.22 1680 189.745 1681.7 186.588C1683.5 183.345 1684.39 179.591 1684.39 175.324ZM1749.8 139.74C1756.12 139.74 1760.9 141.063 1764.14 143.708C1767.47 146.353 1769.73 149.895 1770.92 154.332C1772.2 158.684 1772.84 163.548 1772.84 168.924V201.692C1772.84 203.911 1772.12 205.788 1770.67 207.324C1769.22 208.775 1767.38 209.5 1765.16 209.5C1762.94 209.5 1761.11 208.775 1759.66 207.324C1758.21 205.788 1757.48 203.911 1757.48 201.692V168.924C1757.48 166.108 1757.1 163.591 1756.33 161.372C1755.65 159.068 1754.37 157.233 1752.49 155.868C1750.61 154.503 1747.93 153.82 1744.43 153.82C1741.01 153.82 1738.11 154.503 1735.72 155.868C1733.42 157.233 1731.63 159.068 1730.35 161.372C1729.15 163.591 1728.56 166.108 1728.56 168.924V201.692C1728.56 203.911 1727.83 205.788 1726.38 207.324C1724.93 208.775 1723.09 209.5 1720.88 209.5C1718.66 209.5 1716.82 208.775 1715.37 207.324C1713.92 205.788 1713.2 203.911 1713.2 201.692V148.828C1713.2 146.609 1713.92 144.775 1715.37 143.324C1716.82 141.788 1718.66 141.02 1720.88 141.02C1723.09 141.02 1724.93 141.788 1726.38 143.324C1727.83 144.775 1728.56 146.609 1728.56 148.828V154.332L1726.64 153.948C1727.4 152.497 1728.51 150.961 1729.96 149.34C1731.41 147.633 1733.12 146.055 1735.08 144.604C1737.05 143.153 1739.26 142.001 1741.74 141.148C1744.21 140.209 1746.9 139.74 1749.8 139.74ZM1790.21 142.3H1820.55C1822.6 142.3 1824.3 142.983 1825.67 144.348C1827.03 145.713 1827.72 147.42 1827.72 149.468C1827.72 151.431 1827.03 153.095 1825.67 154.46C1824.3 155.74 1822.6 156.38 1820.55 156.38H1790.21C1788.17 156.38 1786.46 155.697 1785.09 154.332C1783.73 152.967 1783.05 151.26 1783.05 149.212C1783.05 147.249 1783.73 145.628 1785.09 144.348C1786.46 142.983 1788.17 142.3 1790.21 142.3ZM1803.91 126.3C1806.13 126.3 1807.92 127.068 1809.29 128.604C1810.74 130.055 1811.46 131.889 1811.46 134.108V191.068C1811.46 192.263 1811.67 193.244 1812.1 194.012C1812.61 194.78 1813.25 195.335 1814.02 195.676C1814.87 196.017 1815.77 196.188 1816.71 196.188C1817.73 196.188 1818.67 196.017 1819.53 195.676C1820.38 195.249 1821.36 195.036 1822.47 195.036C1823.66 195.036 1824.73 195.591 1825.67 196.7C1826.69 197.809 1827.21 199.345 1827.21 201.308C1827.21 203.697 1825.88 205.66 1823.24 207.196C1820.68 208.732 1817.9 209.5 1814.92 209.5C1813.13 209.5 1811.12 209.372 1808.9 209.116C1806.77 208.775 1804.72 208.049 1802.76 206.94C1800.88 205.745 1799.3 203.953 1798.02 201.564C1796.74 199.175 1796.1 195.889 1796.1 191.708V134.108C1796.1 131.889 1796.83 130.055 1798.28 128.604C1799.81 127.068 1801.69 126.3 1803.91 126.3Z" fill="white"/>
<g filter="url(#filter1_d_6908_27832)">
<rect x="1555" y="265.5" width="442" height="424" rx="30" fill="white" shape-rendering="crispEdges"/>
<g filter="url(#filter2_dddd_6908_27832)">
<rect x="1658.5" y="329.5" width="235" height="218" rx="20" fill="white"/>
<path d="M1736 416.996L1708.35 482.02C1707.75 483.641 1706.81 484.921 1705.53 485.86C1704.34 486.713 1703.01 487.14 1701.56 487.14C1699.26 487.14 1697.55 486.5 1696.44 485.22C1695.33 483.94 1694.78 482.361 1694.78 480.484C1694.78 479.716 1694.91 478.905 1695.16 478.052L1727.04 401.508C1727.72 399.801 1728.74 398.479 1730.11 397.54C1731.56 396.601 1733.09 396.217 1734.72 396.388C1736.25 396.388 1737.66 396.857 1738.94 397.796C1740.31 398.649 1741.29 399.887 1741.88 401.508L1773.37 476.516C1773.8 477.625 1774.01 478.649 1774.01 479.588C1774.01 481.892 1773.24 483.727 1771.71 485.092C1770.26 486.457 1768.64 487.14 1766.84 487.14C1765.31 487.14 1763.9 486.671 1762.62 485.732C1761.43 484.793 1760.49 483.513 1759.8 481.892L1732.28 417.764L1736 416.996ZM1712.32 466.404L1719.36 451.684H1753.92L1756.35 466.404H1712.32ZM1842.13 416.74C1844.35 416.74 1846.19 417.465 1847.64 418.916C1849.09 420.367 1849.81 422.244 1849.81 424.548V478.692C1849.81 480.911 1849.09 482.788 1847.64 484.324C1846.19 485.775 1844.35 486.5 1842.13 486.5C1839.92 486.5 1838.08 485.775 1836.63 484.324C1835.18 482.788 1834.45 480.911 1834.45 478.692V472.42L1837.27 473.572C1837.27 474.681 1836.67 476.047 1835.48 477.668C1834.28 479.204 1832.66 480.74 1830.61 482.276C1828.57 483.812 1826.13 485.135 1823.32 486.244C1820.59 487.268 1817.6 487.78 1814.36 487.78C1808.47 487.78 1803.14 486.287 1798.36 483.3C1793.58 480.228 1789.78 476.047 1786.97 470.756C1784.24 465.38 1782.87 459.236 1782.87 452.324C1782.87 445.327 1784.24 439.183 1786.97 433.892C1789.78 428.516 1793.54 424.335 1798.23 421.348C1802.92 418.276 1808.13 416.74 1813.85 416.74C1817.52 416.74 1820.89 417.295 1823.96 418.404C1827.03 419.513 1829.68 420.921 1831.89 422.628C1834.2 424.335 1835.95 426.084 1837.14 427.876C1838.42 429.583 1839.06 431.033 1839.06 432.228L1834.45 433.892V424.548C1834.45 422.329 1835.18 420.495 1836.63 419.044C1838.08 417.508 1839.92 416.74 1842.13 416.74ZM1816.28 473.7C1820.03 473.7 1823.32 472.761 1826.13 470.884C1828.95 469.007 1831.13 466.447 1832.66 463.204C1834.28 459.961 1835.09 456.335 1835.09 452.324C1835.09 448.228 1834.28 444.559 1832.66 441.316C1831.13 438.073 1828.95 435.513 1826.13 433.636C1823.32 431.759 1820.03 430.82 1816.28 430.82C1812.61 430.82 1809.37 431.759 1806.55 433.636C1803.73 435.513 1801.52 438.073 1799.89 441.316C1798.36 444.559 1797.59 448.228 1797.59 452.324C1797.59 456.335 1798.36 459.961 1799.89 463.204C1801.52 466.447 1803.73 469.007 1806.55 470.884C1809.37 472.761 1812.61 473.7 1816.28 473.7Z" fill="black"/>
</g>
<path d="M1711.53 613.508C1712.03 613.508 1712.5 613.712 1712.93 614.12C1713.36 614.552 1713.58 615.044 1713.58 615.596C1713.58 616.148 1713.33 616.664 1712.82 617.144C1712.34 617.648 1711.72 618.092 1710.95 618.476C1710.18 618.86 1709.38 619.16 1708.54 619.376C1707.72 619.592 1706.98 619.7 1706.31 619.7C1704.82 619.7 1703.63 619.556 1702.74 619.268C1701.86 619.004 1701.12 618.692 1700.55 618.332C1699.97 617.996 1699.43 617.684 1698.93 617.396C1698.42 617.132 1697.81 617 1697.09 617C1696.64 617 1696.26 617.072 1695.98 617.216C1695.71 617.384 1695.41 617.54 1695.08 617.684C1694.76 617.852 1694.32 617.936 1693.74 617.936C1693.14 617.936 1692.64 617.708 1692.23 617.252C1691.82 616.796 1691.62 616.304 1691.62 615.776C1691.62 614.84 1692.04 614.216 1692.88 613.904L1700.33 611.132L1703.57 611.924L1696.59 614.516L1698.64 613.328C1699.48 613.328 1700.21 613.448 1700.84 613.688C1701.48 613.952 1702.1 614.24 1702.67 614.552C1703.25 614.864 1703.84 615.14 1704.44 615.38C1705.06 615.644 1705.77 615.776 1706.56 615.776C1707.21 615.776 1707.75 615.668 1708.18 615.452C1708.64 615.236 1709.03 614.996 1709.37 614.732C1709.78 614.42 1710.14 614.132 1710.45 613.868C1710.78 613.628 1711.14 613.508 1711.53 613.508ZM1711.38 599.9C1711.38 601.7 1711.08 603.38 1710.48 604.94C1709.88 606.5 1709.03 607.88 1707.93 609.08C1706.85 610.256 1705.55 611.18 1704.04 611.852C1702.55 612.524 1700.92 612.86 1699.14 612.86C1697.37 612.86 1695.74 612.524 1694.25 611.852C1692.76 611.18 1691.46 610.256 1690.36 609.08C1689.28 607.88 1688.44 606.5 1687.84 604.94C1687.24 603.38 1686.94 601.7 1686.94 599.9C1686.94 598.1 1687.24 596.42 1687.84 594.86C1688.44 593.3 1689.28 591.932 1690.36 590.756C1691.46 589.556 1692.76 588.62 1694.25 587.948C1695.74 587.276 1697.37 586.94 1699.14 586.94C1700.92 586.94 1702.55 587.276 1704.04 587.948C1705.55 588.62 1706.85 589.556 1707.93 590.756C1709.03 591.932 1709.88 593.3 1710.48 594.86C1711.08 596.42 1711.38 598.1 1711.38 599.9ZM1706.7 599.9C1706.7 598.292 1706.38 596.84 1705.73 595.544C1705.08 594.224 1704.2 593.18 1703.07 592.412C1701.94 591.644 1700.63 591.26 1699.14 591.26C1697.66 591.26 1696.35 591.644 1695.22 592.412C1694.09 593.18 1693.2 594.212 1692.56 595.508C1691.93 596.804 1691.62 598.268 1691.62 599.9C1691.62 601.508 1691.93 602.972 1692.56 604.292C1693.2 605.588 1694.09 606.62 1695.22 607.388C1696.35 608.156 1697.66 608.54 1699.14 608.54C1700.63 608.54 1701.94 608.156 1703.07 607.388C1704.2 606.62 1705.08 605.588 1705.73 604.292C1706.38 602.972 1706.7 601.508 1706.7 599.9ZM1729.31 593.24C1729.93 593.24 1730.45 593.456 1730.86 593.888C1731.26 594.296 1731.47 594.812 1731.47 595.436V604.58C1731.47 607.124 1730.76 609.14 1729.34 610.628C1727.93 612.116 1725.89 612.86 1723.22 612.86C1720.56 612.86 1718.52 612.116 1717.1 610.628C1715.71 609.14 1715.02 607.124 1715.02 604.58V595.436C1715.02 594.812 1715.22 594.296 1715.63 593.888C1716.04 593.456 1716.55 593.24 1717.18 593.24C1717.8 593.24 1718.32 593.456 1718.72 593.888C1719.13 594.296 1719.34 594.812 1719.34 595.436V604.58C1719.34 606.044 1719.66 607.136 1720.31 607.856C1720.96 608.552 1721.93 608.9 1723.22 608.9C1724.54 608.9 1725.53 608.552 1726.18 607.856C1726.82 607.136 1727.15 606.044 1727.15 604.58V595.436C1727.15 594.812 1727.35 594.296 1727.76 593.888C1728.17 593.456 1728.68 593.24 1729.31 593.24ZM1740.21 610.304C1740.21 610.928 1740.01 611.456 1739.6 611.888C1739.19 612.296 1738.68 612.5 1738.05 612.5C1737.43 612.5 1736.91 612.296 1736.5 611.888C1736.1 611.456 1735.89 610.928 1735.89 610.304V595.436C1735.89 594.812 1736.1 594.296 1736.5 593.888C1736.91 593.456 1737.43 593.24 1738.05 593.24C1738.68 593.24 1739.19 593.456 1739.6 593.888C1740.01 594.296 1740.21 594.812 1740.21 595.436V610.304ZM1738.02 590.9C1737.2 590.9 1736.62 590.768 1736.29 590.504C1735.95 590.24 1735.78 589.772 1735.78 589.1V588.416C1735.78 587.72 1735.96 587.252 1736.32 587.012C1736.71 586.748 1737.28 586.616 1738.05 586.616C1738.89 586.616 1739.48 586.748 1739.82 587.012C1740.15 587.276 1740.32 587.744 1740.32 588.416V589.1C1740.32 589.796 1740.14 590.276 1739.78 590.54C1739.42 590.78 1738.83 590.9 1738.02 590.9ZM1753.22 592.88C1754.59 592.88 1755.78 593.024 1756.78 593.312C1757.82 593.6 1758.61 594.008 1759.16 594.536C1759.74 595.04 1760.02 595.652 1760.02 596.372C1760.02 596.852 1759.88 597.308 1759.59 597.74C1759.3 598.148 1758.88 598.352 1758.33 598.352C1757.95 598.352 1757.62 598.304 1757.36 598.208C1757.12 598.088 1756.9 597.944 1756.71 597.776C1756.52 597.608 1756.29 597.452 1756.03 597.308C1755.79 597.164 1755.42 597.056 1754.91 596.984C1754.43 596.888 1754.07 596.84 1753.83 596.84C1752.61 596.84 1751.56 597.104 1750.7 597.632C1749.86 598.16 1749.21 598.88 1748.76 599.792C1748.3 600.68 1748.07 601.712 1748.07 602.888C1748.07 604.04 1748.3 605.072 1748.76 605.984C1749.24 606.872 1749.88 607.58 1750.7 608.108C1751.54 608.636 1752.5 608.9 1753.58 608.9C1754.18 608.9 1754.7 608.864 1755.13 608.792C1755.56 608.72 1755.92 608.612 1756.21 608.468C1756.54 608.276 1756.84 608.072 1757.11 607.856C1757.37 607.64 1757.77 607.532 1758.3 607.532C1758.92 607.532 1759.4 607.736 1759.74 608.144C1760.07 608.528 1760.24 609.008 1760.24 609.584C1760.24 610.184 1759.9 610.736 1759.23 611.24C1758.56 611.72 1757.67 612.116 1756.57 612.428C1755.49 612.716 1754.31 612.86 1753.04 612.86C1751.14 612.86 1749.5 612.428 1748.11 611.564C1746.72 610.676 1745.64 609.476 1744.87 607.964C1744.12 606.452 1743.75 604.76 1743.75 602.888C1743.75 600.92 1744.15 599.192 1744.94 597.704C1745.76 596.192 1746.87 595.016 1748.29 594.176C1749.73 593.312 1751.37 592.88 1753.22 592.88ZM1765.88 612.5C1765.25 612.5 1764.74 612.296 1764.33 611.888C1763.92 611.456 1763.72 610.928 1763.72 610.304V588.056C1763.72 587.432 1763.92 586.916 1764.33 586.508C1764.74 586.076 1765.25 585.86 1765.88 585.86C1766.5 585.86 1767.02 586.076 1767.42 586.508C1767.83 586.916 1768.04 587.432 1768.04 588.056V610.304C1768.04 610.928 1767.83 611.456 1767.42 611.888C1767.02 612.296 1766.5 612.5 1765.88 612.5ZM1777.32 593.24C1777.88 593.24 1778.36 593.468 1778.76 593.924C1779.17 594.38 1779.38 594.824 1779.38 595.256C1779.38 595.832 1779.09 596.372 1778.51 596.876L1767.68 606.848L1767.5 601.88L1775.74 593.924C1776.2 593.468 1776.72 593.24 1777.32 593.24ZM1777.86 612.464C1777.24 612.464 1776.71 612.224 1776.28 611.744L1769.62 604.688L1772.9 601.664L1779.38 608.72C1779.83 609.2 1780.06 609.74 1780.06 610.34C1780.06 610.964 1779.81 611.48 1779.3 611.888C1778.82 612.272 1778.34 612.464 1777.86 612.464ZM1782.56 609.512C1782.32 609.176 1782.21 608.744 1782.24 608.216C1782.26 607.688 1782.57 607.232 1783.17 606.848C1783.56 606.608 1783.96 606.512 1784.4 606.56C1784.83 606.584 1785.25 606.8 1785.66 607.208C1786.35 607.904 1787.08 608.444 1787.85 608.828C1788.62 609.212 1789.58 609.404 1790.73 609.404C1791.09 609.38 1791.49 609.332 1791.92 609.26C1792.35 609.164 1792.72 608.972 1793.04 608.684C1793.37 608.372 1793.54 607.904 1793.54 607.28C1793.54 606.752 1793.36 606.332 1793 606.02C1792.64 605.708 1792.16 605.444 1791.56 605.228C1790.98 605.012 1790.34 604.808 1789.62 604.616C1788.87 604.4 1788.1 604.16 1787.31 603.896C1786.54 603.632 1785.84 603.296 1785.19 602.888C1784.54 602.456 1784.01 601.892 1783.6 601.196C1783.2 600.5 1782.99 599.624 1782.99 598.568C1782.99 597.368 1783.33 596.348 1784 595.508C1784.67 594.668 1785.54 594.02 1786.59 593.564C1787.67 593.108 1788.8 592.88 1789.98 592.88C1790.72 592.88 1791.5 592.976 1792.32 593.168C1793.13 593.336 1793.91 593.624 1794.66 594.032C1795.4 594.416 1796.02 594.932 1796.53 595.58C1796.79 595.94 1796.95 596.372 1797 596.876C1797.04 597.38 1796.82 597.836 1796.31 598.244C1795.95 598.532 1795.53 598.664 1795.05 598.64C1794.57 598.592 1794.18 598.424 1793.86 598.136C1793.46 597.608 1792.9 597.188 1792.21 596.876C1791.54 596.564 1790.76 596.408 1789.87 596.408C1789.51 596.408 1789.11 596.456 1788.68 596.552C1788.27 596.624 1787.91 596.804 1787.6 597.092C1787.29 597.356 1787.13 597.788 1787.13 598.388C1787.13 598.94 1787.31 599.384 1787.67 599.72C1788.03 600.032 1788.51 600.296 1789.11 600.512C1789.74 600.704 1790.4 600.896 1791.09 601.088C1791.81 601.28 1792.54 601.508 1793.29 601.772C1794.03 602.036 1794.72 602.384 1795.34 602.816C1795.96 603.248 1796.47 603.812 1796.85 604.508C1797.24 605.18 1797.43 606.044 1797.43 607.1C1797.43 608.324 1797.07 609.368 1796.35 610.232C1795.63 611.096 1794.73 611.756 1793.65 612.212C1792.57 612.644 1791.46 612.86 1790.34 612.86C1788.92 612.86 1787.5 612.62 1786.09 612.14C1784.67 611.636 1783.5 610.76 1782.56 609.512ZM1817.09 592.88C1817.72 592.88 1818.23 593.084 1818.64 593.492C1819.05 593.9 1819.25 594.428 1819.25 595.076V610.304C1819.25 610.928 1819.05 611.456 1818.64 611.888C1818.23 612.296 1817.72 612.5 1817.09 612.5C1816.47 612.5 1815.95 612.296 1815.54 611.888C1815.14 611.456 1814.93 610.928 1814.93 610.304V608.54L1815.72 608.864C1815.72 609.176 1815.56 609.56 1815.22 610.016C1814.88 610.448 1814.43 610.88 1813.85 611.312C1813.28 611.744 1812.59 612.116 1811.8 612.428C1811.03 612.716 1810.19 612.86 1809.28 612.86C1807.62 612.86 1806.12 612.44 1804.78 611.6C1803.44 610.736 1802.37 609.56 1801.58 608.072C1800.81 606.56 1800.42 604.832 1800.42 602.888C1800.42 600.92 1800.81 599.192 1801.58 597.704C1802.37 596.192 1803.42 595.016 1804.74 594.176C1806.06 593.312 1807.53 592.88 1809.14 592.88C1810.17 592.88 1811.12 593.036 1811.98 593.348C1812.84 593.66 1813.59 594.056 1814.21 594.536C1814.86 595.016 1815.35 595.508 1815.69 596.012C1816.05 596.492 1816.23 596.9 1816.23 597.236L1814.93 597.704V595.076C1814.93 594.452 1815.14 593.936 1815.54 593.528C1815.95 593.096 1816.47 592.88 1817.09 592.88ZM1809.82 608.9C1810.88 608.9 1811.8 608.636 1812.59 608.108C1813.38 607.58 1814 606.86 1814.43 605.948C1814.88 605.036 1815.11 604.016 1815.11 602.888C1815.11 601.736 1814.88 600.704 1814.43 599.792C1814 598.88 1813.38 598.16 1812.59 597.632C1811.8 597.104 1810.88 596.84 1809.82 596.84C1808.79 596.84 1807.88 597.104 1807.08 597.632C1806.29 598.16 1805.67 598.88 1805.21 599.792C1804.78 600.704 1804.56 601.736 1804.56 602.888C1804.56 604.016 1804.78 605.036 1805.21 605.948C1805.67 606.86 1806.29 607.58 1807.08 608.108C1807.88 608.636 1808.79 608.9 1809.82 608.9ZM1834.23 592.88C1836 592.88 1837.35 593.252 1838.26 593.996C1839.19 594.74 1839.83 595.736 1840.17 596.984C1840.53 598.208 1840.71 599.576 1840.71 601.088V610.304C1840.71 610.928 1840.5 611.456 1840.09 611.888C1839.69 612.296 1839.17 612.5 1838.55 612.5C1837.92 612.5 1837.41 612.296 1837 611.888C1836.59 611.456 1836.39 610.928 1836.39 610.304V601.088C1836.39 600.296 1836.28 599.588 1836.06 598.964C1835.87 598.316 1835.51 597.8 1834.98 597.416C1834.45 597.032 1833.7 596.84 1832.71 596.84C1831.75 596.84 1830.94 597.032 1830.27 597.416C1829.62 597.8 1829.11 598.316 1828.75 598.964C1828.42 599.588 1828.25 600.296 1828.25 601.088V610.304C1828.25 610.928 1828.05 611.456 1827.64 611.888C1827.23 612.296 1826.71 612.5 1826.09 612.5C1825.47 612.5 1824.95 612.296 1824.54 611.888C1824.13 611.456 1823.93 610.928 1823.93 610.304V595.436C1823.93 594.812 1824.13 594.296 1824.54 593.888C1824.95 593.456 1825.47 593.24 1826.09 593.24C1826.71 593.24 1827.23 593.456 1827.64 593.888C1828.05 594.296 1828.25 594.812 1828.25 595.436V596.984L1827.71 596.876C1827.93 596.468 1828.24 596.036 1828.65 595.58C1829.05 595.1 1829.53 594.656 1830.09 594.248C1830.64 593.84 1831.26 593.516 1831.96 593.276C1832.65 593.012 1833.41 592.88 1834.23 592.88ZM1861.14 585.86C1861.77 585.86 1862.28 586.064 1862.69 586.472C1863.1 586.88 1863.3 587.408 1863.3 588.056V610.304C1863.3 610.928 1863.1 611.456 1862.69 611.888C1862.28 612.296 1861.77 612.5 1861.14 612.5C1860.52 612.5 1860 612.296 1859.6 611.888C1859.19 611.456 1858.98 610.928 1858.98 610.304V608.54L1859.78 608.864C1859.78 609.176 1859.61 609.56 1859.27 610.016C1858.94 610.448 1858.48 610.88 1857.9 611.312C1857.33 611.744 1856.64 612.116 1855.85 612.428C1855.08 612.716 1854.24 612.86 1853.33 612.86C1851.68 612.86 1850.18 612.44 1848.83 611.6C1847.49 610.736 1846.42 609.56 1845.63 608.072C1844.86 606.56 1844.48 604.832 1844.48 602.888C1844.48 600.92 1844.86 599.192 1845.63 597.704C1846.42 596.192 1847.48 595.016 1848.8 594.176C1850.12 593.312 1851.58 592.88 1853.19 592.88C1854.22 592.88 1855.17 593.036 1856.03 593.348C1856.9 593.66 1857.64 594.056 1858.26 594.536C1858.91 595.016 1859.4 595.508 1859.74 596.012C1860.1 596.492 1860.28 596.9 1860.28 597.236L1858.98 597.704V588.056C1858.98 587.432 1859.19 586.916 1859.6 586.508C1860 586.076 1860.52 585.86 1861.14 585.86ZM1853.87 608.9C1854.93 608.9 1855.85 608.636 1856.64 608.108C1857.44 607.58 1858.05 606.86 1858.48 605.948C1858.94 605.036 1859.16 604.016 1859.16 602.888C1859.16 601.736 1858.94 600.704 1858.48 599.792C1858.05 598.88 1857.44 598.16 1856.64 597.632C1855.85 597.104 1854.93 596.84 1853.87 596.84C1852.84 596.84 1851.93 597.104 1851.14 597.632C1850.34 598.16 1849.72 598.88 1849.26 599.792C1848.83 600.704 1848.62 601.736 1848.62 602.888C1848.62 604.016 1848.83 605.036 1849.26 605.948C1849.72 606.86 1850.34 607.58 1851.14 608.108C1851.93 608.636 1852.84 608.9 1853.87 608.9Z" fill="black"/>
</g>
<defs>
<filter id="filter0_d_6908_27832" x="-16" y="215" width="1492" height="564" filterUnits="userSpaceOnUse" color-interpolation-filters="sRGB">
<feFlood flood-opacity="0" result="BackgroundImageFix"/>
<feColorMatrix in="SourceAlpha" type="matrix" values="0 0 0 0 0 0 0 0 0 0 0 0 0 0 0 0 0 0 127 0" result="hardAlpha"/>
<feOffset dx="4" dy="4"/>
<feGaussianBlur stdDeviation="10"/>
<feComposite in2="hardAlpha" operator="out"/>
<feColorMatrix type="matrix" values="0 0 0 0 0 0 0 0 0 0 0 0 0 0 0 0 0 0 0.25 0"/>
<feBlend mode="normal" in2="BackgroundImageFix" result="effect1_dropShadow_6908_27832"/>
<feBlend mode="normal" in="SourceGraphic" in2="effect1_dropShadow_6908_27832" result="shape"/>
</filter>
<filter id="filter1_d_6908_27832" x="1539" y="249.5" width="482" height="464" filterUnits="userSpaceOnUse" color-interpolation-filters="sRGB">
<feFlood flood-opacity="0" result="BackgroundImageFix"/>
<feColorMatrix in="SourceAlpha" type="matrix" values="0 0 0 0 0 0 0 0 0 0 0 0 0 0 0 0 0 0 127 0" result="hardAlpha"/>
<feOffset dx="4" dy="4"/>
<feGaussianBlur stdDeviation="10"/>
<feComposite in2="hardAlpha" operator="out"/>
<feColorMatrix type="matrix" values="0 0 0 0 0 0 0 0 0 0 0 0 0 0 0 0 0 0 0.25 0"/>
<feBlend mode="normal" in2="BackgroundImageFix" result="effect1_dropShadow_6908_27832"/>
<feBlend mode="normal" in="SourceGraphic" in2="effect1_dropShadow_6908_27832" result="shape"/>
</filter>
<filter id="filter2_dddd_6908_27832" x="1645.5" y="324.5" width="287" height="309" filterUnits="userSpaceOnUse" color-interpolation-filters="sRGB">
<feFlood flood-opacity="0" result="BackgroundImageFix"/>
<feColorMatrix in="SourceAlpha" type="matrix" values="0 0 0 0 0 0 0 0 0 0 0 0 0 0 0 0 0 0 127 0" result="hardAlpha"/>
<feOffset dx="1" dy="4"/>
<feGaussianBlur stdDeviation="4.5"/>
<feColorMatrix type="matrix" values="0 0 0 0 0 0 0 0 0 0 0 0 0 0 0 0 0 0 0.1 0"/>
<feBlend mode="normal" in2="BackgroundImageFix" result="effect1_dropShadow_6908_27832"/>
<feColorMatrix in="SourceAlpha" type="matrix" values="0 0 0 0 0 0 0 0 0 0 0 0 0 0 0 0 0 0 127 0" result="hardAlpha"/>
<feOffset dx="3" dy="15"/>
<feGaussianBlur stdDeviation="8"/>
<feColorMatrix type="matrix" values="0 0 0 0 0 0 0 0 0 0 0 0 0 0 0 0 0 0 0.09 0"/>
<feBlend mode="normal" in2="effect1_dropShadow_6908_27832" result="effect2_dropShadow_6908_27832"/>
<feColorMatrix in="SourceAlpha" type="matrix" values="0 0 0 0 0 0 0 0 0 0 0 0 0 0 0 0 0 0 127 0" result="hardAlpha"/>
<feOffset dx="8" dy="34"/>
<feGaussianBlur stdDeviation="10.5"/>
<feColorMatrix type="matrix" values="0 0 0 0 0 0 0 0 0 0 0 0 0 0 0 0 0 0 0.05 0"/>
<feBlend mode="normal" in2="effect2_dropShadow_6908_27832" result="effect3_dropShadow_6908_27832"/>
<feColorMatrix in="SourceAlpha" type="matrix" values="0 0 0 0 0 0 0 0 0 0 0 0 0 0 0 0 0 0 127 0" result="hardAlpha"/>
<feOffset dx="14" dy="61"/>
<feGaussianBlur stdDeviation="12.5"/>
<feColorMatrix type="matrix" values="0 0 0 0 0 0 0 0 0 0 0 0 0 0 0 0 0 0 0.01 0"/>
<feBlend mode="normal" in2="effect3_dropShadow_6908_27832" result="effect4_dropShadow_6908_27832"/>
<feBlend mode="normal" in="SourceGraphic" in2="effect4_dropShadow_6908_27832" result="shape"/>
</filter>
<clipPath id="clip0_6908_27832">
<rect y="231" width="1452" height="524" rx="60" fill="white"/>
</clipPath>
</defs>
</svg>
