<svg width="568" height="140" viewBox="0 0 568 140" fill="none" xmlns="http://www.w3.org/2000/svg">
<path d="M11.5923 105.206L4.25267 105.487C3.64823 105.487 3.25966 105.365 3.08697 105.12C2.91427 104.89 2.82792 104.436 2.82792 103.76C2.82792 103.084 2.94305 102.673 3.17331 102.53C3.41797 102.371 3.92167 102.292 4.68442 102.292H8.31106C8.46937 102.292 8.59889 101.033 8.69963 98.5143C8.81476 95.9958 8.92989 93.4917 9.04502 91.002C9.17455 88.5122 9.44799 81.6691 9.86534 70.4726C10.2971 59.2616 10.513 52.8862 10.513 51.3463C10.513 49.792 10.4338 48.9645 10.2755 48.8638C10.1172 48.7631 9.64227 48.7127 8.85074 48.7127H4.42537C4.00802 48.7127 3.75617 48.6263 3.66982 48.4536C3.58347 48.2666 3.5403 47.842 3.5403 47.18C3.5403 46.518 3.58347 46.0791 3.66982 45.8632C3.75617 45.6329 4.00802 45.5178 4.42537 45.5178L14.2259 45.7984L19.817 45.5178C20.2775 45.5178 20.6157 45.6041 20.8316 45.7768C21.0475 45.9351 21.2634 46.2949 21.4792 46.8562L40.0442 93.1823C40.2889 93.7723 40.4759 94.1321 40.6055 94.2616C40.735 94.3767 40.8429 94.3696 40.9293 94.24C41.0732 94.0529 41.2531 93.6716 41.469 93.0959L58.8035 48.0003C59.1776 47.0217 59.4799 46.4101 59.7101 46.1654C59.9548 45.9207 60.4153 45.7984 61.0917 45.7984H65.3444L74.3678 45.5178C74.9579 45.5178 75.3248 45.6329 75.4687 45.8632C75.6127 46.0934 75.6846 46.5612 75.6846 47.2663C75.6846 47.9571 75.5839 48.3745 75.3824 48.5184C75.1953 48.6479 74.7348 48.7127 74.0008 48.7127H69.8561C69.5539 49.2164 69.4028 51.483 69.4028 55.5126V63.4783C69.4028 71.7102 69.5395 80.2372 69.8129 89.0591C70.1007 97.8811 70.4102 102.292 70.7412 102.292H75.3392C75.8717 102.292 76.2387 102.393 76.4402 102.594C76.6417 102.781 76.7424 103.192 76.7424 103.825C76.7424 104.444 76.6632 104.875 76.5049 105.12C76.3466 105.365 76.0156 105.487 75.5119 105.487L66.0567 105.206L56.58 105.487C55.9755 105.487 55.587 105.372 55.4143 105.142C55.256 104.911 55.1768 104.458 55.1768 103.782C55.1768 103.091 55.2919 102.673 55.5222 102.53C55.7669 102.371 56.2706 102.292 57.0333 102.292H61.0053C61.4227 102.292 61.6314 97.4637 61.6314 87.8071C61.6314 78.136 61.4803 66.7236 61.178 53.5698C61.1349 52.3753 61.0485 51.7709 60.919 51.7565C60.8183 51.7565 60.6528 52.0371 60.4225 52.5984C60.2066 53.1453 60.0771 53.4691 60.0339 53.5698L43.6708 95.4057C43.0088 97.0176 42.1597 98.5719 41.1236 100.069C40.0874 101.565 39.3534 102.753 38.9217 103.63C38.2021 105.098 37.6049 105.832 37.1299 105.832C36.7414 105.832 36.3456 105.386 35.9426 104.494C35.8707 104.336 35.8059 104.199 35.7484 104.084C35.5613 103.695 35.4317 103.393 35.3598 103.177L14.7656 52.3393C14.3051 51.1592 14.0101 50.5692 13.8806 50.5692C13.751 50.5548 13.6359 51.1736 13.5352 52.4257C13.0602 65.2772 12.8228 76.8048 12.8228 87.0083C12.8228 97.1975 12.9667 102.292 13.2545 102.292H19.3637C19.8674 102.292 20.1984 102.393 20.3567 102.594C20.515 102.796 20.5942 103.206 20.5942 103.825C20.5942 104.444 20.515 104.875 20.3567 105.12C20.1984 105.365 19.8674 105.487 19.3637 105.487L11.5923 105.206ZM84.6649 131.305C83.4272 131.305 82.8084 130.622 82.8084 129.254C82.8084 128.29 83.3984 126.995 84.5785 125.369C85.0966 124.635 85.7227 124.145 86.4566 123.901C87.1906 123.656 87.8598 123.433 88.4642 123.232C89.0831 123.03 89.6011 122.85 90.0185 122.692C90.4502 122.548 90.9539 122.347 91.5296 122.087C92.1196 121.843 92.6162 121.598 93.0191 121.354C93.9833 120.763 94.6166 120.101 94.9188 119.367C97.5092 113.006 98.8045 109.545 98.8045 108.984C98.8045 108.437 97.9698 106.12 96.3004 102.033C94.6453 97.9458 92.5226 92.8369 89.9321 86.7061C87.3417 80.561 85.8162 76.9271 85.3557 75.8046C84.8951 74.6821 84.6217 74.0704 84.5354 73.9697C84.449 73.8689 84.2547 73.8186 83.9525 73.8186H82.1824C81.4916 73.8186 81.1174 73.5523 81.0598 73.0198C81.0454 72.8903 81.0382 72.6888 81.0382 72.4154C81.0382 71.408 81.4196 70.9043 82.1824 70.9043L89.0039 71.077L96.7753 70.9043C97.3509 70.9043 97.7323 71.0266 97.9194 71.2713C98.1065 71.5015 98.2 71.8829 98.2 72.4154C98.2 73.3508 97.7539 73.8186 96.8616 73.8186H95.1778C93.825 73.8186 93.1486 74.0272 93.1486 74.4446C93.1486 75.1066 94.0769 77.9849 95.9334 83.0795C97.7899 88.1596 99.1283 91.7143 99.9486 93.7435C100.783 95.7583 101.273 96.9384 101.417 97.2838C101.56 97.6148 101.676 97.8811 101.762 98.0825C101.848 98.2696 101.935 98.4567 102.021 98.6438C102.208 99.018 102.352 99.2051 102.453 99.2051C102.568 99.2051 102.978 98.2624 103.683 96.3772C108.447 82.3887 110.829 75.049 110.829 74.3582C110.829 73.9985 110.303 73.8186 109.253 73.8186H106.144C105.453 73.8186 105.079 73.5523 105.022 73.0198C105.007 72.8903 105 72.696 105 72.437C105 72.1635 105.007 71.9549 105.022 71.811C105.05 71.6527 105.101 71.4943 105.173 71.336C105.317 71.0482 105.669 70.9043 106.23 70.9043L112.167 71.077L117.283 70.9043C117.744 70.9043 118.053 71.0194 118.211 71.2497C118.37 71.4656 118.449 71.7822 118.449 72.1995C118.449 72.6169 118.442 72.8903 118.427 73.0198C118.413 73.1494 118.377 73.2861 118.319 73.43C118.219 73.689 117.909 73.8186 117.391 73.8186H116.053C115.52 73.8186 115.168 74.056 114.995 74.5309C114.376 76.2291 112.397 81.3597 109.058 89.9226C105.72 98.4711 103.892 103.127 103.575 103.889C103.273 104.652 102.956 105.523 102.625 106.502C101.575 109.624 100.805 111.884 100.316 113.28C99.8263 114.69 99.4665 115.719 99.2362 116.367C99.0203 117.014 98.8836 117.403 98.8261 117.533C98.7829 117.662 98.6606 117.986 98.4591 118.504C98.272 119.022 98.1353 119.353 98.0489 119.497C97.977 119.655 97.8403 119.95 97.6388 120.382C97.4517 120.814 97.2862 121.138 97.1423 121.354C96.9984 121.569 96.8041 121.879 96.5594 122.282C96.3291 122.685 96.0917 123.052 95.847 123.383C95.3721 124.016 94.9188 124.599 94.487 125.131C94.0553 125.678 93.7387 126.074 93.5372 126.319C93.3501 126.578 93.235 126.736 93.1918 126.793C93.1486 126.851 93.0479 126.966 92.8896 127.139C92.7457 127.326 92.6377 127.441 92.5658 127.484C92.5082 127.542 92.4075 127.635 92.2636 127.765C92.1196 127.909 91.9901 128.01 91.875 128.067C91.7743 128.139 91.6303 128.233 91.4433 128.348C91.1554 128.535 90.0761 129.075 88.2052 129.967C86.3487 130.859 85.1686 131.305 84.6649 131.305ZM135.481 105.206L124.882 105.487C124.292 105.487 123.939 105.379 123.824 105.163C123.709 104.962 123.651 104.501 123.651 103.782C123.651 103.062 123.73 102.637 123.889 102.508C124.061 102.364 124.508 102.292 125.227 102.292H130.365C130.71 102.292 130.883 94.7797 130.883 79.755V70.7316C130.883 56.0523 130.739 48.7127 130.451 48.7127H126.566C125.932 48.7127 125.479 48.6191 125.206 48.4321C124.932 48.245 124.795 47.806 124.795 47.1152C124.795 46.4244 124.925 45.9855 125.184 45.7984C125.443 45.6113 125.904 45.5178 126.566 45.5178L134.79 45.7984L144.332 45.5178C144.922 45.5178 145.289 45.6329 145.433 45.8632C145.577 46.0934 145.649 46.5612 145.649 47.2663C145.649 47.9571 145.555 48.3745 145.368 48.5184C145.181 48.6479 144.72 48.7127 143.986 48.7127H139.108C138.82 48.7127 138.676 52.5768 138.676 60.305L138.762 71.9621C138.762 72.6241 138.805 73.0126 138.892 73.1278C138.978 73.2429 139.288 73.3005 139.82 73.3005H172.093C172.625 73.3005 172.935 73.2573 173.021 73.171C173.108 73.0702 173.151 72.7536 173.151 72.2211V61.4491C173.151 58.4701 173.079 55.6062 172.935 52.8574C172.791 50.0943 172.633 48.7127 172.46 48.7127H167.409C166.833 48.7127 166.437 48.6191 166.221 48.4321C166.005 48.2306 165.897 47.7844 165.897 47.0936C165.897 46.4029 165.977 45.9711 166.135 45.7984C166.308 45.6113 166.703 45.5178 167.322 45.5178L176.777 45.7984L185.369 45.5178C185.959 45.5178 186.326 45.6329 186.47 45.8632C186.614 46.0934 186.686 46.5612 186.686 47.2663C186.686 47.9571 186.585 48.3745 186.384 48.5184C186.197 48.6479 185.736 48.7127 185.002 48.7127H181.116C180.944 48.7127 180.857 57.6426 180.857 75.5024C180.857 93.3622 180.972 102.292 181.203 102.292H185.887C186.391 102.292 186.707 102.386 186.837 102.573C186.966 102.76 187.031 103.177 187.031 103.825C187.031 104.458 186.966 104.89 186.837 105.12C186.707 105.365 186.391 105.487 185.887 105.487L177.49 105.206L167.495 105.487C166.905 105.487 166.538 105.372 166.394 105.142C166.25 104.926 166.178 104.472 166.178 103.782C166.178 103.076 166.272 102.652 166.459 102.508C166.66 102.364 167.128 102.292 167.862 102.292H172.719C173.007 102.292 173.151 97.5213 173.151 87.9797V77.0135C173.151 76.5098 173.122 76.2075 173.064 76.1068C173.007 76.0061 172.863 75.9557 172.633 75.9557H139.561C139.158 75.9557 138.921 76.0061 138.849 76.1068C138.791 76.2075 138.762 76.5673 138.762 77.1862C138.762 93.9234 139.029 102.292 139.561 102.292H145.39C145.879 102.292 146.174 102.386 146.275 102.573C146.39 102.745 146.447 103.062 146.447 103.523C146.447 103.983 146.44 104.285 146.426 104.429C146.426 104.559 146.411 104.717 146.383 104.904C146.354 105.077 146.303 105.192 146.231 105.249C146.044 105.408 145.764 105.487 145.39 105.487L135.481 105.206ZM192.709 88.5842C192.709 86.0801 193.155 83.6695 194.047 81.3525C194.939 79.0211 196.17 76.9991 197.738 75.2865C201.164 71.5447 205.618 69.6738 211.101 69.6738C215.965 69.6738 219.901 71.4224 222.909 74.9195C225.874 78.3591 227.356 82.5614 227.356 87.5264C227.356 93.0959 225.802 97.6364 222.693 101.148C219.513 104.746 215.174 106.545 209.676 106.545C204.855 106.545 200.818 104.803 197.566 101.321C194.328 97.8379 192.709 93.5924 192.709 88.5842ZM199.509 90.0089C199.509 94.3696 200.746 97.953 203.222 100.759C204.949 102.731 207.1 103.717 209.676 103.717C216.872 103.717 220.47 98.1113 220.47 86.9004C220.47 81.7339 218.951 77.7043 215.915 74.8116C214.289 73.2717 212.324 72.5017 210.022 72.5017C203.013 72.5017 199.509 78.3375 199.509 90.0089ZM231.199 48.4536C230.911 48.4536 230.767 48.2594 230.767 47.8708C230.767 47.4678 230.817 47.0793 230.918 46.7051C231.019 46.3309 231.076 46.1078 231.091 46.0359C231.119 45.9495 231.155 45.8776 231.199 45.82C231.242 45.7624 231.271 45.7193 231.285 45.6905C231.299 45.6617 231.343 45.6401 231.414 45.6257C231.501 45.5969 231.558 45.5825 231.587 45.5825C231.731 45.5394 233.616 45.3883 237.243 45.1292C240.884 44.8702 242.863 44.7406 243.179 44.7406C243.683 44.7406 243.935 45.2659 243.935 46.3165L244.453 99.2914C244.453 101.407 244.604 102.465 244.906 102.465H248.706C249.195 102.465 249.49 102.565 249.591 102.767C249.706 102.954 249.764 103.271 249.764 103.717C249.764 104.163 249.756 104.458 249.742 104.602C249.728 104.731 249.692 104.875 249.634 105.034C249.519 105.264 249.209 105.379 248.706 105.379L241.366 105.206L232.882 105.379C232.393 105.379 232.076 105.264 231.933 105.034C231.803 104.818 231.738 104.451 231.738 103.933C231.738 103.4 231.803 103.026 231.933 102.81C232.062 102.58 232.35 102.465 232.796 102.465H237.308C237.596 102.465 237.74 100.018 237.74 95.1251C237.74 90.2176 237.653 82.2304 237.48 71.1633C237.308 60.0819 237.142 53.6561 236.984 51.886C236.826 50.1015 236.725 49.1372 236.682 48.9933C236.653 48.835 236.624 48.7055 236.595 48.6048C236.581 48.504 236.545 48.4249 236.487 48.3673C236.444 48.2953 236.408 48.245 236.38 48.2162C236.336 48.1298 236.257 48.0867 236.142 48.0867H235.797L231.199 48.4536ZM257.621 131.305C256.384 131.305 255.765 130.622 255.765 129.254C255.765 128.29 256.355 126.995 257.535 125.369C258.053 124.635 258.679 124.145 259.413 123.901C260.147 123.656 260.816 123.433 261.421 123.232C262.039 123.03 262.558 122.85 262.975 122.692C263.407 122.548 263.91 122.347 264.486 122.087C265.076 121.843 265.573 121.598 265.976 121.354C266.94 120.763 267.573 120.101 267.875 119.367C270.466 113.006 271.761 109.545 271.761 108.984C271.761 108.437 270.926 106.12 269.257 102.033C267.602 97.9458 265.479 92.8369 262.889 86.7061C260.298 80.561 258.773 76.9271 258.312 75.8046C257.852 74.6821 257.578 74.0704 257.492 73.9697C257.405 73.8689 257.211 73.8186 256.909 73.8186H255.139C254.448 73.8186 254.074 73.5523 254.016 73.0198C254.002 72.8903 253.995 72.6888 253.995 72.4154C253.995 71.408 254.376 70.9043 255.139 70.9043L261.96 71.077L269.732 70.9043C270.307 70.9043 270.689 71.0266 270.876 71.2713C271.063 71.5015 271.156 71.8829 271.156 72.4154C271.156 73.3508 270.71 73.8186 269.818 73.8186H268.134C266.781 73.8186 266.105 74.0272 266.105 74.4446C266.105 75.1066 267.033 77.9849 268.89 83.0795C270.746 88.1596 272.085 91.7143 272.905 93.7435C273.74 95.7583 274.229 96.9384 274.373 97.2838C274.517 97.6148 274.632 97.8811 274.718 98.0825C274.805 98.2696 274.891 98.4567 274.977 98.6438C275.164 99.018 275.308 99.2051 275.409 99.2051C275.524 99.2051 275.934 98.2624 276.64 96.3772C281.403 82.3887 283.785 75.049 283.785 74.3582C283.785 73.9985 283.26 73.8186 282.209 73.8186H279.101C278.41 73.8186 278.036 73.5523 277.978 73.0198C277.964 72.8903 277.956 72.696 277.956 72.437C277.956 72.1635 277.964 71.9549 277.978 71.811C278.007 71.6527 278.057 71.4943 278.129 71.336C278.273 71.0482 278.626 70.9043 279.187 70.9043L285.123 71.077L290.24 70.9043C290.7 70.9043 291.009 71.0194 291.168 71.2497C291.326 71.4656 291.405 71.7822 291.405 72.1995C291.405 72.6169 291.398 72.8903 291.384 73.0198C291.369 73.1494 291.333 73.2861 291.276 73.43C291.175 73.689 290.866 73.8186 290.347 73.8186H289.009C288.477 73.8186 288.124 74.056 287.951 74.5309C287.332 76.2291 285.354 81.3597 282.015 89.9226C278.676 98.4711 276.848 103.127 276.532 103.889C276.229 104.652 275.913 105.523 275.582 106.502C274.531 109.624 273.761 111.884 273.272 113.28C272.783 114.69 272.423 115.719 272.193 116.367C271.977 117.014 271.84 117.403 271.782 117.533C271.739 117.662 271.617 117.986 271.415 118.504C271.228 119.022 271.092 119.353 271.005 119.497C270.933 119.655 270.797 119.95 270.595 120.382C270.408 120.814 270.243 121.138 270.099 121.354C269.955 121.569 269.76 121.879 269.516 122.282C269.286 122.685 269.048 123.052 268.803 123.383C268.329 124.016 267.875 124.599 267.443 125.131C267.012 125.678 266.695 126.074 266.494 126.319C266.307 126.578 266.191 126.736 266.148 126.793C266.105 126.851 266.004 126.966 265.846 127.139C265.702 127.326 265.594 127.441 265.522 127.484C265.465 127.542 265.364 127.635 265.22 127.765C265.076 127.909 264.947 128.01 264.831 128.067C264.731 128.139 264.587 128.233 264.4 128.348C264.112 128.535 263.032 129.075 261.162 129.967C259.305 130.859 258.125 131.305 257.621 131.305ZM419.633 88.5842C419.633 86.0801 420.079 83.6695 420.971 81.3525C421.864 79.0211 423.094 76.9991 424.663 75.2865C428.088 71.5447 432.542 69.6738 438.025 69.6738C442.89 69.6738 446.826 71.4224 449.833 74.9195C452.798 78.3591 454.28 82.5614 454.28 87.5264C454.28 93.0959 452.726 97.6364 449.618 101.148C446.437 104.746 442.098 106.545 436.601 106.545C431.779 106.545 427.743 104.803 424.49 101.321C421.252 97.8379 419.633 93.5924 419.633 88.5842ZM426.433 90.0089C426.433 94.3696 427.671 97.953 430.146 100.759C431.873 102.731 434.024 103.717 436.601 103.717C443.796 103.717 447.394 98.1113 447.394 86.9004C447.394 81.7339 445.876 77.7043 442.839 74.8116C441.213 73.2717 439.249 72.5017 436.946 72.5017C429.937 72.5017 426.433 78.3375 426.433 90.0089ZM459.094 88.5842C459.094 86.0801 459.54 83.6695 460.433 81.3525C461.325 79.0211 462.556 76.9991 464.124 75.2865C467.549 71.5447 472.003 69.6738 477.487 69.6738C482.351 69.6738 486.287 71.4224 489.295 74.9195C492.259 78.3591 493.742 82.5614 493.742 87.5264C493.742 93.0959 492.187 97.6364 489.079 101.148C485.898 104.746 481.559 106.545 476.062 106.545C471.241 106.545 467.204 104.803 463.951 101.321C460.713 97.8379 459.094 93.5924 459.094 88.5842ZM465.894 90.0089C465.894 94.3696 467.132 97.953 469.607 100.759C471.334 102.731 473.486 103.717 476.062 103.717C483.258 103.717 486.855 98.1113 486.855 86.9004C486.855 81.7339 485.337 77.7043 482.301 74.8116C480.674 73.2717 478.71 72.5017 476.407 72.5017C469.399 72.5017 465.894 78.3375 465.894 90.0089ZM502.7 48.173L497.671 48.4536C497.225 48.4536 496.951 48.4105 496.85 48.3241C496.75 48.2234 496.699 47.9715 496.699 47.5686V46.5971C496.699 46.1798 496.764 45.8776 496.894 45.6905C497.023 45.5034 497.311 45.3883 497.757 45.3451C505.428 44.755 509.479 44.46 509.911 44.46C510.357 44.46 510.58 44.6759 510.58 45.1076V45.8848L509.608 85.3245C509.608 85.7275 509.666 85.9793 509.781 86.0801C509.911 86.1664 510.234 86.2096 510.752 86.2096H512.695C513.343 86.2096 513.825 86.0081 514.142 85.6052C514.473 85.2022 515.422 83.9573 516.991 81.8706C518.56 79.7838 519.833 77.9417 520.812 76.3443C521.791 74.7324 522.28 73.8402 522.28 73.6675C522.28 73.4804 521.971 73.3868 521.352 73.3868H519.236C518.545 73.3868 518.171 73.1134 518.114 72.5665C518.099 72.4514 518.092 72.2499 518.092 71.9621C518.092 70.9691 518.502 70.4726 519.323 70.4726L524.806 70.6453L530.289 70.4726C530.994 70.4726 531.347 70.8467 531.347 71.5951C531.347 72.3434 531.275 72.8328 531.131 73.063C531.001 73.2789 530.692 73.3868 530.203 73.3868H527.375C526.928 73.3868 524.28 76.3371 519.431 82.2376C518.294 83.6047 517.668 84.3531 517.552 84.4826C517.452 84.5978 517.373 84.7129 517.315 84.828C517.272 84.9288 517.243 84.9935 517.229 85.0223C517.214 85.0511 517.221 85.1087 517.25 85.195C517.293 85.2814 517.329 85.3461 517.358 85.3893C517.387 85.4181 517.452 85.4972 517.552 85.6267C517.668 85.7419 517.761 85.8426 517.833 85.929L531.174 101.407C531.591 101.911 531.894 102.213 532.081 102.314C532.268 102.414 532.556 102.465 532.944 102.465H534.002C534.578 102.465 534.923 102.558 535.038 102.745C535.168 102.918 535.232 103.227 535.232 103.674C535.232 104.12 535.225 104.415 535.211 104.559C535.196 104.688 535.153 104.832 535.081 104.99C534.966 105.249 534.606 105.379 534.002 105.379L527.893 105.206L521.632 105.379C521.114 105.379 520.791 105.271 520.661 105.055C520.531 104.839 520.467 104.465 520.467 103.933C520.467 103.4 520.539 103.026 520.683 102.81C520.826 102.58 521.143 102.465 521.632 102.465H522.777C523.295 102.465 523.489 102.342 523.359 102.098C523.316 102.011 523.208 101.839 523.036 101.58L513.321 89.5556C512.789 88.8936 512.429 88.4978 512.242 88.3683C512.055 88.2244 511.767 88.1524 511.379 88.1524H510.299C510.011 88.1524 509.824 88.2172 509.738 88.3467C509.652 88.4763 509.608 88.7929 509.608 89.2966V96.7226C509.608 100.551 509.666 102.465 509.781 102.465H512.609C513.141 102.465 513.465 102.58 513.58 102.81C513.696 103.04 513.753 103.487 513.753 104.149C513.753 104.969 513.372 105.379 512.609 105.379L506.327 105.206L498.901 105.379C498.34 105.379 498.016 105.278 497.93 105.077C497.815 104.789 497.757 104.451 497.757 104.062C497.757 103.674 497.764 103.415 497.779 103.285C497.793 103.156 497.829 103.019 497.887 102.875C497.987 102.601 498.297 102.465 498.815 102.465H502.7C503.06 102.465 503.269 102.414 503.326 102.314C503.384 102.198 503.413 101.81 503.413 101.148V84.0725C503.413 60.1395 503.175 48.173 502.7 48.173ZM540.413 103.35C539.276 102.458 538.708 101.565 538.708 100.673C538.708 99.7807 539.089 98.9172 539.852 98.0825C540.629 97.2334 541.162 96.8089 541.449 96.8089C541.752 96.8089 541.982 96.9312 542.14 97.1759C542.313 97.4205 542.522 97.7803 542.766 98.2552C543.011 98.7158 543.464 99.3562 544.126 100.177C544.788 100.997 545.745 101.796 546.997 102.573C548.249 103.335 549.71 103.717 551.38 103.717C553.063 103.717 554.438 103.256 555.503 102.335C556.568 101.4 557.1 100.033 557.1 98.2337C557.1 95.6 555.344 93.4197 551.833 91.6927C551.171 91.3761 549.933 90.8221 548.12 90.0305C546.321 89.239 544.86 88.4906 543.738 87.7855C540.557 85.7563 538.967 83.2234 538.967 80.1868C538.967 78.2295 539.607 76.4522 540.888 74.8547C542.183 73.2573 543.817 72.0412 545.788 71.2065C547.76 70.3574 549.602 69.9329 551.315 69.9329C553.042 69.9329 554.452 70.0768 555.546 70.3646C556.64 70.6381 557.539 71.005 558.244 71.4656C558.949 71.9117 559.554 72.4226 560.058 72.9983C560.979 74.0488 561.439 75.1498 561.439 76.3011C561.439 76.776 560.95 77.1934 559.971 77.5531C559.007 77.8985 558.273 78.0712 557.769 78.0712C557.266 78.0712 556.906 77.9705 556.69 77.769C556.474 77.5531 556.287 77.2797 556.129 76.9487C555.985 76.6033 555.834 76.2291 555.675 75.8262C555.517 75.4088 555.316 74.9987 555.071 74.5957C554.826 74.1784 554.531 73.8042 554.186 73.4732C553.438 72.7104 552.538 72.3291 551.487 72.3291C550.451 72.3291 549.653 72.3938 549.091 72.5233C548.53 72.6385 547.976 72.8471 547.429 73.1494C546.882 73.4372 546.407 73.8042 546.004 74.2503C545.098 75.2289 544.644 76.5601 544.644 78.2439C544.644 79.8702 545.27 81.1582 546.522 82.108C547.429 82.7988 548.249 83.3313 548.983 83.7055C549.732 84.0653 550.3 84.3459 550.689 84.5474C551.092 84.7489 551.344 84.8712 551.444 84.9144C553.545 85.8066 555.567 86.8428 557.51 88.0229C561.065 90.2104 562.842 92.7289 562.842 95.5784C562.842 97.7084 562.238 99.6008 561.029 101.256C558.597 104.595 554.956 106.264 550.106 106.264C546.119 106.264 542.889 105.293 540.413 103.35Z" fill="white"/>
<g clip-path="url(#clip0_6905_8126)">
<path d="M364.129 48.2776C362.621 48.2776 361.399 47.0556 361.399 45.5478L361.399 21.6552C361.399 20.1474 362.621 18.9254 364.129 18.9254C365.637 18.9254 366.859 20.1474 366.859 21.6552L366.859 45.5478C366.859 47.0556 365.637 48.2776 364.129 48.2776ZM355.402 39.8708L355.402 27.3328C355.402 25.825 354.18 24.603 352.672 24.603C351.164 24.603 349.942 25.825 349.942 27.3328L349.942 39.8708C349.942 41.3786 351.164 42.6006 352.672 42.6006C354.18 42.6006 355.402 41.3783 355.402 39.8708ZM319.638 128.071C318.614 129.178 316.888 129.245 315.781 128.222C310.858 123.669 311.315 116.209 311.892 106.765C312.596 95.2606 313.472 80.9431 305.256 65.7735C304.817 64.9625 304.817 63.9846 305.256 63.1736C308.626 56.9509 310.467 50.8705 311.417 45.0698L298.901 45.0698C297.934 45.0698 297.039 44.5581 296.549 43.7249C296.059 42.8918 296.045 41.8611 296.514 41.0155L300.628 33.6021L296.514 26.1878C296.286 25.7756 296.172 25.3194 296.172 24.8635C296.172 24.3843 296.297 23.9054 296.549 23.4786C297.04 22.6455 297.934 22.1338 298.901 22.1338L311.889 22.1338C311.313 12.7128 310.867 5.27055 315.781 0.725808C316.887 -0.297851 318.614 -0.230517 319.638 0.876248C320.661 1.98332 320.594 3.71004 319.488 4.7337C316.465 7.52927 316.852 13.8487 317.342 21.8487C318.03 33.1013 318.965 48.4034 310.741 64.4735C318.965 80.5436 318.03 95.8463 317.342 107.099C316.852 115.099 316.466 121.418 319.488 124.214C320.595 125.238 320.661 126.965 319.638 128.071ZM312.074 39.6103C312.409 35.4049 312.359 31.3798 312.192 27.5933L303.538 27.5933L306.137 32.2776C306.593 33.1013 306.593 34.1026 306.137 34.9263L303.538 39.61L312.074 39.61L312.074 39.6103ZM375.587 80.6689C374.079 80.6689 372.857 81.8909 372.857 83.3986L372.857 107.291C372.857 108.799 374.079 110.021 375.587 110.021C377.095 110.021 378.317 108.799 378.317 107.291L378.317 83.3986C378.317 81.8912 377.094 80.6689 375.587 80.6689ZM412.15 128.947L329.178 128.947C328.491 128.947 327.829 128.688 327.325 128.222C322.403 123.669 322.859 116.209 323.437 106.765C324.14 95.2634 325.015 80.947 316.805 65.7811C316.788 65.7514 316.773 65.7213 316.758 65.6913C316.563 65.3016 316.471 64.886 316.471 64.476C316.471 64.2858 316.519 63.7028 316.821 63.1353C324.906 47.9224 324.139 33.6767 323.437 22.1823C322.859 12.738 322.404 5.27874 327.325 0.726112C327.829 0.25902 328.491 -3.77617e-06 329.179 -3.74612e-06L412.15 -1.19308e-07C413.113 -7.72538e-08 414.003 0.506218 414.496 1.33303C414.988 2.15954 415.008 3.18411 414.551 4.03003C406.335 19.1993 407.211 33.5175 407.914 45.0213C408.413 53.1884 408.822 59.8715 405.74 64.4738C408.823 69.0762 408.413 75.759 407.914 83.9261C407.209 95.4317 406.335 109.749 414.55 124.918C415.008 125.764 414.987 126.788 414.495 127.615C414.003 128.441 413.112 128.947 412.15 128.947ZM400.971 61.7435C403.279 58.6673 402.916 52.7244 402.465 45.3543C401.816 34.7413 400.947 20.5244 407.751 5.45951L330.379 5.45951C328.072 8.53595 328.435 14.4792 328.886 21.8487C329.091 25.2023 329.318 28.9169 329.318 32.9033C329.318 41.532 328.254 51.4389 323.6 61.7435L400.971 61.7435ZM407.751 123.488C400.946 108.423 401.816 94.2061 402.464 83.5928C402.915 76.2224 403.279 70.2794 400.971 67.2033L323.6 67.2033C330.404 82.2685 329.535 96.4857 328.886 107.099C328.435 114.468 328.071 120.412 330.379 123.488L407.751 123.488L407.751 123.488ZM366.859 107.292L366.859 83.3989C366.859 81.8912 365.637 80.6692 364.129 80.6692C362.621 80.6692 361.399 81.8912 361.399 83.3989L361.399 107.292C361.399 108.799 362.621 110.021 364.129 110.021C365.637 110.021 366.859 108.799 366.859 107.292ZM378.317 45.5478L378.317 21.6552C378.317 20.1474 377.095 18.9254 375.587 18.9254C374.079 18.9254 372.857 20.1474 372.857 21.6552L372.857 45.5478C372.857 47.0556 374.079 48.2776 375.587 48.2776C377.095 48.2776 378.317 47.0556 378.317 45.5478ZM355.402 101.614L355.402 89.0765C355.402 87.5688 354.18 86.3468 352.672 86.3468C351.164 86.3468 349.942 87.5688 349.942 89.0765L349.942 101.614C349.942 103.122 351.164 104.344 352.672 104.344C354.18 104.344 355.402 103.122 355.402 101.614Z" fill="white"/>
</g>
<defs>
<clipPath id="clip0_6905_8126">
<rect width="128.947" height="128.947" fill="white" transform="translate(420) rotate(90)"/>
</clipPath>
</defs>
</svg>
