<svg width="474" height="47" viewBox="0 0 474 47" fill="none" xmlns="http://www.w3.org/2000/svg">
<path d="M0.452697 39.3464L1.22635 38.7513L1.28586 37.5015C2.27772 35.0814 3.28942 32.7604 4.32095 30.5387C5.39216 28.3169 6.50305 26.0356 7.65361 23.6948C8.01068 22.941 8.36775 22.1872 8.72482 21.4334C9.12156 20.6796 9.49847 19.9059 9.85554 19.1124C9.81586 18.9537 9.79603 18.795 9.79603 18.6363C9.79603 18.438 9.8357 18.2198 9.91505 17.9817C10.4705 17.1882 10.9069 16.4741 11.2243 15.8393C11.5814 15.2045 11.9186 14.5499 12.236 13.8754C12.5931 13.0819 12.97 12.2884 13.3667 11.4949C13.8031 10.7015 14.3387 9.9278 14.9735 9.17398L15.3901 8.57887L16.0448 8.63838C16.2034 8.55903 16.3621 8.49952 16.5208 8.45984C16.7192 8.3805 16.9573 8.34082 17.235 8.34082L18.3062 8.51936C19.6154 7.92424 20.766 7.07124 21.7579 5.96035C22.7894 4.8098 23.8209 3.44103 24.8525 1.85405L25.5666 0.842353L26.5188 1.43747C26.7172 1.55649 27.0346 1.67552 27.471 1.79454C27.9074 1.91356 28.3637 2.05242 28.8398 2.21112C29.6729 2.40949 30.4862 2.64754 31.2797 2.92526C32.0732 3.16331 32.6882 3.50054 33.1246 3.93696L33.4222 4.47256C33.5015 4.90898 33.561 5.30573 33.6007 5.6628C33.68 6.01987 33.7594 6.37694 33.8387 6.73401C33.9974 7.56717 34.1363 8.40033 34.2553 9.2335C34.3743 10.027 34.4537 10.9197 34.4934 11.9115C34.6917 12.705 34.8703 13.5183 35.029 14.3515C35.2273 15.145 35.4059 15.9385 35.5646 16.732C35.7629 17.8825 35.9812 18.9934 36.2192 20.0646C36.4572 21.0962 36.7746 22.088 37.1714 23.0402C37.5681 23.0402 37.8062 23.06 37.8855 23.0997C38.3616 22.9013 38.9171 22.7823 39.5519 22.7426L40.3255 22.6831L40.5636 23.3973C40.6429 23.5163 40.7421 23.6353 40.8611 23.7543C40.9801 23.8734 41.119 23.9924 41.2777 24.1114C41.9125 24.1511 42.3687 24.2899 42.6465 24.528C42.9639 24.7264 43.2217 24.9247 43.4201 25.1231C43.4995 25.2025 43.5986 25.3016 43.7177 25.4207C43.8367 25.5 43.9359 25.5595 44.0152 25.5992L45.0864 26.0158L44.4913 27.1465C44.0549 27.9797 43.3804 28.793 42.4679 29.5865C41.5951 30.38 40.6032 31.0346 39.4923 31.5504C39.5717 31.8281 39.6114 32.086 39.6114 32.324C39.651 32.5621 39.7106 32.8398 39.7899 33.1572C39.9486 33.9507 40.0676 34.7838 40.147 35.6567C40.266 36.4898 40.266 37.3627 40.147 38.2752C39.7502 39.3067 39.2741 40.2391 38.7187 41.0722C38.2029 41.8657 37.5681 42.5997 36.8143 43.2742C36.1002 43.909 35.2869 44.4446 34.3743 44.881C33.4618 45.2777 32.5096 45.4959 31.5178 45.5356C30.9623 45.4166 30.5458 45.2777 30.268 45.119C30.03 44.9603 29.8118 44.8016 29.6134 44.6429C29.296 44.4049 29.0381 44.2462 28.8398 44.1668L28.0661 43.8098L28.3042 42.9171C28.4232 42.5997 28.4033 42.322 28.2446 42.0839C28.1256 41.8459 27.8479 41.5285 27.4115 41.1317C27.2528 41.0127 27.1139 40.8937 26.9949 40.7747C26.8759 40.616 26.737 40.4573 26.5783 40.2986L25.3881 38.9298L27.352 38.3942C28.5422 38.0768 29.3357 37.6801 29.7324 37.204C30.1292 36.6882 30.2879 35.7955 30.2085 34.5259C29.2167 34.3276 28.4033 34.3077 27.7685 34.4664C27.1338 34.5855 26.499 34.7243 25.8642 34.883C24.9517 35.1211 24.059 35.3393 23.1861 35.5376C22.3133 35.6963 21.3611 35.7757 20.3296 35.7757C19.6551 35.7757 18.941 35.7162 18.1872 35.5972L17.5325 35.5376L17.354 34.883C17.354 34.8037 17.2945 34.7243 17.1755 34.645C17.0961 34.5259 17.0168 34.4268 16.9374 34.3474C16.7391 34.1094 16.501 33.792 16.2233 33.3952C15.9456 32.9985 15.8861 32.5026 16.0448 31.9074C15.767 31.471 15.6083 31.0148 15.5687 30.5387C15.41 30.8561 15.2711 31.1735 15.1521 31.4909C15.0727 31.7686 14.9934 32.0463 14.914 32.324L14.676 33.0977L13.9023 33.2167C13.823 33.296 13.7436 33.4151 13.6643 33.5738C13.6246 33.7325 13.6246 33.8515 13.6643 33.9308L13.9023 34.5855L13.3072 35.1211C13.2279 35.2401 13.1287 35.3393 13.0097 35.4186C12.8906 35.498 12.7914 35.5773 12.7121 35.6567C12.6327 36.0931 12.5137 36.5097 12.355 36.9064C12.236 37.3032 12.0971 37.6999 11.9384 38.0966C11.7401 38.7314 11.5417 39.3464 11.3433 39.9415C11.1846 40.5366 11.1053 41.1317 11.1053 41.7269L10.8672 42.5005C10.6689 42.8179 10.411 43.056 10.0936 43.2147C9.81586 43.3733 9.53814 43.5122 9.26042 43.6312C8.86368 43.7899 8.58596 43.9486 8.42726 44.1073L8.24872 44.881L7.35605 45C6.84028 45.119 6.46337 45.1984 6.22533 45.238C6.02696 45.2777 5.78891 45.2976 5.51119 45.2976L4.73754 45.238C4.26144 44.762 3.8647 44.4049 3.5473 44.1668C3.26958 43.8891 2.93235 43.6511 2.5356 43.4527L2.17853 42.9766C2.01984 42.6592 1.92065 42.3815 1.88098 42.1434C1.8413 41.8657 1.78179 41.588 1.70244 41.3103C1.62309 40.7945 1.50407 40.4374 1.34537 40.2391L0.452697 39.3464ZM19.4369 23.8734C18.8815 24.6669 18.3459 25.5 17.8301 26.3729C18.1078 26.3332 18.3657 26.3133 18.6038 26.3133C18.8815 26.3133 19.1592 26.2935 19.4369 26.2538C20.8255 26.1745 22.1149 26.0753 23.3052 25.9563C24.4954 25.8372 25.7848 25.6389 27.1734 25.3612C26.856 23.8932 26.499 22.4054 26.1022 20.8978C25.7451 19.3505 25.3484 17.8032 24.912 16.2559L24.6144 16.851C23.6226 17.9222 22.6704 19.0728 21.7579 20.3027C20.8454 21.5326 20.0915 22.703 19.4964 23.8139L19.4369 23.8734ZM78.2939 45.7737C76.9053 45.1389 75.7945 44.2065 74.9613 42.9766C74.1678 41.7467 73.3743 40.3779 72.5808 38.8703C72.4618 38.6323 72.3428 38.3942 72.2238 38.1562C72.1047 37.9181 71.9857 37.6999 71.8667 37.5015L71.0335 35.9542L70.5574 35.002L69.8433 35.6567L68.7721 36.6089L68.177 37.204C67.1454 38.1562 66.0941 39.1083 65.0228 40.0605C63.9913 40.973 62.8804 41.8062 61.6902 42.56C60.5396 43.2742 59.3097 43.8693 58.0005 44.3454C56.7309 44.7818 55.3423 45.0198 53.8347 45.0595L52.5254 44.4049C51.7716 44.0081 51.1368 43.6511 50.621 43.3337C50.1053 43.0163 49.5101 42.5203 48.8357 41.8459C48.6373 41.4888 48.4588 41.1516 48.3001 40.8342C48.181 40.5168 48.0422 40.1994 47.8835 39.882C47.4471 39.0885 47.09 38.3744 46.8123 37.7396C46.5346 37.1048 46.2568 36.3906 45.9791 35.5972C46.0981 35.0417 46.2767 34.1094 46.5147 32.8001C46.7528 31.4512 47.0305 29.9832 47.3479 28.3962C47.705 26.8093 48.062 25.2223 48.4191 23.6353C48.8158 22.0087 49.2126 20.6002 49.6093 19.41C49.9664 18.3785 50.3631 17.2874 50.7996 16.1368C51.2756 14.9863 51.7716 13.9349 52.2873 12.9827C52.8428 11.9909 53.4379 11.1577 54.0727 10.4832C54.7075 9.7691 55.382 9.35252 56.0961 9.2335C56.2945 9.51122 56.5127 9.70959 56.7507 9.82861C56.9888 9.94764 57.207 10.0468 57.4054 10.1262C57.9608 10.9197 58.4964 11.5941 59.0122 12.1496C59.5676 12.705 60.2024 13.2605 60.9165 13.8159C60.7182 14.8078 60.4206 15.9186 60.0239 17.1485C59.6668 18.3388 59.27 19.5488 58.8336 20.7788C58.4369 21.969 58.0401 23.1394 57.6434 24.2899C57.2467 25.4405 56.9293 26.4324 56.6912 27.2655C56.4532 27.94 56.2548 28.6938 56.0961 29.527C55.739 30.9949 55.4018 32.9985 55.0844 35.5376C55.5605 35.4186 56.0763 35.1607 56.6317 34.764C57.1871 34.3673 57.7227 33.9507 58.2385 33.5143C58.8336 33.0382 59.4287 32.5026 60.0239 31.9074C60.7777 31.1536 61.4125 30.4593 61.9282 29.8245C62.444 29.1897 62.9201 28.5351 63.3565 27.8606C63.8326 27.1862 64.3087 26.4522 64.7848 25.6587C65.2609 24.8255 65.8362 23.8535 66.5106 22.7426C67.1057 21.7905 67.7207 20.7788 68.3555 19.7075C69.03 18.5967 69.6846 17.5453 70.3194 16.5534C70.9938 15.5219 71.6485 14.5895 72.2833 13.7564C72.9181 12.9232 73.4933 12.2686 74.0091 11.7925C74.3265 12.1892 74.7232 12.5661 75.1993 12.9232C75.7151 13.2803 76.2507 13.558 76.8061 13.7564C77.0442 14.1135 77.2624 14.4507 77.4608 14.7681C77.6988 15.0458 77.917 15.3037 78.1154 15.5417C78.3535 15.8988 78.5717 16.236 78.77 16.5534C79.0081 16.8708 79.2263 17.1882 79.4247 17.5056C79.385 17.7833 79.3255 18.1404 79.2461 18.5768C79.1668 19.0132 79.0676 19.4893 78.9486 20.0051C78.8692 20.5209 78.77 21.0565 78.651 21.6119C78.532 22.1277 78.413 22.6236 78.2939 23.0997C77.9765 24.6073 77.7385 25.7381 77.5798 26.4919C77.4211 27.2457 77.3021 27.8408 77.2227 28.2772C77.1831 28.7136 77.1434 29.0906 77.1037 29.4079C77.1037 29.6857 77.1037 30.0824 77.1037 30.5982C77.064 30.9949 77.0839 31.3917 77.1632 31.7884C77.2029 32.1455 77.2822 32.5224 77.4013 32.9191C77.5203 33.3159 77.679 33.6729 77.8774 33.9903L80.2578 32.1455C80.9323 31.6297 81.5671 30.9354 82.1622 30.0626C82.797 29.1501 83.3921 28.1185 83.9475 26.968C84.5427 25.7777 85.1179 24.4883 85.6734 23.0997C86.2288 21.7111 86.7843 20.3027 87.3397 18.8744C88.1729 16.7716 89.006 14.7284 89.8392 12.7447C90.712 10.761 91.5452 9.2335 92.3387 8.16229C93.2115 8.71773 93.9653 9.29301 94.6001 9.88812C95.2746 10.4436 95.8499 11.0585 96.326 11.733C96.8021 12.4075 97.179 13.1811 97.4567 14.0539C97.7741 14.9268 97.9923 15.9583 98.1113 17.1485C97.3972 18.5372 96.7029 19.9654 96.0284 21.4334C95.3936 22.9013 94.7787 24.3693 94.1836 25.8372C93.3901 27.7416 92.5569 29.646 91.6841 31.5504C90.8509 33.4547 89.9186 35.2798 88.887 37.0254C87.8555 38.7314 86.7049 40.3184 85.4353 41.7864C84.1658 43.2147 82.6978 44.4247 81.0315 45.4166C80.5951 45.2976 80.2182 45.238 79.9008 45.238C79.266 45.238 78.7304 45.4166 78.2939 45.7737ZM128.284 11.4949C128.323 11.7727 128.323 11.9909 128.284 12.1496C128.284 12.2686 128.264 12.3876 128.224 12.5066C128.224 12.6257 128.224 12.7645 128.224 12.9232C128.224 13.0422 128.264 13.2406 128.343 13.5183C127.51 14.8673 126.538 15.7996 125.427 16.3154C124.356 16.7915 123.186 17.1485 121.916 17.3866C120.646 17.585 119.337 17.8032 117.988 18.0412C116.679 18.2793 115.37 18.795 114.06 19.5885C113.545 19.3902 113.069 19.3902 112.632 19.5885C112.235 19.7869 111.64 19.8464 110.847 19.7671C110.609 20.0051 110.311 20.1836 109.954 20.3027C109.597 20.382 109.24 20.4812 108.883 20.6002C109.042 20.9573 109.101 21.3342 109.061 21.7309C109.061 22.088 109.121 22.3856 109.24 22.6236C110.629 22.7426 112.156 22.7228 113.822 22.5641C115.528 22.4054 117.195 22.3062 118.821 22.2665C118.861 22.4649 118.841 22.6038 118.762 22.6831C118.683 22.7228 118.663 22.822 118.702 22.9807C118.98 23.1791 119.258 23.4369 119.536 23.7543C119.813 24.0321 120.091 24.3098 120.369 24.5875C120.646 24.8652 120.924 25.1033 121.202 25.3016C121.519 25.4603 121.876 25.5199 122.273 25.4802C122.432 25.7976 122.531 26.1546 122.571 26.5514C122.65 26.9085 122.61 27.2854 122.452 27.6821C121.817 28.1185 121.182 28.5748 120.547 29.0509C119.912 29.4873 119.238 29.884 118.524 30.2411C117.849 30.5982 117.115 30.8957 116.322 31.1338C115.568 31.3322 114.715 31.4115 113.763 31.3718C113.565 31.3718 113.406 31.3718 113.287 31.3718C113.207 31.3718 113.088 31.3123 112.93 31.1933C112.612 31.3917 112.156 31.4512 111.561 31.3718C111.006 31.2925 110.569 31.352 110.252 31.5504C109.815 31.352 109.28 31.2726 108.645 31.3123C108.05 31.3123 107.514 31.233 107.038 31.0743C106.403 31.9074 105.828 32.8001 105.312 33.7523C104.796 34.7045 104.34 35.7162 103.943 36.7874C105.292 36.9858 106.403 37.0651 107.276 37.0254C108.189 36.9858 109.042 36.9263 109.835 36.8469C110.629 36.7279 111.442 36.6287 112.275 36.5493C113.108 36.4303 114.16 36.3906 115.429 36.4303C116.223 35.9939 117.155 35.7162 118.226 35.5972C119.337 35.4385 120.349 35.2004 121.261 34.883C121.579 35.002 121.856 35.2203 122.095 35.5376C122.333 35.8154 122.551 36.0931 122.749 36.3708C122.987 36.6089 123.225 36.8271 123.463 37.0254C123.701 37.2238 123.999 37.3032 124.356 37.2635C124.515 37.4222 124.614 37.6206 124.654 37.8586C124.733 38.057 124.792 38.2553 124.832 38.4537C124.872 38.6521 124.931 38.8306 125.011 38.9893C125.13 39.1083 125.308 39.148 125.546 39.1083C124.951 40.4176 124.257 41.4293 123.463 42.1434C122.709 42.8179 121.837 43.3337 120.845 43.6907C119.853 44.0478 118.742 44.3255 117.512 44.5239C116.322 44.7223 114.993 44.9603 113.525 45.238C113.168 45.3174 112.87 45.2976 112.632 45.1785C112.394 45.0992 112.116 45.0595 111.799 45.0595C110.886 45.2579 109.795 45.4364 108.526 45.5951C107.256 45.7538 105.967 45.8133 104.658 45.7737C103.348 45.734 102.099 45.5554 100.908 45.238C99.7181 44.9603 98.7461 44.4446 97.9923 43.6907C97.6749 43.413 97.4567 43.0956 97.3377 42.7386C97.2583 42.3418 97.0004 42.0443 96.564 41.8459C96.5243 41.3301 96.445 40.7548 96.326 40.12C96.2069 39.4853 96.0879 38.8306 95.9689 38.1562C95.8499 37.442 95.7507 36.7477 95.6713 36.0733C95.6317 35.3988 95.6713 34.7838 95.7904 34.2284C95.9094 33.6333 96.1474 33.0977 96.5045 32.6216C96.9012 32.1455 97.0401 31.6297 96.9211 31.0743C97.1195 31.0346 97.2385 30.9354 97.2782 30.7767C97.3178 30.5783 97.4765 30.499 97.7542 30.5387C97.9923 29.8245 98.2502 29.1501 98.5279 28.5153C98.8056 27.8805 99.0833 27.2655 99.3611 26.6704C99.6785 26.0753 99.976 25.4802 100.254 24.8851C100.571 24.2503 100.869 23.556 101.146 22.8022C100.591 22.2864 100.174 21.7309 99.8967 21.1358C99.6586 20.501 99.4801 19.8861 99.3611 19.291C99.242 18.6562 99.1429 18.0214 99.0635 17.3866C98.9842 16.7121 98.8453 16.0377 98.6469 15.3632C99.0437 14.7681 99.5198 14.292 100.075 13.9349C100.67 13.5382 101.305 13.2208 101.98 12.9827C102.654 12.7447 103.388 12.5463 104.182 12.3876C104.975 12.2289 105.808 12.0504 106.681 11.852C108.268 11.3362 109.676 10.9395 110.906 10.6618C112.176 10.3841 113.406 10.1658 114.596 10.0071C115.826 9.80878 117.096 9.63024 118.405 9.47154C119.714 9.31284 121.202 9.0748 122.868 8.7574C123.225 9.11447 123.562 9.29301 123.88 9.29301C124.039 8.93594 124.217 8.83675 124.415 8.99545C124.654 9.11447 124.753 8.99545 124.713 8.63838C125.11 9.31284 125.606 9.88812 126.201 10.3642C126.836 10.8006 127.53 11.1775 128.284 11.4949ZM127.808 18.2198C128.085 17.3866 128.522 16.6725 129.117 16.0773C129.752 15.4822 130.426 14.9863 131.14 14.5895C131.894 14.1531 132.668 13.7961 133.461 13.5183C134.255 13.2406 135.009 13.0026 135.723 12.8042C137.31 12.1297 138.996 11.4949 140.781 10.8998C142.606 10.265 144.451 9.70959 146.316 9.2335C148.22 8.7574 150.164 8.45984 152.148 8.34082C154.132 8.18212 156.215 8.42017 158.397 9.05496C158.516 9.45171 158.694 9.82861 158.932 10.1857C159.17 10.5428 159.408 10.8998 159.646 11.2569C159.924 11.614 160.162 11.971 160.361 12.3281C160.559 12.6455 160.678 12.9827 160.718 13.3398C161.114 13.6969 161.432 14.0936 161.67 14.53C161.908 14.9268 161.947 15.4624 161.789 16.1368C161.392 16.4542 160.995 16.7518 160.599 17.0295C160.241 17.2676 159.845 17.4858 159.408 17.6842C157.94 17.3271 156.453 17.2081 154.945 17.3271C153.437 17.4461 152.088 17.5453 150.898 17.6246C150.541 17.2676 150.105 17.089 149.589 17.089C149.113 17.089 148.597 17.1684 148.042 17.3271C147.526 17.4858 146.99 17.6445 146.435 17.8032C145.919 17.9619 145.423 18.0015 144.947 17.9222C144.55 18.2396 144.054 18.4578 143.459 18.5768C142.904 18.6562 142.289 18.7355 141.614 18.8149C141.575 19.0132 141.614 19.1521 141.733 19.2315C141.852 19.2711 141.872 19.3902 141.793 19.5885C142.031 19.8662 142.328 20.0646 142.686 20.1836C143.082 20.3027 143.479 20.4217 143.876 20.5407C144.312 20.6597 144.689 20.8184 145.007 21.0168C145.324 21.1755 145.542 21.4532 145.661 21.85C146.256 21.85 146.772 21.9888 147.208 22.2665C147.645 22.5443 148.002 22.8815 148.28 23.2782C148.557 23.675 148.756 24.1114 148.875 24.5875C149.033 25.0239 149.113 25.4207 149.113 25.7777C149.232 26.0951 149.371 26.234 149.529 26.1943C149.688 26.1546 149.867 26.234 150.065 26.4324C150.184 26.9481 150.482 27.4837 150.958 28.0392C151.434 28.5549 151.811 29.1302 152.088 29.765C152.168 30.7569 152.227 31.6496 152.267 32.443C152.307 33.1969 152.168 33.9705 151.85 34.764C151.255 36.2319 150.422 37.5412 149.351 38.6918C148.319 39.8423 147.129 40.8739 145.78 41.7864C144.471 42.6592 143.062 43.413 141.555 44.0478C140.047 44.6826 138.579 45.2182 137.151 45.6546C136.992 45.615 136.834 45.615 136.675 45.6546C136.516 45.6943 136.476 45.5951 136.556 45.3571C136.238 45.6348 135.881 45.8133 135.485 45.8927C135.128 45.972 134.731 45.9919 134.294 45.9522C133.858 45.9522 133.402 45.9323 132.926 45.8927C132.489 45.853 132.073 45.8728 131.676 45.9522C131.398 45.6745 131.14 45.3967 130.902 45.119C130.704 44.881 130.545 44.5636 130.426 44.1668C130.228 44.1668 130.129 44.0677 130.129 43.8693C130.168 43.6709 130.109 43.5717 129.95 43.5717C130.188 43.175 130.287 42.9568 130.248 42.9171C130.248 42.8377 130.188 42.7782 130.069 42.7386C129.99 42.6989 129.91 42.6592 129.831 42.6195C129.752 42.5402 129.732 42.441 129.772 42.322C129.93 42.0046 129.99 41.6475 129.95 41.2508C129.91 40.8143 129.871 40.3779 129.831 39.9415C129.791 39.5051 129.811 39.0885 129.891 38.6918C130.01 38.295 130.307 37.9776 130.783 37.7396C132.132 37.8983 133.402 37.8586 134.592 37.6206C135.822 37.3428 136.972 36.9659 138.044 36.4898C139.115 36.0137 140.127 35.498 141.079 34.9425C142.071 34.3871 143.043 33.8912 143.995 33.4547C144.114 33.0977 144.273 32.8001 144.471 32.5621C144.709 32.324 144.947 32.1058 145.185 31.9074C145.423 31.7091 145.641 31.4909 145.84 31.2528C146.038 31.0148 146.177 30.7172 146.256 30.3601C146.296 30.0824 146.217 29.9237 146.018 29.884C145.86 29.8047 145.78 29.646 145.78 29.4079L145.126 29.2294C144.372 28.793 143.519 28.4359 142.567 28.1582C141.614 27.8408 140.801 27.5036 140.127 27.1465C139.69 27.3846 139.274 27.4441 138.877 27.325C138.52 27.206 138.044 27.087 137.449 26.968C136.1 26.8886 134.79 26.7498 133.521 26.5514C132.291 26.353 131.101 25.9959 129.95 25.4802C129.871 25.2818 129.772 25.1033 129.652 24.9446C129.533 24.7859 129.315 24.7462 128.998 24.8255C128.76 24.5082 128.522 24.2106 128.284 23.9329C128.046 23.6155 127.827 23.2782 127.629 22.9212C127.708 22.4451 127.768 22.0483 127.808 21.7309C127.847 21.3739 127.728 21.0366 127.451 20.7192C127.609 20.2035 127.728 19.7869 127.808 19.4695C127.887 19.1521 127.887 18.7355 127.808 18.2198ZM188.629 27.1465C188.589 27.6226 188.629 28.0789 188.748 28.5153C188.867 28.9517 189.005 29.3881 189.164 29.8245C189.363 30.2213 189.541 30.6379 189.7 31.0743C189.858 31.5107 189.977 31.9471 190.057 32.3835C190.136 32.939 190.136 33.5539 190.057 34.2284C189.977 34.8632 189.839 35.498 189.64 36.1328C189.442 36.7279 189.184 37.2833 188.867 37.7991C188.549 38.2752 188.172 38.6323 187.736 38.8703C187.18 39.5844 186.506 40.1399 185.712 40.5366C184.919 40.9334 184.185 41.4095 183.511 41.9649C183.074 42.2426 182.578 42.441 182.023 42.56C181.507 42.679 180.971 42.7981 180.416 42.9171C179.98 43.1551 179.464 43.413 178.869 43.6907C178.274 43.9288 177.659 44.1668 177.024 44.4049C176.389 44.6033 175.754 44.762 175.119 44.881C174.485 44.9603 173.929 44.9802 173.453 44.9405C172.263 45.3769 171.092 45.6546 169.942 45.7737C168.831 45.9323 167.522 45.853 166.014 45.5356C164.586 45.734 163.257 45.6745 162.027 45.3571C160.837 45.0397 159.765 44.5437 158.813 43.8693C157.901 43.1551 157.087 42.322 156.373 41.3698C155.699 40.3779 155.143 39.3464 154.707 38.2752C154.389 36.0137 154.469 33.9705 154.945 32.1455C155.421 30.2808 156.095 28.5748 156.968 27.0275C157.881 25.4405 158.912 23.9924 160.063 22.6831C161.214 21.3342 162.324 20.0249 163.396 18.7554C163.634 18.8347 163.812 18.8347 163.931 18.7554C164.09 18.6363 164.229 18.4975 164.348 18.3388C164.467 18.1404 164.586 17.9619 164.705 17.8032C164.864 17.6445 165.042 17.5453 165.24 17.5056C165.518 16.9105 165.915 16.4741 166.431 16.1964C166.986 15.879 167.423 15.4425 167.74 14.8871C168.097 14.8078 168.395 14.6887 168.633 14.53C168.871 14.3713 169.089 14.1928 169.287 13.9944C169.525 13.7961 169.763 13.6175 170.001 13.4588C170.239 13.2605 170.517 13.1216 170.835 13.0422V12.3876C171.549 12.0702 172.064 11.7131 172.382 11.3164C172.739 10.88 173.156 10.3642 173.632 9.7691C173.989 9.72943 174.266 9.70959 174.465 9.70959C174.703 9.70959 175.04 9.66991 175.476 9.59057C175.794 9.03512 176.072 8.61854 176.31 8.34082C176.587 8.0631 176.984 7.76554 177.5 7.44815C177.976 7.68619 178.492 7.84489 179.047 7.92424C179.642 8.00359 180.158 8.26147 180.594 8.69789C180.634 9.09464 180.753 9.41203 180.952 9.65008C181.15 9.84845 181.368 10.0468 181.606 10.2452C181.844 10.4039 182.062 10.5824 182.261 10.7808C182.499 10.9792 182.658 11.2569 182.737 11.614C182.896 11.6536 182.995 11.6338 183.034 11.5545C183.114 11.4751 183.233 11.4553 183.392 11.4949C183.511 12.0504 183.649 12.4273 183.808 12.6257C183.967 12.7844 184.125 13.1216 184.284 13.6374C184.086 14.0341 183.927 14.4507 183.808 14.8871C183.729 15.2838 183.491 15.5814 183.094 15.7798C183.054 16.0575 183.134 16.2162 183.332 16.2559C183.53 16.2559 183.649 16.3551 183.689 16.5534C183.729 16.9105 183.669 17.1684 183.511 17.3271C184.463 18.8744 185.316 20.5209 186.07 22.2665C186.823 23.9725 187.676 25.5992 188.629 27.1465ZM181.19 32.8001C181.348 32.3637 181.547 32.0066 181.785 31.7289C182.062 31.4512 182.221 31.0346 182.261 30.4792C182.062 30.1618 181.943 29.9237 181.904 29.765C181.864 29.5666 181.844 29.2691 181.844 28.8723C180.971 27.6424 180.218 26.3332 179.583 24.9446C178.948 23.5163 178.234 22.1872 177.44 20.9573C177.361 21.116 177.222 21.2747 177.024 21.4334C176.825 21.5921 176.607 21.5524 176.369 21.3144C176.29 21.6318 176.151 21.8698 175.953 22.0285C175.754 22.1475 175.536 22.207 175.298 22.207C175.06 22.1674 174.802 22.1079 174.524 22.0285C174.286 21.9095 174.068 21.7706 173.87 21.6119C172.719 22.5244 171.569 23.4171 170.418 24.2899C169.267 25.1628 168.236 26.1745 167.323 27.325C167.165 27.4044 167.065 27.4441 167.026 27.4441C166.986 27.4044 166.867 27.4242 166.669 27.5036C166.351 28.2574 165.955 28.9517 165.479 29.5865C165.042 30.1816 164.606 30.7966 164.169 31.4313C163.733 32.0661 163.356 32.7406 163.039 33.4547C162.721 34.1689 162.543 35.002 162.503 35.9542C163.177 36.5097 163.971 36.8469 164.883 36.9659C165.796 37.085 166.728 37.1048 167.68 37.0254C168.672 36.9461 169.624 36.8271 170.537 36.6684C171.489 36.47 172.362 36.3708 173.156 36.3708C174.822 35.9741 176.25 35.4583 177.44 34.8235C178.631 34.149 179.88 33.4746 181.19 32.8001ZM233.441 43.9288C233.044 44.1272 232.667 44.3057 232.31 44.4644C231.993 44.6231 231.616 44.7024 231.179 44.7024C229.632 43.5519 228.819 41.5483 228.739 38.6918C228.7 35.8352 229.315 32.205 230.584 27.8011C230.783 27.6821 230.882 27.4441 230.882 27.087L230.346 26.4919C230.188 26.4919 230.029 26.5117 229.87 26.5514C229.751 26.5911 229.652 26.7299 229.573 26.968C228.541 27.7218 227.41 28.5153 226.18 29.3484C224.95 30.1419 223.661 30.8957 222.312 31.6099C221.003 32.2843 219.654 32.8398 218.265 33.2762C216.916 33.7126 215.587 33.9308 214.278 33.9308C210.945 33.9308 208.446 32.2447 206.78 28.8723L206.304 27.9797L205.827 28.7533C205.708 28.912 205.53 29.2492 205.292 29.765C205.054 30.2411 204.816 30.7966 204.578 31.4313C204.34 32.0661 204.121 32.7208 203.923 33.3952C203.764 34.03 203.705 34.5855 203.745 35.0616C203.387 35.4186 203.011 35.8352 202.614 36.3113C202.217 36.7874 201.919 37.323 201.721 37.9181C201.642 38.2355 201.681 38.5331 201.84 38.8108C201.761 39.1679 201.582 39.4456 201.305 39.644C201.146 39.8423 200.967 40.0407 200.769 40.2391C200.61 40.3978 200.471 40.5763 200.352 40.7747C200.273 40.973 200.213 41.1714 200.174 41.3698C200.174 41.5682 200.154 41.7665 200.114 41.9649C200.114 42.2426 200.075 42.5005 199.995 42.7386C199.321 44.1272 198.785 45.0198 198.388 45.4166C197.992 45.853 197.456 46.0712 196.782 46.0712C196.464 46.0712 195.948 46.0117 195.234 45.8927C194.719 45.3372 194.242 44.5834 193.806 43.6312C193.409 42.6394 193.092 41.588 192.854 40.4771C192.656 39.3662 192.556 38.2553 192.556 37.1445C192.596 35.9939 192.794 35.002 193.151 34.1689C193.151 34.1292 193.31 33.7325 193.628 32.9786C193.945 32.2248 194.342 31.2528 194.818 30.0626C195.334 28.8723 195.909 27.5631 196.544 26.1348C197.178 24.6669 197.813 23.2584 198.448 21.9095C199.083 20.5209 199.678 19.2513 200.233 18.1007C200.828 16.9502 201.324 16.0773 201.721 15.4822C202.039 15.0061 202.316 14.5697 202.554 14.173C202.832 13.7365 203.09 13.32 203.328 12.9232C204.042 11.6933 204.717 10.6816 205.351 9.88812C206.026 9.05496 206.998 8.40033 208.267 7.92424C209.14 8.28131 209.775 8.69789 210.172 9.17398L210.291 9.82861C210.449 10.2254 210.688 10.4237 211.005 10.4237C211.441 10.5428 211.798 10.6618 212.076 10.7808C212.394 10.8601 212.731 10.9395 213.088 11.0188C213.366 11.3362 213.623 11.7131 213.861 12.1496C214.179 12.6257 214.476 13.1018 214.754 13.5778C215.072 14.0143 215.31 14.4705 215.468 14.9466C215.667 15.383 215.766 15.8393 215.766 16.3154C215.806 16.7915 215.726 17.2874 215.528 17.8032L215.587 18.3983C215.786 18.7554 215.825 19.2513 215.706 19.8861C215.667 20.1638 215.647 20.4614 215.647 20.7788C215.647 21.0565 215.687 21.3739 215.766 21.7309C216.48 22.2864 217.115 22.5641 217.67 22.5641C218.305 22.5641 218.88 22.4252 219.396 22.1475C219.952 21.8301 220.467 21.5127 220.943 21.1953C221.261 20.9573 221.578 20.7589 221.896 20.6002C222.213 20.4018 222.53 20.2828 222.848 20.2432C223.562 19.5687 224.197 18.9736 224.752 18.4578C225.347 17.942 225.962 17.4263 226.597 16.9105C227.787 15.9583 228.938 14.9268 230.049 13.8159C231.16 12.705 232.052 11.3164 232.727 9.65008C233.123 9.41203 233.54 9.29301 233.976 9.29301C234.413 9.29301 234.869 9.39219 235.345 9.59057C235.821 9.78894 236.278 9.98731 236.714 10.1857C236.833 10.265 236.932 10.3245 237.012 10.3642C237.131 10.4039 237.23 10.4436 237.309 10.4832C237.309 10.88 237.468 11.2172 237.785 11.4949C237.944 11.614 238.043 11.6933 238.083 11.733C238.122 11.7727 238.182 11.8123 238.261 11.852C238.856 12.1694 239.233 12.4868 239.392 12.8042C239.67 13.7167 240.166 14.411 240.88 14.8871C240.8 15.2838 240.8 15.6608 240.88 16.0178C240.999 16.3352 241.138 16.6725 241.296 17.0295C241.336 17.1485 241.376 17.2676 241.415 17.3866C241.455 17.5056 241.515 17.6445 241.594 17.8032L240.463 17.6842L240.642 18.8149C240.721 19.3703 240.662 19.9853 240.463 20.6597C240.305 21.3342 240.106 21.8698 239.868 22.2665C239.908 23.2981 239.928 24.1114 239.928 24.7065C239.967 25.262 239.947 25.7976 239.868 26.3133C239.789 26.7894 239.67 27.2457 239.511 27.6821C239.392 28.1185 239.213 28.5946 238.975 29.1104C239.134 31.6496 238.837 33.9705 238.083 36.0733C237.369 38.1363 236.615 40.0804 235.821 41.9054C235.742 42.1038 235.643 42.3021 235.524 42.5005C235.444 42.6989 235.365 42.8973 235.286 43.0956C234.929 43.2147 234.611 43.3535 234.333 43.5122C234.056 43.6312 233.758 43.7701 233.441 43.9288ZM275.099 11.4949C275.139 11.7727 275.139 11.9909 275.099 12.1496C275.099 12.2686 275.079 12.3876 275.039 12.5066C275.039 12.6257 275.039 12.7645 275.039 12.9232C275.039 13.0422 275.079 13.2406 275.158 13.5183C274.325 14.8673 273.353 15.7996 272.242 16.3154C271.171 16.7915 270.001 17.1485 268.731 17.3866C267.462 17.585 266.152 17.8032 264.803 18.0412C263.494 18.2793 262.185 18.795 260.876 19.5885C260.36 19.3902 259.884 19.3902 259.447 19.5885C259.051 19.7869 258.456 19.8464 257.662 19.7671C257.424 20.0051 257.126 20.1836 256.769 20.3027C256.412 20.382 256.055 20.4812 255.698 20.6002C255.857 20.9573 255.916 21.3342 255.877 21.7309C255.877 22.088 255.936 22.3856 256.055 22.6236C257.444 22.7426 258.971 22.7228 260.638 22.5641C262.344 22.4054 264.01 22.3062 265.637 22.2665C265.676 22.4649 265.656 22.6038 265.577 22.6831C265.498 22.7228 265.478 22.822 265.518 22.9807C265.795 23.1791 266.073 23.4369 266.351 23.7543C266.628 24.0321 266.906 24.3098 267.184 24.5875C267.462 24.8652 267.739 25.1033 268.017 25.3016C268.334 25.4603 268.692 25.5199 269.088 25.4802C269.247 25.7976 269.346 26.1546 269.386 26.5514C269.465 26.9085 269.426 27.2854 269.267 27.6821C268.632 28.1185 267.997 28.5748 267.362 29.0509C266.728 29.4873 266.053 29.884 265.339 30.2411C264.665 30.5982 263.931 30.8957 263.137 31.1338C262.383 31.3322 261.53 31.4115 260.578 31.3718C260.38 31.3718 260.221 31.3718 260.102 31.3718C260.023 31.3718 259.904 31.3123 259.745 31.1933C259.428 31.3917 258.971 31.4512 258.376 31.3718C257.821 31.2925 257.384 31.352 257.067 31.5504C256.631 31.352 256.095 31.2726 255.46 31.3123C254.865 31.3123 254.329 31.233 253.853 31.0743C253.219 31.9074 252.643 32.8001 252.127 33.7523C251.612 34.7045 251.155 35.7162 250.759 36.7874C252.108 36.9858 253.219 37.0651 254.091 37.0254C255.004 36.9858 255.857 36.9263 256.65 36.8469C257.444 36.7279 258.257 36.6287 259.09 36.5493C259.924 36.4303 260.975 36.3906 262.244 36.4303C263.038 35.9939 263.97 35.7162 265.042 35.5972C266.152 35.4385 267.164 35.2004 268.077 34.883C268.394 35.002 268.672 35.2203 268.91 35.5376C269.148 35.8154 269.366 36.0931 269.564 36.3708C269.802 36.6089 270.04 36.8271 270.279 37.0254C270.517 37.2238 270.814 37.3032 271.171 37.2635C271.33 37.4222 271.429 37.6206 271.469 37.8586C271.548 38.057 271.608 38.2553 271.647 38.4537C271.687 38.6521 271.746 38.8306 271.826 38.9893C271.945 39.1083 272.123 39.148 272.361 39.1083C271.766 40.4176 271.072 41.4293 270.279 42.1434C269.525 42.8179 268.652 43.3337 267.66 43.6907C266.668 44.0478 265.557 44.3255 264.327 44.5239C263.137 44.7223 261.808 44.9603 260.34 45.238C259.983 45.3174 259.685 45.2976 259.447 45.1785C259.209 45.0992 258.932 45.0595 258.614 45.0595C257.702 45.2579 256.611 45.4364 255.341 45.5951C254.072 45.7538 252.782 45.8133 251.473 45.7737C250.164 45.734 248.914 45.5554 247.724 45.238C246.533 44.9603 245.561 44.4446 244.808 43.6907C244.49 43.413 244.272 43.0956 244.153 42.7386C244.074 42.3418 243.816 42.0443 243.379 41.8459C243.34 41.3301 243.26 40.7548 243.141 40.12C243.022 39.4853 242.903 38.8306 242.784 38.1562C242.665 37.442 242.566 36.7477 242.487 36.0733C242.447 35.3988 242.487 34.7838 242.606 34.2284C242.725 33.6333 242.963 33.0977 243.32 32.6216C243.717 32.1455 243.855 31.6297 243.736 31.0743C243.935 31.0346 244.054 30.9354 244.093 30.7767C244.133 30.5783 244.292 30.499 244.57 30.5387C244.808 29.8245 245.065 29.1501 245.343 28.5153C245.621 27.8805 245.899 27.2655 246.176 26.6704C246.494 26.0753 246.791 25.4802 247.069 24.8851C247.386 24.2503 247.684 23.556 247.962 22.8022C247.406 22.2864 246.99 21.7309 246.712 21.1358C246.474 20.501 246.295 19.8861 246.176 19.291C246.057 18.6562 245.958 18.0214 245.879 17.3866C245.799 16.7121 245.661 16.0377 245.462 15.3632C245.859 14.7681 246.335 14.292 246.89 13.9349C247.486 13.5382 248.12 13.2208 248.795 12.9827C249.469 12.7447 250.203 12.5463 250.997 12.3876C251.79 12.2289 252.623 12.0504 253.496 11.852C255.083 11.3362 256.492 10.9395 257.722 10.6618C258.991 10.3841 260.221 10.1658 261.411 10.0071C262.641 9.80878 263.911 9.63024 265.22 9.47154C266.529 9.31284 268.017 9.0748 269.683 8.7574C270.04 9.11447 270.378 9.29301 270.695 9.29301C270.854 8.93594 271.032 8.83675 271.231 8.99545C271.469 9.11447 271.568 8.99545 271.528 8.63838C271.925 9.31284 272.421 9.88812 273.016 10.3642C273.651 10.8006 274.345 11.1775 275.099 11.4949ZM273.671 30.8957C273.671 30.4593 273.73 30.0626 273.849 29.7055C273.968 29.3484 273.988 28.8922 273.909 28.3367C275.139 25.7182 276.527 23.2981 278.075 21.0763C279.662 18.8149 281.546 16.8312 283.728 15.1251C284.085 14.8474 284.363 14.5697 284.561 14.292C284.799 13.9746 285.018 13.677 285.216 13.3993C285.454 13.1216 285.712 12.8835 285.99 12.6852C286.267 12.4471 286.624 12.2884 287.061 12.2091C288.053 11.0585 289.243 10.0071 290.632 9.05496C292.02 8.10277 293.468 7.19026 294.976 6.31742C296.483 5.44459 297.991 4.55191 299.499 3.6394C301.046 2.72689 302.435 1.73503 303.665 0.663818C304.101 0.941539 304.438 1.04072 304.676 0.961376C304.954 0.842353 305.232 0.822515 305.509 0.901864C305.866 1.65568 306.323 2.19128 306.878 2.50868C307.473 2.7864 308.068 3.08396 308.664 3.40135C309.298 3.67907 309.874 4.03614 310.389 4.47256C310.945 4.86931 311.361 5.42475 311.639 6.13889C311.361 6.13889 311.223 6.23808 311.223 6.43645C311.262 6.63482 311.322 6.85303 311.401 7.09108C311.48 7.32912 311.52 7.54733 311.52 7.7457C311.52 7.94408 311.342 8.04326 310.984 8.04326C310.984 8.32098 311.123 8.45984 311.401 8.45984C311.679 8.45984 311.818 8.5987 311.818 8.87643C311.818 9.11447 311.758 9.31284 311.639 9.47154C311.56 9.59057 311.56 9.80878 311.639 10.1262C310.687 10.761 309.616 11.3759 308.425 11.971C307.275 12.5265 306.045 13.1216 304.736 13.7564C303.466 14.3912 302.157 15.0855 300.808 15.8393C299.499 16.5534 298.189 17.3866 296.88 18.3388C295.571 19.291 294.242 20.3423 292.893 21.4929C291.584 22.6435 290.314 23.8734 289.084 25.1826C287.854 26.4522 286.704 27.7813 285.633 29.1699C284.561 30.5188 283.649 31.8479 282.895 33.1572C282.974 33.3556 283.074 33.5341 283.193 33.6928C283.351 33.8515 283.47 34.03 283.55 34.2284C285.057 34.3077 286.466 34.3077 287.775 34.2284C289.084 34.1094 290.393 34.1887 291.703 34.4664C291.861 34.3474 291.961 34.1887 292 33.9903C292.04 33.792 292.159 33.6531 292.357 33.5738C295.055 33.296 297.575 32.8596 299.915 32.2645C302.256 31.6297 304.637 30.9949 307.057 30.3601C306.343 30.0824 305.708 29.8642 305.152 29.7055C304.914 29.4675 304.914 29.2691 305.152 29.1104C305.43 28.912 305.648 28.7136 305.807 28.5153C305.172 28.1582 304.637 27.6821 304.2 27.087C303.803 26.4919 303.565 25.7182 303.486 24.766C303.764 24.528 303.903 24.2503 303.903 23.9329C303.903 23.6155 303.764 23.3576 303.486 23.1592C303.288 23.0799 303.169 23.0799 303.129 23.1592C303.089 23.2386 303.05 23.3179 303.01 23.3973C303.01 23.4766 302.97 23.556 302.891 23.6353C302.851 23.7147 302.752 23.7147 302.593 23.6353C302.633 23.1989 302.732 22.8418 302.891 22.5641C303.05 22.2864 303.169 21.9492 303.248 21.5524L308.187 18.2793C308.703 18.676 309.338 19.0926 310.092 19.529C310.846 19.9654 311.639 20.4018 312.472 20.8383C313.305 21.2747 314.158 21.7309 315.031 22.207C315.904 22.6435 316.717 23.0799 317.471 23.5163C318.185 23.8337 318.8 24.2304 319.316 24.7065C319.832 25.1429 320.328 25.619 320.804 26.1348C321.28 26.6109 321.756 27.087 322.232 27.5631C322.708 28.0392 323.284 28.4359 323.958 28.7533C323.879 29.3881 323.918 29.9039 324.077 30.3006C324.236 30.6974 324.275 31.1735 324.196 31.7289C323.442 33.0778 322.53 34.2284 321.459 35.1806C320.387 36.0931 319.177 36.8866 317.828 37.561C316.519 38.2355 315.111 38.8108 313.603 39.2869C312.095 39.7233 310.548 40.1597 308.961 40.5961C307.374 40.9929 305.767 41.4293 304.141 41.9054C302.554 42.3418 300.987 42.8576 299.439 43.4527C298.765 43.4527 298.189 43.4725 297.713 43.5122C297.237 43.5519 296.781 43.6114 296.345 43.6907C295.908 43.7701 295.472 43.8494 295.035 43.9288C294.599 44.0081 294.123 44.0677 293.607 44.1073C293.409 44.0677 293.27 44.1073 293.191 44.2263C293.151 44.3454 293.071 44.4446 292.952 44.5239C292.159 44.6429 291.445 44.7024 290.81 44.7024C290.175 44.7024 289.64 44.7024 289.203 44.7024C288.648 44.7024 288.073 44.7818 287.477 44.9405C286.882 45.0992 286.327 45.1587 285.811 45.119C282.24 44.9603 279.443 43.6907 277.42 41.3103C275.397 38.9298 274.286 35.6567 274.087 31.4909C274.127 31.2925 274.087 31.1735 273.968 31.1338C273.849 31.0544 273.75 30.9751 273.671 30.8957ZM353.238 40.001C353 40.6755 352.643 41.3698 352.167 42.0839C351.73 42.7584 351.195 43.3733 350.56 43.9288C349.965 44.4446 349.29 44.881 348.536 45.238C347.783 45.5951 346.989 45.7935 346.156 45.8332C345.64 45.7141 345.283 45.5753 345.085 45.4166C344.926 45.2976 344.747 45.1785 344.549 45.0595C344.43 44.9802 344.311 44.9207 344.192 44.881C344.113 44.8016 344.033 44.7421 343.954 44.7024L343.24 44.4049L343.478 43.6312C343.557 43.3138 343.537 43.0758 343.418 42.9171C343.299 42.7187 343.061 42.4608 342.704 42.1434C342.585 42.0244 342.466 41.9054 342.347 41.7864C342.228 41.6673 342.129 41.5483 342.05 41.4293L341.038 40.2986L342.645 39.882C343.637 39.6043 344.291 39.2472 344.609 38.8108C344.966 38.3744 345.105 37.6404 345.025 36.6089C344.232 36.4502 343.557 36.4303 343.002 36.5493C342.486 36.6684 341.95 36.8072 341.395 36.9659C340.681 37.1643 339.947 37.3428 339.193 37.5015C338.479 37.6206 337.685 37.6801 336.813 37.6801C336.495 37.6801 336.198 37.6801 335.92 37.6801C335.642 37.6404 335.345 37.6007 335.027 37.561L334.432 37.442C334.353 37.0056 334.273 36.7676 334.194 36.7279C334.115 36.6485 334.035 36.5692 333.956 36.4898C333.758 36.2915 333.539 36.0336 333.301 35.7162C333.103 35.3591 333.063 34.9227 333.182 34.4069C332.984 34.0499 332.865 33.6928 332.825 33.3357C332.587 33.8118 332.409 34.3077 332.29 34.8235L332.052 35.4186L331.457 35.5376C331.377 35.5773 331.318 35.6765 331.278 35.8352C331.238 35.9542 331.218 36.0534 331.218 36.1328L330.921 37.1445C330.842 37.2238 330.762 37.3032 330.683 37.3825C330.604 37.4222 330.524 37.4817 330.445 37.561C330.365 37.9181 330.266 38.2752 330.147 38.6323C330.028 38.9893 329.909 39.3266 329.79 39.644C329.592 40.1597 329.413 40.6755 329.255 41.1913C329.136 41.6673 329.096 42.1434 329.136 42.6195L328.898 43.2742C328.699 43.5122 328.481 43.7106 328.243 43.8693C328.005 43.9883 327.767 44.1073 327.529 44.2263C327.449 44.3057 327.33 44.385 327.172 44.4644C327.053 44.5041 326.953 44.5437 326.874 44.5834L326.696 45.238L325.981 45.3571C325.545 45.4364 325.228 45.4959 325.029 45.5356C324.871 45.5753 324.672 45.5951 324.434 45.5951L323.839 45.5356C323.403 45.1785 323.065 44.9008 322.827 44.7024C322.589 44.4644 322.312 44.2462 321.994 44.0478C321.637 43.5717 321.439 43.2147 321.399 42.9766C321.359 42.7386 321.32 42.5203 321.28 42.322C321.201 42.0839 321.161 41.8856 321.161 41.7269C321.121 41.5682 321.062 41.4491 320.982 41.3698L320.209 40.6556L320.863 40.12L320.923 39.1083C321.716 37.085 322.55 35.1409 323.422 33.2762C324.335 31.4115 325.267 29.5071 326.219 27.5631C326.537 26.9283 326.834 26.2935 327.112 25.6587C327.43 25.0239 327.747 24.3891 328.064 23.7543C328.025 23.6353 328.005 23.4965 328.005 23.3378C328.005 23.1791 328.045 23.0005 328.124 22.8022C328.56 22.1277 328.917 21.5326 329.195 21.0168C329.473 20.4614 329.751 19.9059 330.028 19.3505C330.346 18.676 330.663 18.0214 330.98 17.3866C331.337 16.7518 331.774 16.0972 332.29 15.4227L333.242 15.0061C333.361 14.9665 333.5 14.9268 333.658 14.8871C333.817 14.8078 333.996 14.7681 334.194 14.7681L335.087 14.8871C336.198 14.3713 337.17 13.6572 338.003 12.7447C338.836 11.7925 339.689 10.6618 340.562 9.35252L341.157 8.51936L341.931 8.99545C342.129 9.11447 342.407 9.2335 342.764 9.35252C343.121 9.43187 343.498 9.53105 343.894 9.65008C344.609 9.80878 345.283 9.98731 345.918 10.1857C346.553 10.3841 347.068 10.6816 347.465 11.0784C347.703 11.7131 347.842 12.1892 347.882 12.5066C347.921 12.824 347.981 13.1414 348.06 13.4588C348.179 14.1333 348.278 14.8078 348.358 15.4822C348.477 16.1567 348.556 16.9105 348.596 17.7437C348.794 18.4181 348.953 19.0926 349.072 19.7671C349.231 20.4018 349.37 21.0565 349.489 21.7309C349.687 22.6831 349.885 23.6155 350.084 24.528C350.282 25.4008 350.54 26.234 350.857 27.0275C351.175 27.0275 351.373 27.0473 351.452 27.087C351.651 27.0076 351.849 26.9481 352.048 26.9085C352.286 26.8688 352.543 26.8291 352.821 26.7894L353.476 26.7299L353.714 27.325C353.754 27.5234 353.952 27.7218 354.309 27.9202C354.825 27.9598 355.202 28.0789 355.44 28.2772C355.678 28.4359 355.896 28.6145 356.094 28.8128C356.253 28.9715 356.412 29.0906 356.57 29.1699L357.463 29.527L356.987 30.4196C356.59 31.1338 356.015 31.8281 355.261 32.5026C354.547 33.1373 353.734 33.6729 352.821 34.1094C352.861 34.3474 352.881 34.5855 352.881 34.8235C352.92 35.0219 352.98 35.2401 353.059 35.4781C353.178 36.1526 353.277 36.8469 353.357 37.561C353.436 38.2752 353.436 39.0092 353.357 39.763L353.238 40.001ZM336.039 29.7055C337.229 29.6262 338.3 29.5468 339.253 29.4675C340.244 29.3484 341.335 29.1699 342.526 28.9319C342.248 27.7416 341.95 26.5117 341.633 25.2421C341.316 23.9329 340.978 22.6435 340.621 21.3739L340.264 21.969C339.471 22.8022 338.697 23.7345 337.943 24.766C337.229 25.7976 336.614 26.7696 336.098 27.6821C335.86 28.0392 335.622 28.3962 335.384 28.7533C335.146 29.1104 334.928 29.4675 334.73 29.8245C334.968 29.7849 335.186 29.765 335.384 29.765C335.622 29.765 335.841 29.7452 336.039 29.7055ZM398.348 43.9288C397.951 44.1272 397.574 44.3057 397.217 44.4644C396.9 44.6231 396.523 44.7024 396.086 44.7024C394.539 43.5519 393.726 41.5483 393.646 38.6918C393.607 35.8352 394.221 32.205 395.491 27.8011C395.689 27.6821 395.789 27.4441 395.789 27.087L395.253 26.4919C395.094 26.4919 394.936 26.5117 394.777 26.5514C394.658 26.5911 394.559 26.7299 394.479 26.968C393.448 27.7218 392.317 28.5153 391.087 29.3484C389.857 30.1419 388.568 30.8957 387.219 31.6099C385.91 32.2843 384.561 32.8398 383.172 33.2762C381.823 33.7126 380.494 33.9308 379.185 33.9308C375.852 33.9308 373.353 32.2447 371.686 28.8723L371.21 27.9797L370.734 28.7533C370.615 28.912 370.437 29.2492 370.199 29.765C369.961 30.2411 369.723 30.7966 369.484 31.4313C369.246 32.0661 369.028 32.7208 368.83 33.3952C368.671 34.03 368.612 34.5855 368.651 35.0616C368.294 35.4186 367.917 35.8352 367.521 36.3113C367.124 36.7874 366.826 37.323 366.628 37.9181C366.549 38.2355 366.588 38.5331 366.747 38.8108C366.668 39.1679 366.489 39.4456 366.211 39.644C366.053 39.8423 365.874 40.0407 365.676 40.2391C365.517 40.3978 365.378 40.5763 365.259 40.7747C365.18 40.973 365.12 41.1714 365.081 41.3698C365.081 41.5682 365.061 41.7665 365.021 41.9649C365.021 42.2426 364.981 42.5005 364.902 42.7386C364.228 44.1272 363.692 45.0198 363.295 45.4166C362.899 45.853 362.363 46.0712 361.688 46.0712C361.371 46.0712 360.855 46.0117 360.141 45.8927C359.625 45.3372 359.149 44.5834 358.713 43.6312C358.316 42.6394 357.999 41.588 357.761 40.4771C357.562 39.3662 357.463 38.2553 357.463 37.1445C357.503 35.9939 357.701 35.002 358.058 34.1689C358.058 34.1292 358.217 33.7325 358.534 32.9786C358.852 32.2248 359.248 31.2528 359.725 30.0626C360.24 28.8723 360.816 27.5631 361.45 26.1348C362.085 24.6669 362.72 23.2584 363.355 21.9095C363.99 20.5209 364.585 19.2513 365.14 18.1007C365.735 16.9502 366.231 16.0773 366.628 15.4822C366.945 15.0061 367.223 14.5697 367.461 14.173C367.739 13.7365 367.997 13.32 368.235 12.9232C368.949 11.6933 369.623 10.6816 370.258 9.88812C370.933 9.05496 371.905 8.40033 373.174 7.92424C374.047 8.28131 374.682 8.69789 375.079 9.17398L375.198 9.82861C375.356 10.2254 375.594 10.4237 375.912 10.4237C376.348 10.5428 376.705 10.6618 376.983 10.7808C377.3 10.8601 377.638 10.9395 377.995 11.0188C378.272 11.3362 378.53 11.7131 378.768 12.1496C379.086 12.6257 379.383 13.1018 379.661 13.5778C379.978 14.0143 380.216 14.4705 380.375 14.9466C380.573 15.383 380.673 15.8393 380.673 16.3154C380.712 16.7915 380.633 17.2874 380.435 17.8032L380.494 18.3983C380.692 18.7554 380.732 19.2513 380.613 19.8861C380.573 20.1638 380.554 20.4614 380.554 20.7788C380.554 21.0565 380.593 21.3739 380.673 21.7309C381.387 22.2864 382.022 22.5641 382.577 22.5641C383.212 22.5641 383.787 22.4252 384.303 22.1475C384.858 21.8301 385.374 21.5127 385.85 21.1953C386.168 20.9573 386.485 20.7589 386.802 20.6002C387.12 20.4018 387.437 20.2828 387.755 20.2432C388.469 19.5687 389.103 18.9736 389.659 18.4578C390.254 17.942 390.869 17.4263 391.504 16.9105C392.694 15.9583 393.845 14.9268 394.955 13.8159C396.066 12.705 396.959 11.3164 397.633 9.65008C398.03 9.41203 398.447 9.29301 398.883 9.29301C399.32 9.29301 399.776 9.39219 400.252 9.59057C400.728 9.78894 401.184 9.98731 401.621 10.1857C401.74 10.265 401.839 10.3245 401.918 10.3642C402.037 10.4039 402.137 10.4436 402.216 10.4832C402.216 10.88 402.375 11.2172 402.692 11.4949C402.851 11.614 402.95 11.6933 402.99 11.733C403.029 11.7727 403.089 11.8123 403.168 11.852C403.763 12.1694 404.14 12.4868 404.299 12.8042C404.577 13.7167 405.072 14.411 405.787 14.8871C405.707 15.2838 405.707 15.6608 405.787 16.0178C405.906 16.3352 406.044 16.6725 406.203 17.0295C406.243 17.1485 406.283 17.2676 406.322 17.3866C406.362 17.5056 406.421 17.6445 406.501 17.8032L405.37 17.6842L405.549 18.8149C405.628 19.3703 405.568 19.9853 405.37 20.6597C405.211 21.3342 405.013 21.8698 404.775 22.2665C404.815 23.2981 404.834 24.1114 404.834 24.7065C404.874 25.262 404.854 25.7976 404.775 26.3133C404.696 26.7894 404.577 27.2457 404.418 27.6821C404.299 28.1185 404.12 28.5946 403.882 29.1104C404.041 31.6496 403.743 33.9705 402.99 36.0733C402.275 38.1363 401.522 40.0804 400.728 41.9054C400.649 42.1038 400.55 42.3021 400.431 42.5005C400.351 42.6989 400.272 42.8973 400.192 43.0956C399.835 43.2147 399.518 43.3535 399.24 43.5122C398.963 43.6312 398.665 43.7701 398.348 43.9288ZM440.006 11.4949C440.045 11.7727 440.045 11.9909 440.006 12.1496C440.006 12.2686 439.986 12.3876 439.946 12.5066C439.946 12.6257 439.946 12.7645 439.946 12.9232C439.946 13.0422 439.986 13.2406 440.065 13.5183C439.232 14.8673 438.26 15.7996 437.149 16.3154C436.078 16.7915 434.908 17.1485 433.638 17.3866C432.368 17.585 431.059 17.8032 429.71 18.0412C428.401 18.2793 427.092 18.795 425.782 19.5885C425.267 19.3902 424.791 19.3902 424.354 19.5885C423.957 19.7869 423.362 19.8464 422.569 19.7671C422.331 20.0051 422.033 20.1836 421.676 20.3027C421.319 20.382 420.962 20.4812 420.605 20.6002C420.764 20.9573 420.823 21.3342 420.784 21.7309C420.784 22.088 420.843 22.3856 420.962 22.6236C422.351 22.7426 423.878 22.7228 425.544 22.5641C427.25 22.4054 428.917 22.3062 430.543 22.2665C430.583 22.4649 430.563 22.6038 430.484 22.6831C430.405 22.7228 430.385 22.822 430.424 22.9807C430.702 23.1791 430.98 23.4369 431.258 23.7543C431.535 24.0321 431.813 24.3098 432.091 24.5875C432.368 24.8652 432.646 25.1033 432.924 25.3016C433.241 25.4603 433.598 25.5199 433.995 25.4802C434.154 25.7976 434.253 26.1546 434.293 26.5514C434.372 26.9085 434.332 27.2854 434.174 27.6821C433.539 28.1185 432.904 28.5748 432.269 29.0509C431.634 29.4873 430.96 29.884 430.246 30.2411C429.571 30.5982 428.837 30.8957 428.044 31.1338C427.29 31.3322 426.437 31.4115 425.485 31.3718C425.287 31.3718 425.128 31.3718 425.009 31.3718C424.929 31.3718 424.81 31.3123 424.652 31.1933C424.334 31.3917 423.878 31.4512 423.283 31.3718C422.728 31.2925 422.291 31.352 421.974 31.5504C421.537 31.352 421.002 31.2726 420.367 31.3123C419.772 31.3123 419.236 31.233 418.76 31.0743C418.125 31.9074 417.55 32.8001 417.034 33.7523C416.519 34.7045 416.062 35.7162 415.666 36.7874C417.014 36.9858 418.125 37.0651 418.998 37.0254C419.911 36.9858 420.764 36.9263 421.557 36.8469C422.351 36.7279 423.164 36.6287 423.997 36.5493C424.83 36.4303 425.882 36.3906 427.151 36.4303C427.945 35.9939 428.877 35.7162 429.948 35.5972C431.059 35.4385 432.071 35.2004 432.983 34.883C433.301 35.002 433.579 35.2203 433.817 35.5376C434.055 35.8154 434.273 36.0931 434.471 36.3708C434.709 36.6089 434.947 36.8271 435.185 37.0254C435.423 37.2238 435.721 37.3032 436.078 37.2635C436.237 37.4222 436.336 37.6206 436.376 37.8586C436.455 38.057 436.514 38.2553 436.554 38.4537C436.594 38.6521 436.653 38.8306 436.733 38.9893C436.852 39.1083 437.03 39.148 437.268 39.1083C436.673 40.4176 435.979 41.4293 435.185 42.1434C434.432 42.8179 433.559 43.3337 432.567 43.6907C431.575 44.0478 430.464 44.3255 429.234 44.5239C428.044 44.7223 426.715 44.9603 425.247 45.238C424.89 45.3174 424.592 45.2976 424.354 45.1785C424.116 45.0992 423.838 45.0595 423.521 45.0595C422.609 45.2579 421.517 45.4364 420.248 45.5951C418.978 45.7538 417.689 45.8133 416.38 45.7737C415.07 45.734 413.821 45.5554 412.63 45.238C411.44 44.9603 410.468 44.4446 409.714 43.6907C409.397 43.413 409.179 43.0956 409.06 42.7386C408.98 42.3418 408.722 42.0443 408.286 41.8459C408.246 41.3301 408.167 40.7548 408.048 40.12C407.929 39.4853 407.81 38.8306 407.691 38.1562C407.572 37.442 407.473 36.7477 407.393 36.0733C407.354 35.3988 407.393 34.7838 407.512 34.2284C407.631 33.6333 407.869 33.0977 408.227 32.6216C408.623 32.1455 408.762 31.6297 408.643 31.0743C408.842 31.0346 408.961 30.9354 409 30.7767C409.04 30.5783 409.199 30.499 409.476 30.5387C409.714 29.8245 409.972 29.1501 410.25 28.5153C410.528 27.8805 410.805 27.2655 411.083 26.6704C411.401 26.0753 411.698 25.4802 411.976 24.8851C412.293 24.2503 412.591 23.556 412.868 22.8022C412.313 22.2864 411.896 21.7309 411.619 21.1358C411.381 20.501 411.202 19.8861 411.083 19.291C410.964 18.6562 410.865 18.0214 410.786 17.3866C410.706 16.7121 410.567 16.0377 410.369 15.3632C410.766 14.7681 411.242 14.292 411.797 13.9349C412.392 13.5382 413.027 13.2208 413.702 12.9827C414.376 12.7447 415.11 12.5463 415.904 12.3876C416.697 12.2289 417.53 12.0504 418.403 11.852C419.99 11.3362 421.398 10.9395 422.628 10.6618C423.898 10.3841 425.128 10.1658 426.318 10.0071C427.548 9.80878 428.818 9.63024 430.127 9.47154C431.436 9.31284 432.924 9.0748 434.59 8.7574C434.947 9.11447 435.285 9.29301 435.602 9.29301C435.761 8.93594 435.939 8.83675 436.138 8.99545C436.376 9.11447 436.475 8.99545 436.435 8.63838C436.832 9.31284 437.328 9.88812 437.923 10.3642C438.558 10.8006 439.252 11.1775 440.006 11.4949ZM439.53 18.2198C439.807 17.3866 440.244 16.6725 440.839 16.0773C441.474 15.4822 442.148 14.9863 442.862 14.5895C443.616 14.1531 444.39 13.7961 445.183 13.5183C445.977 13.2406 446.731 13.0026 447.445 12.8042C449.032 12.1297 450.718 11.4949 452.503 10.8998C454.328 10.265 456.173 9.70959 458.038 9.2335C459.942 8.7574 461.886 8.45984 463.87 8.34082C465.854 8.18212 467.937 8.42017 470.119 9.05496C470.238 9.45171 470.416 9.82861 470.654 10.1857C470.892 10.5428 471.13 10.8998 471.368 11.2569C471.646 11.614 471.884 11.971 472.083 12.3281C472.281 12.6455 472.4 12.9827 472.44 13.3398C472.836 13.6969 473.154 14.0936 473.392 14.53C473.63 14.9268 473.67 15.4624 473.511 16.1368C473.114 16.4542 472.717 16.7518 472.321 17.0295C471.964 17.2676 471.567 17.4858 471.13 17.6842C469.662 17.3271 468.175 17.2081 466.667 17.3271C465.159 17.4461 463.81 17.5453 462.62 17.6246C462.263 17.2676 461.827 17.089 461.311 17.089C460.835 17.089 460.319 17.1684 459.764 17.3271C459.248 17.4858 458.712 17.6445 458.157 17.8032C457.641 17.9619 457.145 18.0015 456.669 17.9222C456.272 18.2396 455.776 18.4578 455.181 18.5768C454.626 18.6562 454.011 18.7355 453.336 18.8149C453.297 19.0132 453.336 19.1521 453.455 19.2315C453.574 19.2711 453.594 19.3902 453.515 19.5885C453.753 19.8662 454.051 20.0646 454.408 20.1836C454.804 20.3027 455.201 20.4217 455.598 20.5407C456.034 20.6597 456.411 20.8184 456.729 21.0168C457.046 21.1755 457.264 21.4532 457.383 21.85C457.978 21.85 458.494 21.9888 458.93 22.2665C459.367 22.5443 459.724 22.8815 460.002 23.2782C460.279 23.675 460.478 24.1114 460.597 24.5875C460.755 25.0239 460.835 25.4207 460.835 25.7777C460.954 26.0951 461.093 26.234 461.251 26.1943C461.41 26.1546 461.589 26.234 461.787 26.4324C461.906 26.9481 462.204 27.4837 462.68 28.0392C463.156 28.5549 463.533 29.1302 463.81 29.765C463.89 30.7569 463.949 31.6496 463.989 32.443C464.029 33.1969 463.89 33.9705 463.572 34.764C462.977 36.2319 462.144 37.5412 461.073 38.6918C460.041 39.8423 458.851 40.8739 457.502 41.7864C456.193 42.6592 454.784 43.413 453.277 44.0478C451.769 44.6826 450.301 45.2182 448.873 45.6546C448.714 45.615 448.556 45.615 448.397 45.6546C448.238 45.6943 448.199 45.5951 448.278 45.3571C447.96 45.6348 447.603 45.8133 447.207 45.8927C446.85 45.972 446.453 45.9919 446.016 45.9522C445.58 45.9522 445.124 45.9323 444.648 45.8927C444.211 45.853 443.795 45.8728 443.398 45.9522C443.12 45.6745 442.862 45.3967 442.624 45.119C442.426 44.881 442.267 44.5636 442.148 44.1668C441.95 44.1668 441.851 44.0677 441.851 43.8693C441.89 43.6709 441.831 43.5717 441.672 43.5717C441.91 43.175 442.009 42.9568 441.97 42.9171C441.97 42.8377 441.91 42.7782 441.791 42.7386C441.712 42.6989 441.632 42.6592 441.553 42.6195C441.474 42.5402 441.454 42.441 441.494 42.322C441.652 42.0046 441.712 41.6475 441.672 41.2508C441.632 40.8143 441.593 40.3779 441.553 39.9415C441.513 39.5051 441.533 39.0885 441.613 38.6918C441.732 38.295 442.029 37.9776 442.505 37.7396C443.854 37.8983 445.124 37.8586 446.314 37.6206C447.544 37.3428 448.694 36.9659 449.766 36.4898C450.837 36.0137 451.849 35.498 452.801 34.9425C453.793 34.3871 454.765 33.8912 455.717 33.4547C455.836 33.0977 455.995 32.8001 456.193 32.5621C456.431 32.324 456.669 32.1058 456.907 31.9074C457.145 31.7091 457.363 31.4909 457.562 31.2528C457.76 31.0148 457.899 30.7172 457.978 30.3601C458.018 30.0824 457.939 29.9237 457.74 29.884C457.582 29.8047 457.502 29.646 457.502 29.4079L456.848 29.2294C456.094 28.793 455.241 28.4359 454.289 28.1582C453.336 27.8408 452.523 27.5036 451.849 27.1465C451.412 27.3846 450.996 27.4441 450.599 27.325C450.242 27.206 449.766 27.087 449.171 26.968C447.822 26.8886 446.512 26.7498 445.243 26.5514C444.013 26.353 442.823 25.9959 441.672 25.4802C441.593 25.2818 441.494 25.1033 441.375 24.9446C441.256 24.7859 441.037 24.7462 440.72 24.8255C440.482 24.5082 440.244 24.2106 440.006 23.9329C439.768 23.6155 439.55 23.2782 439.351 22.9212C439.43 22.4451 439.49 22.0483 439.53 21.7309C439.569 21.3739 439.45 21.0366 439.173 20.7192C439.331 20.2035 439.45 19.7869 439.53 19.4695C439.609 19.1521 439.609 18.7355 439.53 18.2198Z" fill="white"/>
</svg>
