<svg width="978" height="427" viewBox="0 0 978 427" fill="none" xmlns="http://www.w3.org/2000/svg">
<rect width="978" height="427" rx="20" fill="#F4F4F4"/>
<rect x="49" y="235" width="105" height="202" rx="15" transform="rotate(-90 49 235)" fill="#FF4C00"/>
<path d="M111.652 185.193H106.334V183.047H111.652C112.682 183.047 113.516 182.883 114.154 182.555C114.792 182.227 115.257 181.771 115.549 181.188C115.85 180.604 116 179.939 116 179.191C116 178.508 115.85 177.865 115.549 177.264C115.257 176.662 114.792 176.179 114.154 175.814C113.516 175.441 112.682 175.254 111.652 175.254H106.949V193H104.311V173.094H111.652C113.156 173.094 114.428 173.354 115.467 173.873C116.506 174.393 117.294 175.113 117.832 176.033C118.37 176.945 118.639 177.988 118.639 179.164C118.639 180.44 118.37 181.529 117.832 182.432C117.294 183.334 116.506 184.022 115.467 184.496C114.428 184.961 113.156 185.193 111.652 185.193ZM124.121 180.531V193H121.592V178.207H124.053L124.121 180.531ZM128.742 178.125L128.729 180.477C128.519 180.431 128.318 180.404 128.127 180.395C127.945 180.376 127.735 180.367 127.498 180.367C126.915 180.367 126.4 180.458 125.953 180.641C125.507 180.823 125.128 181.078 124.818 181.406C124.508 181.734 124.262 182.126 124.08 182.582C123.907 183.029 123.793 183.521 123.738 184.059L123.027 184.469C123.027 183.576 123.114 182.737 123.287 181.953C123.469 181.169 123.747 180.477 124.121 179.875C124.495 179.264 124.969 178.79 125.543 178.453C126.126 178.107 126.819 177.934 127.621 177.934C127.803 177.934 128.013 177.956 128.25 178.002C128.487 178.038 128.651 178.079 128.742 178.125ZM133.828 178.207V193H131.285V178.207H133.828ZM131.094 174.283C131.094 173.873 131.217 173.527 131.463 173.244C131.718 172.962 132.092 172.82 132.584 172.82C133.067 172.82 133.436 172.962 133.691 173.244C133.956 173.527 134.088 173.873 134.088 174.283C134.088 174.675 133.956 175.012 133.691 175.295C133.436 175.568 133.067 175.705 132.584 175.705C132.092 175.705 131.718 175.568 131.463 175.295C131.217 175.012 131.094 174.675 131.094 174.283ZM140.404 181.146V193H137.861V178.207H140.268L140.404 181.146ZM139.885 185.043L138.709 185.002C138.718 183.99 138.85 183.056 139.105 182.199C139.361 181.333 139.739 180.581 140.24 179.943C140.742 179.305 141.366 178.813 142.113 178.467C142.861 178.111 143.727 177.934 144.711 177.934C145.404 177.934 146.042 178.034 146.625 178.234C147.208 178.426 147.714 178.731 148.143 179.15C148.571 179.57 148.904 180.107 149.141 180.764C149.378 181.42 149.496 182.213 149.496 183.143V193H146.967V183.266C146.967 182.491 146.835 181.871 146.57 181.406C146.315 180.941 145.951 180.604 145.477 180.395C145.003 180.176 144.447 180.066 143.809 180.066C143.061 180.066 142.437 180.199 141.936 180.463C141.434 180.727 141.033 181.092 140.732 181.557C140.432 182.021 140.213 182.555 140.076 183.156C139.949 183.749 139.885 184.378 139.885 185.043ZM149.469 183.648L147.773 184.168C147.783 183.357 147.915 182.577 148.17 181.83C148.434 181.083 148.812 180.417 149.305 179.834C149.806 179.251 150.421 178.79 151.15 178.453C151.88 178.107 152.714 177.934 153.652 177.934C154.445 177.934 155.147 178.038 155.758 178.248C156.378 178.458 156.897 178.781 157.316 179.219C157.745 179.647 158.068 180.199 158.287 180.873C158.506 181.548 158.615 182.35 158.615 183.279V193H156.072V183.252C156.072 182.423 155.94 181.78 155.676 181.324C155.421 180.859 155.056 180.536 154.582 180.354C154.117 180.162 153.561 180.066 152.914 180.066C152.358 180.066 151.866 180.162 151.438 180.354C151.009 180.545 150.649 180.809 150.357 181.146C150.066 181.475 149.842 181.853 149.688 182.281C149.542 182.71 149.469 183.165 149.469 183.648ZM171.166 190.471V182.855C171.166 182.272 171.048 181.766 170.811 181.338C170.583 180.9 170.236 180.563 169.771 180.326C169.307 180.089 168.732 179.971 168.049 179.971C167.411 179.971 166.85 180.08 166.367 180.299C165.893 180.518 165.52 180.805 165.246 181.16C164.982 181.516 164.85 181.898 164.85 182.309H162.32C162.32 181.78 162.457 181.256 162.73 180.736C163.004 180.217 163.396 179.747 163.906 179.328C164.426 178.9 165.046 178.562 165.766 178.316C166.495 178.061 167.306 177.934 168.199 177.934C169.275 177.934 170.223 178.116 171.043 178.48C171.872 178.845 172.52 179.396 172.984 180.135C173.458 180.864 173.695 181.78 173.695 182.883V189.773C173.695 190.266 173.736 190.79 173.818 191.346C173.91 191.902 174.042 192.38 174.215 192.781V193H171.576C171.449 192.708 171.348 192.321 171.275 191.838C171.202 191.346 171.166 190.89 171.166 190.471ZM171.604 184.031L171.631 185.809H169.074C168.354 185.809 167.712 185.868 167.146 185.986C166.581 186.096 166.107 186.264 165.725 186.492C165.342 186.72 165.05 187.007 164.85 187.354C164.649 187.691 164.549 188.087 164.549 188.543C164.549 189.008 164.654 189.432 164.863 189.814C165.073 190.197 165.387 190.503 165.807 190.73C166.235 190.949 166.759 191.059 167.379 191.059C168.154 191.059 168.837 190.895 169.43 190.566C170.022 190.238 170.492 189.837 170.838 189.363C171.193 188.889 171.385 188.429 171.412 187.982L172.492 189.199C172.428 189.582 172.255 190.006 171.973 190.471C171.69 190.936 171.312 191.382 170.838 191.811C170.373 192.23 169.817 192.581 169.17 192.863C168.532 193.137 167.812 193.273 167.01 193.273C166.007 193.273 165.128 193.077 164.371 192.686C163.624 192.294 163.04 191.77 162.621 191.113C162.211 190.448 162.006 189.705 162.006 188.885C162.006 188.092 162.161 187.395 162.471 186.793C162.781 186.182 163.227 185.676 163.811 185.275C164.394 184.865 165.096 184.555 165.916 184.346C166.736 184.136 167.652 184.031 168.664 184.031H171.604ZM180.203 180.531V193H177.674V178.207H180.135L180.203 180.531ZM184.824 178.125L184.811 180.477C184.601 180.431 184.4 180.404 184.209 180.395C184.027 180.376 183.817 180.367 183.58 180.367C182.997 180.367 182.482 180.458 182.035 180.641C181.589 180.823 181.21 181.078 180.9 181.406C180.59 181.734 180.344 182.126 180.162 182.582C179.989 183.029 179.875 183.521 179.82 184.059L179.109 184.469C179.109 183.576 179.196 182.737 179.369 181.953C179.551 181.169 179.829 180.477 180.203 179.875C180.577 179.264 181.051 178.79 181.625 178.453C182.208 178.107 182.901 177.934 183.703 177.934C183.885 177.934 184.095 177.956 184.332 178.002C184.569 178.038 184.733 178.079 184.824 178.125ZM191.564 191.469L195.68 178.207H198.387L192.453 195.283C192.316 195.648 192.134 196.04 191.906 196.459C191.688 196.887 191.405 197.293 191.059 197.676C190.712 198.059 190.293 198.368 189.801 198.605C189.318 198.852 188.739 198.975 188.064 198.975C187.864 198.975 187.609 198.947 187.299 198.893C186.989 198.838 186.77 198.792 186.643 198.756L186.629 196.705C186.702 196.714 186.816 196.723 186.971 196.732C187.135 196.751 187.249 196.76 187.312 196.76C187.887 196.76 188.374 196.682 188.775 196.527C189.176 196.382 189.514 196.131 189.787 195.775C190.07 195.429 190.311 194.951 190.512 194.34L191.564 191.469ZM188.543 178.207L192.385 189.691L193.041 192.357L191.223 193.287L185.781 178.207H188.543Z" fill="white"/>
<path d="M111.426 275L113.906 260.781H115.674L113.193 275H111.426ZM115.088 275L117.578 260.781H119.346L116.855 275H115.088ZM120.801 266.494H110.635V264.844H120.801V266.494ZM120.059 270.996H109.902V269.355H120.059V270.996ZM125.381 260.781V275H122.451V260.781H125.381ZM131.045 266.855V269.141H124.58V266.855H131.045ZM131.729 260.781V263.076H124.58V260.781H131.729ZM136.357 260.781V275H133.428V260.781H136.357ZM142.021 266.855V269.141H135.557V266.855H142.021ZM142.705 260.781V263.076H135.557V260.781H142.705ZM154.072 269.688V271.895H143.828L143.691 270.186L149.619 260.781H151.855L149.434 264.834L146.484 269.688H154.072ZM152.461 260.781V275H149.648V260.781H152.461ZM164.131 270.283H167.051C166.992 271.24 166.729 272.09 166.26 272.832C165.798 273.574 165.15 274.154 164.316 274.57C163.49 274.987 162.493 275.195 161.328 275.195C160.417 275.195 159.6 275.039 158.877 274.727C158.154 274.408 157.536 273.952 157.021 273.359C156.514 272.767 156.126 272.051 155.859 271.211C155.592 270.371 155.459 269.43 155.459 268.389V267.402C155.459 266.361 155.596 265.42 155.869 264.58C156.149 263.734 156.546 263.014 157.061 262.422C157.581 261.829 158.203 261.374 158.926 261.055C159.648 260.736 160.456 260.576 161.348 260.576C162.533 260.576 163.532 260.791 164.346 261.221C165.166 261.65 165.801 262.243 166.25 262.998C166.706 263.753 166.979 264.613 167.07 265.576H164.141C164.108 265.003 163.994 264.518 163.799 264.121C163.604 263.717 163.307 263.415 162.91 263.213C162.52 263.005 161.999 262.9 161.348 262.9C160.859 262.9 160.433 262.992 160.068 263.174C159.704 263.356 159.398 263.633 159.15 264.004C158.903 264.375 158.717 264.844 158.594 265.41C158.477 265.97 158.418 266.628 158.418 267.383V268.389C158.418 269.124 158.473 269.772 158.584 270.332C158.695 270.885 158.864 271.354 159.092 271.738C159.326 272.116 159.626 272.402 159.99 272.598C160.361 272.786 160.807 272.881 161.328 272.881C161.94 272.881 162.445 272.783 162.842 272.588C163.239 272.393 163.542 272.103 163.75 271.719C163.965 271.335 164.092 270.856 164.131 270.283ZM178.252 266.641V269.102C178.252 270.169 178.138 271.09 177.91 271.865C177.682 272.633 177.354 273.265 176.924 273.76C176.501 274.248 175.996 274.609 175.41 274.844C174.824 275.078 174.173 275.195 173.457 275.195C172.884 275.195 172.35 275.124 171.855 274.98C171.361 274.831 170.915 274.6 170.518 274.287C170.127 273.975 169.788 273.581 169.502 273.105C169.222 272.624 169.007 272.051 168.857 271.387C168.708 270.723 168.633 269.961 168.633 269.102V266.641C168.633 265.573 168.747 264.658 168.975 263.896C169.209 263.128 169.538 262.5 169.961 262.012C170.391 261.523 170.898 261.165 171.484 260.938C172.07 260.703 172.721 260.586 173.438 260.586C174.01 260.586 174.541 260.661 175.029 260.811C175.524 260.954 175.97 261.178 176.367 261.484C176.764 261.79 177.103 262.184 177.383 262.666C177.663 263.141 177.878 263.711 178.027 264.375C178.177 265.033 178.252 265.788 178.252 266.641ZM175.43 269.473V266.26C175.43 265.745 175.4 265.296 175.342 264.912C175.29 264.528 175.208 264.202 175.098 263.936C174.987 263.662 174.85 263.441 174.688 263.271C174.525 263.102 174.339 262.979 174.131 262.9C173.923 262.822 173.691 262.783 173.438 262.783C173.118 262.783 172.835 262.845 172.588 262.969C172.347 263.092 172.142 263.291 171.973 263.564C171.803 263.831 171.673 264.189 171.582 264.639C171.497 265.081 171.455 265.622 171.455 266.26V269.473C171.455 269.987 171.481 270.439 171.533 270.83C171.592 271.221 171.676 271.556 171.787 271.836C171.904 272.109 172.041 272.334 172.197 272.51C172.36 272.679 172.546 272.803 172.754 272.881C172.969 272.959 173.203 272.998 173.457 272.998C173.77 272.998 174.046 272.936 174.287 272.812C174.535 272.682 174.743 272.48 174.912 272.207C175.088 271.927 175.218 271.562 175.303 271.113C175.387 270.664 175.43 270.117 175.43 269.473ZM189.736 266.641V269.102C189.736 270.169 189.622 271.09 189.395 271.865C189.167 272.633 188.838 273.265 188.408 273.76C187.985 274.248 187.48 274.609 186.895 274.844C186.309 275.078 185.658 275.195 184.941 275.195C184.368 275.195 183.835 275.124 183.34 274.98C182.845 274.831 182.399 274.6 182.002 274.287C181.611 273.975 181.273 273.581 180.986 273.105C180.706 272.624 180.492 272.051 180.342 271.387C180.192 270.723 180.117 269.961 180.117 269.102V266.641C180.117 265.573 180.231 264.658 180.459 263.896C180.693 263.128 181.022 262.5 181.445 262.012C181.875 261.523 182.383 261.165 182.969 260.938C183.555 260.703 184.206 260.586 184.922 260.586C185.495 260.586 186.025 260.661 186.514 260.811C187.008 260.954 187.454 261.178 187.852 261.484C188.249 261.79 188.587 262.184 188.867 262.666C189.147 263.141 189.362 263.711 189.512 264.375C189.661 265.033 189.736 265.788 189.736 266.641ZM186.914 269.473V266.26C186.914 265.745 186.885 265.296 186.826 264.912C186.774 264.528 186.693 264.202 186.582 263.936C186.471 263.662 186.335 263.441 186.172 263.271C186.009 263.102 185.824 262.979 185.615 262.9C185.407 262.822 185.176 262.783 184.922 262.783C184.603 262.783 184.32 262.845 184.072 262.969C183.831 263.092 183.626 263.291 183.457 263.564C183.288 263.831 183.158 264.189 183.066 264.639C182.982 265.081 182.939 265.622 182.939 266.26V269.473C182.939 269.987 182.965 270.439 183.018 270.83C183.076 271.221 183.161 271.556 183.271 271.836C183.389 272.109 183.525 272.334 183.682 272.51C183.844 272.679 184.03 272.803 184.238 272.881C184.453 272.959 184.688 272.998 184.941 272.998C185.254 272.998 185.531 272.936 185.771 272.812C186.019 272.682 186.227 272.48 186.396 272.207C186.572 271.927 186.702 271.562 186.787 271.113C186.872 270.664 186.914 270.117 186.914 269.473Z" fill="black"/>
<rect x="44" y="353" width="25" height="53" transform="rotate(-90 44 353)" fill="#FF4C00"/>
<rect x="97" y="353" width="25" height="53" transform="rotate(-90 97 353)" fill="#F13D00"/>
<rect x="150" y="353" width="25" height="53" transform="rotate(-90 150 353)" fill="#FF9574"/>
<rect x="203" y="353" width="25" height="53" transform="rotate(-90 203 353)" fill="#FFD5C8"/>
<rect x="388" y="235" width="105" height="202" rx="15" transform="rotate(-90 388 235)" fill="black"/>
<path d="M438.92 186.969C438.92 186.504 438.847 186.094 438.701 185.738C438.564 185.374 438.318 185.046 437.963 184.754C437.617 184.462 437.133 184.184 436.514 183.92C435.903 183.656 435.128 183.387 434.189 183.113C433.205 182.822 432.316 182.498 431.523 182.143C430.73 181.778 430.051 181.363 429.486 180.898C428.921 180.434 428.488 179.9 428.188 179.299C427.887 178.697 427.736 178.009 427.736 177.234C427.736 176.46 427.896 175.744 428.215 175.088C428.534 174.432 428.99 173.862 429.582 173.379C430.184 172.887 430.899 172.504 431.729 172.23C432.558 171.957 433.483 171.82 434.504 171.82C435.999 171.82 437.266 172.107 438.305 172.682C439.353 173.247 440.15 173.99 440.697 174.91C441.244 175.822 441.518 176.797 441.518 177.836H438.893C438.893 177.089 438.733 176.428 438.414 175.854C438.095 175.27 437.612 174.814 436.965 174.486C436.318 174.149 435.497 173.98 434.504 173.98C433.565 173.98 432.79 174.122 432.18 174.404C431.569 174.687 431.113 175.07 430.812 175.553C430.521 176.036 430.375 176.587 430.375 177.207C430.375 177.626 430.462 178.009 430.635 178.355C430.817 178.693 431.095 179.007 431.469 179.299C431.852 179.59 432.335 179.859 432.918 180.105C433.51 180.352 434.217 180.589 435.037 180.816C436.167 181.135 437.143 181.491 437.963 181.883C438.783 182.275 439.458 182.717 439.986 183.209C440.524 183.692 440.921 184.243 441.176 184.863C441.44 185.474 441.572 186.167 441.572 186.941C441.572 187.753 441.408 188.486 441.08 189.143C440.752 189.799 440.283 190.359 439.672 190.824C439.061 191.289 438.327 191.649 437.471 191.904C436.623 192.15 435.675 192.273 434.627 192.273C433.706 192.273 432.799 192.146 431.906 191.891C431.022 191.635 430.215 191.253 429.486 190.742C428.766 190.232 428.188 189.603 427.75 188.855C427.322 188.099 427.107 187.224 427.107 186.23H429.732C429.732 186.914 429.865 187.502 430.129 187.994C430.393 188.477 430.753 188.878 431.209 189.197C431.674 189.516 432.198 189.753 432.781 189.908C433.374 190.054 433.989 190.127 434.627 190.127C435.548 190.127 436.327 189.999 436.965 189.744C437.603 189.489 438.086 189.124 438.414 188.65C438.751 188.176 438.92 187.616 438.92 186.969ZM450.691 192.273C449.661 192.273 448.727 192.1 447.889 191.754C447.059 191.398 446.344 190.902 445.742 190.264C445.15 189.626 444.694 188.869 444.375 187.994C444.056 187.119 443.896 186.162 443.896 185.123V184.549C443.896 183.346 444.074 182.275 444.43 181.336C444.785 180.388 445.268 179.586 445.879 178.93C446.49 178.273 447.182 177.777 447.957 177.439C448.732 177.102 449.534 176.934 450.363 176.934C451.421 176.934 452.332 177.116 453.098 177.48C453.872 177.845 454.506 178.355 454.998 179.012C455.49 179.659 455.855 180.424 456.092 181.309C456.329 182.184 456.447 183.141 456.447 184.18V185.314H445.4V183.25H453.918V183.059C453.882 182.402 453.745 181.764 453.508 181.145C453.28 180.525 452.915 180.014 452.414 179.613C451.913 179.212 451.229 179.012 450.363 179.012C449.789 179.012 449.26 179.135 448.777 179.381C448.294 179.618 447.88 179.973 447.533 180.447C447.187 180.921 446.918 181.5 446.727 182.184C446.535 182.867 446.439 183.656 446.439 184.549V185.123C446.439 185.825 446.535 186.486 446.727 187.105C446.927 187.716 447.214 188.254 447.588 188.719C447.971 189.184 448.431 189.548 448.969 189.812C449.516 190.077 450.135 190.209 450.828 190.209C451.721 190.209 452.478 190.027 453.098 189.662C453.717 189.298 454.26 188.81 454.725 188.199L456.256 189.416C455.937 189.899 455.531 190.359 455.039 190.797C454.547 191.234 453.941 191.59 453.221 191.863C452.51 192.137 451.667 192.273 450.691 192.273ZM465.32 190.195C465.922 190.195 466.478 190.072 466.988 189.826C467.499 189.58 467.918 189.243 468.246 188.814C468.574 188.377 468.761 187.88 468.807 187.324H471.213C471.167 188.199 470.871 189.015 470.324 189.771C469.786 190.519 469.08 191.125 468.205 191.59C467.33 192.046 466.368 192.273 465.32 192.273C464.208 192.273 463.238 192.077 462.408 191.686C461.588 191.294 460.904 190.756 460.357 190.072C459.82 189.389 459.414 188.605 459.141 187.721C458.876 186.827 458.744 185.884 458.744 184.891V184.316C458.744 183.323 458.876 182.384 459.141 181.5C459.414 180.607 459.82 179.818 460.357 179.135C460.904 178.451 461.588 177.913 462.408 177.521C463.238 177.13 464.208 176.934 465.32 176.934C466.478 176.934 467.49 177.171 468.355 177.645C469.221 178.109 469.9 178.747 470.393 179.559C470.894 180.361 471.167 181.272 471.213 182.293H468.807C468.761 181.682 468.588 181.131 468.287 180.639C467.995 180.146 467.594 179.755 467.084 179.463C466.583 179.162 465.995 179.012 465.32 179.012C464.546 179.012 463.894 179.167 463.365 179.477C462.846 179.777 462.431 180.188 462.121 180.707C461.82 181.217 461.602 181.787 461.465 182.416C461.337 183.036 461.273 183.669 461.273 184.316V184.891C461.273 185.538 461.337 186.176 461.465 186.805C461.592 187.434 461.807 188.003 462.107 188.514C462.417 189.024 462.832 189.434 463.352 189.744C463.88 190.045 464.536 190.195 465.32 190.195ZM473.387 184.768V184.453C473.387 183.387 473.542 182.398 473.852 181.486C474.161 180.566 474.608 179.768 475.191 179.094C475.775 178.41 476.481 177.882 477.311 177.508C478.14 177.125 479.07 176.934 480.1 176.934C481.139 176.934 482.073 177.125 482.902 177.508C483.741 177.882 484.452 178.41 485.035 179.094C485.628 179.768 486.079 180.566 486.389 181.486C486.699 182.398 486.854 183.387 486.854 184.453V184.768C486.854 185.834 486.699 186.823 486.389 187.734C486.079 188.646 485.628 189.443 485.035 190.127C484.452 190.801 483.745 191.33 482.916 191.713C482.096 192.087 481.166 192.273 480.127 192.273C479.088 192.273 478.154 192.087 477.324 191.713C476.495 191.33 475.784 190.801 475.191 190.127C474.608 189.443 474.161 188.646 473.852 187.734C473.542 186.823 473.387 185.834 473.387 184.768ZM475.916 184.453V184.768C475.916 185.506 476.003 186.203 476.176 186.859C476.349 187.507 476.609 188.081 476.955 188.582C477.311 189.083 477.753 189.48 478.281 189.771C478.81 190.054 479.425 190.195 480.127 190.195C480.82 190.195 481.426 190.054 481.945 189.771C482.474 189.48 482.911 189.083 483.258 188.582C483.604 188.081 483.864 187.507 484.037 186.859C484.219 186.203 484.311 185.506 484.311 184.768V184.453C484.311 183.724 484.219 183.036 484.037 182.389C483.864 181.732 483.6 181.154 483.244 180.652C482.898 180.142 482.46 179.741 481.932 179.449C481.412 179.158 480.801 179.012 480.1 179.012C479.407 179.012 478.796 179.158 478.268 179.449C477.748 179.741 477.311 180.142 476.955 180.652C476.609 181.154 476.349 181.732 476.176 182.389C476.003 183.036 475.916 183.724 475.916 184.453ZM492.555 180.365V192H490.025V177.207H492.418L492.555 180.365ZM491.953 184.043L490.9 184.002C490.91 182.99 491.06 182.056 491.352 181.199C491.643 180.333 492.053 179.581 492.582 178.943C493.111 178.305 493.74 177.813 494.469 177.467C495.207 177.111 496.023 176.934 496.916 176.934C497.645 176.934 498.301 177.034 498.885 177.234C499.468 177.426 499.965 177.736 500.375 178.164C500.794 178.592 501.113 179.148 501.332 179.832C501.551 180.507 501.66 181.331 501.66 182.307V192H499.117V182.279C499.117 181.505 499.003 180.885 498.775 180.42C498.548 179.946 498.215 179.604 497.777 179.395C497.34 179.176 496.802 179.066 496.164 179.066C495.535 179.066 494.961 179.199 494.441 179.463C493.931 179.727 493.489 180.092 493.115 180.557C492.751 181.021 492.464 181.555 492.254 182.156C492.053 182.749 491.953 183.378 491.953 184.043ZM514.826 189.129V171H517.369V192H515.045L514.826 189.129ZM504.873 184.768V184.48C504.873 183.35 505.01 182.325 505.283 181.404C505.566 180.475 505.962 179.677 506.473 179.012C506.992 178.346 507.607 177.836 508.318 177.48C509.038 177.116 509.84 176.934 510.725 176.934C511.654 176.934 512.465 177.098 513.158 177.426C513.86 177.745 514.452 178.214 514.936 178.834C515.428 179.445 515.815 180.183 516.098 181.049C516.38 181.915 516.576 182.895 516.686 183.988V185.246C516.585 186.331 516.389 187.306 516.098 188.172C515.815 189.038 515.428 189.776 514.936 190.387C514.452 190.997 513.86 191.467 513.158 191.795C512.456 192.114 511.636 192.273 510.697 192.273C509.831 192.273 509.038 192.087 508.318 191.713C507.607 191.339 506.992 190.815 506.473 190.141C505.962 189.466 505.566 188.673 505.283 187.762C505.01 186.841 504.873 185.843 504.873 184.768ZM507.416 184.48V184.768C507.416 185.506 507.489 186.199 507.635 186.846C507.79 187.493 508.027 188.062 508.346 188.555C508.665 189.047 509.07 189.434 509.562 189.717C510.055 189.99 510.643 190.127 511.326 190.127C512.165 190.127 512.853 189.949 513.391 189.594C513.938 189.238 514.375 188.769 514.703 188.186C515.031 187.602 515.286 186.969 515.469 186.285V182.99C515.359 182.489 515.2 182.006 514.99 181.541C514.79 181.067 514.525 180.648 514.197 180.283C513.878 179.91 513.482 179.613 513.008 179.395C512.543 179.176 511.992 179.066 511.354 179.066C510.661 179.066 510.064 179.212 509.562 179.504C509.07 179.786 508.665 180.178 508.346 180.68C508.027 181.172 507.79 181.746 507.635 182.402C507.489 183.049 507.416 183.742 507.416 184.48ZM530.029 189.471V181.855C530.029 181.272 529.911 180.766 529.674 180.338C529.446 179.9 529.1 179.563 528.635 179.326C528.17 179.089 527.596 178.971 526.912 178.971C526.274 178.971 525.714 179.08 525.23 179.299C524.757 179.518 524.383 179.805 524.109 180.16C523.845 180.516 523.713 180.898 523.713 181.309H521.184C521.184 180.78 521.32 180.256 521.594 179.736C521.867 179.217 522.259 178.747 522.77 178.328C523.289 177.9 523.909 177.562 524.629 177.316C525.358 177.061 526.169 176.934 527.062 176.934C528.138 176.934 529.086 177.116 529.906 177.48C530.736 177.845 531.383 178.396 531.848 179.135C532.322 179.864 532.559 180.78 532.559 181.883V188.773C532.559 189.266 532.6 189.79 532.682 190.346C532.773 190.902 532.905 191.38 533.078 191.781V192H530.439C530.312 191.708 530.212 191.321 530.139 190.838C530.066 190.346 530.029 189.89 530.029 189.471ZM530.467 183.031L530.494 184.809H527.938C527.217 184.809 526.575 184.868 526.01 184.986C525.445 185.096 524.971 185.264 524.588 185.492C524.205 185.72 523.913 186.007 523.713 186.354C523.512 186.691 523.412 187.087 523.412 187.543C523.412 188.008 523.517 188.432 523.727 188.814C523.936 189.197 524.251 189.503 524.67 189.73C525.098 189.949 525.622 190.059 526.242 190.059C527.017 190.059 527.701 189.895 528.293 189.566C528.885 189.238 529.355 188.837 529.701 188.363C530.057 187.889 530.248 187.429 530.275 186.982L531.355 188.199C531.292 188.582 531.118 189.006 530.836 189.471C530.553 189.936 530.175 190.382 529.701 190.811C529.236 191.23 528.68 191.581 528.033 191.863C527.395 192.137 526.675 192.273 525.873 192.273C524.87 192.273 523.991 192.077 523.234 191.686C522.487 191.294 521.904 190.77 521.484 190.113C521.074 189.448 520.869 188.705 520.869 187.885C520.869 187.092 521.024 186.395 521.334 185.793C521.644 185.182 522.09 184.676 522.674 184.275C523.257 183.865 523.959 183.555 524.779 183.346C525.6 183.136 526.516 183.031 527.527 183.031H530.467ZM539.066 179.531V192H536.537V177.207H538.998L539.066 179.531ZM543.688 177.125L543.674 179.477C543.464 179.431 543.264 179.404 543.072 179.395C542.89 179.376 542.68 179.367 542.443 179.367C541.86 179.367 541.345 179.458 540.898 179.641C540.452 179.823 540.074 180.078 539.764 180.406C539.454 180.734 539.208 181.126 539.025 181.582C538.852 182.029 538.738 182.521 538.684 183.059L537.973 183.469C537.973 182.576 538.059 181.737 538.232 180.953C538.415 180.169 538.693 179.477 539.066 178.875C539.44 178.264 539.914 177.79 540.488 177.453C541.072 177.107 541.764 176.934 542.566 176.934C542.749 176.934 542.958 176.956 543.195 177.002C543.432 177.038 543.596 177.079 543.688 177.125ZM550.428 190.469L554.543 177.207H557.25L551.316 194.283C551.18 194.648 550.997 195.04 550.77 195.459C550.551 195.887 550.268 196.293 549.922 196.676C549.576 197.059 549.156 197.368 548.664 197.605C548.181 197.852 547.602 197.975 546.928 197.975C546.727 197.975 546.472 197.947 546.162 197.893C545.852 197.838 545.633 197.792 545.506 197.756L545.492 195.705C545.565 195.714 545.679 195.723 545.834 195.732C545.998 195.751 546.112 195.76 546.176 195.76C546.75 195.76 547.238 195.682 547.639 195.527C548.04 195.382 548.377 195.131 548.65 194.775C548.933 194.429 549.174 193.951 549.375 193.34L550.428 190.469ZM547.406 177.207L551.248 188.691L551.904 191.357L550.086 192.287L544.645 177.207H547.406Z" fill="white"/>
<path d="M450.719 275L453.199 260.781H454.967L452.486 275H450.719ZM454.381 275L456.871 260.781H458.639L456.148 275H454.381ZM460.094 266.494H449.928V264.844H460.094V266.494ZM459.352 270.996H449.195V269.355H459.352V270.996ZM471.021 266.641V269.102C471.021 270.169 470.908 271.09 470.68 271.865C470.452 272.633 470.123 273.265 469.693 273.76C469.27 274.248 468.766 274.609 468.18 274.844C467.594 275.078 466.943 275.195 466.227 275.195C465.654 275.195 465.12 275.124 464.625 274.98C464.13 274.831 463.684 274.6 463.287 274.287C462.896 273.975 462.558 273.581 462.271 273.105C461.992 272.624 461.777 272.051 461.627 271.387C461.477 270.723 461.402 269.961 461.402 269.102V266.641C461.402 265.573 461.516 264.658 461.744 263.896C461.979 263.128 462.307 262.5 462.73 262.012C463.16 261.523 463.668 261.165 464.254 260.938C464.84 260.703 465.491 260.586 466.207 260.586C466.78 260.586 467.311 260.661 467.799 260.811C468.294 260.954 468.74 261.178 469.137 261.484C469.534 261.79 469.872 262.184 470.152 262.666C470.432 263.141 470.647 263.711 470.797 264.375C470.947 265.033 471.021 265.788 471.021 266.641ZM468.199 269.473V266.26C468.199 265.745 468.17 265.296 468.111 264.912C468.059 264.528 467.978 264.202 467.867 263.936C467.757 263.662 467.62 263.441 467.457 263.271C467.294 263.102 467.109 262.979 466.9 262.9C466.692 262.822 466.461 262.783 466.207 262.783C465.888 262.783 465.605 262.845 465.357 262.969C465.117 263.092 464.911 263.291 464.742 263.564C464.573 263.831 464.443 264.189 464.352 264.639C464.267 265.081 464.225 265.622 464.225 266.26V269.473C464.225 269.987 464.251 270.439 464.303 270.83C464.361 271.221 464.446 271.556 464.557 271.836C464.674 272.109 464.811 272.334 464.967 272.51C465.13 272.679 465.315 272.803 465.523 272.881C465.738 272.959 465.973 272.998 466.227 272.998C466.539 272.998 466.816 272.936 467.057 272.812C467.304 272.682 467.512 272.48 467.682 272.207C467.857 271.927 467.988 271.562 468.072 271.113C468.157 270.664 468.199 270.117 468.199 269.473ZM482.506 266.641V269.102C482.506 270.169 482.392 271.09 482.164 271.865C481.936 272.633 481.607 273.265 481.178 273.76C480.755 274.248 480.25 274.609 479.664 274.844C479.078 275.078 478.427 275.195 477.711 275.195C477.138 275.195 476.604 275.124 476.109 274.98C475.615 274.831 475.169 274.6 474.771 274.287C474.381 273.975 474.042 273.581 473.756 273.105C473.476 272.624 473.261 272.051 473.111 271.387C472.962 270.723 472.887 269.961 472.887 269.102V266.641C472.887 265.573 473.001 264.658 473.229 263.896C473.463 263.128 473.792 262.5 474.215 262.012C474.645 261.523 475.152 261.165 475.738 260.938C476.324 260.703 476.975 260.586 477.691 260.586C478.264 260.586 478.795 260.661 479.283 260.811C479.778 260.954 480.224 261.178 480.621 261.484C481.018 261.79 481.357 262.184 481.637 262.666C481.917 263.141 482.132 263.711 482.281 264.375C482.431 265.033 482.506 265.788 482.506 266.641ZM479.684 269.473V266.26C479.684 265.745 479.654 265.296 479.596 264.912C479.544 264.528 479.462 264.202 479.352 263.936C479.241 263.662 479.104 263.441 478.941 263.271C478.779 263.102 478.593 262.979 478.385 262.9C478.176 262.822 477.945 262.783 477.691 262.783C477.372 262.783 477.089 262.845 476.842 262.969C476.601 263.092 476.396 263.291 476.227 263.564C476.057 263.831 475.927 264.189 475.836 264.639C475.751 265.081 475.709 265.622 475.709 266.26V269.473C475.709 269.987 475.735 270.439 475.787 270.83C475.846 271.221 475.93 271.556 476.041 271.836C476.158 272.109 476.295 272.334 476.451 272.51C476.614 272.679 476.799 272.803 477.008 272.881C477.223 272.959 477.457 272.998 477.711 272.998C478.023 272.998 478.3 272.936 478.541 272.812C478.788 272.682 478.997 272.48 479.166 272.207C479.342 271.927 479.472 271.562 479.557 271.113C479.641 270.664 479.684 270.117 479.684 269.473ZM493.99 266.641V269.102C493.99 270.169 493.876 271.09 493.648 271.865C493.421 272.633 493.092 273.265 492.662 273.76C492.239 274.248 491.734 274.609 491.148 274.844C490.562 275.078 489.911 275.195 489.195 275.195C488.622 275.195 488.089 275.124 487.594 274.98C487.099 274.831 486.653 274.6 486.256 274.287C485.865 273.975 485.527 273.581 485.24 273.105C484.96 272.624 484.745 272.051 484.596 271.387C484.446 270.723 484.371 269.961 484.371 269.102V266.641C484.371 265.573 484.485 264.658 484.713 263.896C484.947 263.128 485.276 262.5 485.699 262.012C486.129 261.523 486.637 261.165 487.223 260.938C487.809 260.703 488.46 260.586 489.176 260.586C489.749 260.586 490.279 260.661 490.768 260.811C491.262 260.954 491.708 261.178 492.105 261.484C492.503 261.79 492.841 262.184 493.121 262.666C493.401 263.141 493.616 263.711 493.766 264.375C493.915 265.033 493.99 265.788 493.99 266.641ZM491.168 269.473V266.26C491.168 265.745 491.139 265.296 491.08 264.912C491.028 264.528 490.947 264.202 490.836 263.936C490.725 263.662 490.589 263.441 490.426 263.271C490.263 263.102 490.077 262.979 489.869 262.9C489.661 262.822 489.43 262.783 489.176 262.783C488.857 262.783 488.574 262.845 488.326 262.969C488.085 263.092 487.88 263.291 487.711 263.564C487.542 263.831 487.411 264.189 487.32 264.639C487.236 265.081 487.193 265.622 487.193 266.26V269.473C487.193 269.987 487.219 270.439 487.271 270.83C487.33 271.221 487.415 271.556 487.525 271.836C487.643 272.109 487.779 272.334 487.936 272.51C488.098 272.679 488.284 272.803 488.492 272.881C488.707 272.959 488.941 272.998 489.195 272.998C489.508 272.998 489.785 272.936 490.025 272.812C490.273 272.682 490.481 272.48 490.65 272.207C490.826 271.927 490.956 271.562 491.041 271.113C491.126 270.664 491.168 270.117 491.168 269.473ZM505.475 266.641V269.102C505.475 270.169 505.361 271.09 505.133 271.865C504.905 272.633 504.576 273.265 504.146 273.76C503.723 274.248 503.219 274.609 502.633 274.844C502.047 275.078 501.396 275.195 500.68 275.195C500.107 275.195 499.573 275.124 499.078 274.98C498.583 274.831 498.137 274.6 497.74 274.287C497.35 273.975 497.011 273.581 496.725 273.105C496.445 272.624 496.23 272.051 496.08 271.387C495.93 270.723 495.855 269.961 495.855 269.102V266.641C495.855 265.573 495.969 264.658 496.197 263.896C496.432 263.128 496.76 262.5 497.184 262.012C497.613 261.523 498.121 261.165 498.707 260.938C499.293 260.703 499.944 260.586 500.66 260.586C501.233 260.586 501.764 260.661 502.252 260.811C502.747 260.954 503.193 261.178 503.59 261.484C503.987 261.79 504.326 262.184 504.605 262.666C504.885 263.141 505.1 263.711 505.25 264.375C505.4 265.033 505.475 265.788 505.475 266.641ZM502.652 269.473V266.26C502.652 265.745 502.623 265.296 502.564 264.912C502.512 264.528 502.431 264.202 502.32 263.936C502.21 263.662 502.073 263.441 501.91 263.271C501.747 263.102 501.562 262.979 501.354 262.9C501.145 262.822 500.914 262.783 500.66 262.783C500.341 262.783 500.058 262.845 499.811 262.969C499.57 263.092 499.365 263.291 499.195 263.564C499.026 263.831 498.896 264.189 498.805 264.639C498.72 265.081 498.678 265.622 498.678 266.26V269.473C498.678 269.987 498.704 270.439 498.756 270.83C498.814 271.221 498.899 271.556 499.01 271.836C499.127 272.109 499.264 272.334 499.42 272.51C499.583 272.679 499.768 272.803 499.977 272.881C500.191 272.959 500.426 272.998 500.68 272.998C500.992 272.998 501.269 272.936 501.51 272.812C501.757 272.682 501.965 272.48 502.135 272.207C502.311 271.927 502.441 271.562 502.525 271.113C502.61 270.664 502.652 270.117 502.652 269.473ZM516.959 266.641V269.102C516.959 270.169 516.845 271.09 516.617 271.865C516.389 272.633 516.061 273.265 515.631 273.76C515.208 274.248 514.703 274.609 514.117 274.844C513.531 275.078 512.88 275.195 512.164 275.195C511.591 275.195 511.057 275.124 510.562 274.98C510.068 274.831 509.622 274.6 509.225 274.287C508.834 273.975 508.495 273.581 508.209 273.105C507.929 272.624 507.714 272.051 507.564 271.387C507.415 270.723 507.34 269.961 507.34 269.102V266.641C507.34 265.573 507.454 264.658 507.682 263.896C507.916 263.128 508.245 262.5 508.668 262.012C509.098 261.523 509.605 261.165 510.191 260.938C510.777 260.703 511.428 260.586 512.145 260.586C512.717 260.586 513.248 260.661 513.736 260.811C514.231 260.954 514.677 261.178 515.074 261.484C515.471 261.79 515.81 262.184 516.09 262.666C516.37 263.141 516.585 263.711 516.734 264.375C516.884 265.033 516.959 265.788 516.959 266.641ZM514.137 269.473V266.26C514.137 265.745 514.107 265.296 514.049 264.912C513.997 264.528 513.915 264.202 513.805 263.936C513.694 263.662 513.557 263.441 513.395 263.271C513.232 263.102 513.046 262.979 512.838 262.9C512.63 262.822 512.398 262.783 512.145 262.783C511.826 262.783 511.542 262.845 511.295 262.969C511.054 263.092 510.849 263.291 510.68 263.564C510.51 263.831 510.38 264.189 510.289 264.639C510.204 265.081 510.162 265.622 510.162 266.26V269.473C510.162 269.987 510.188 270.439 510.24 270.83C510.299 271.221 510.383 271.556 510.494 271.836C510.611 272.109 510.748 272.334 510.904 272.51C511.067 272.679 511.253 272.803 511.461 272.881C511.676 272.959 511.91 272.998 512.164 272.998C512.477 272.998 512.753 272.936 512.994 272.812C513.242 272.682 513.45 272.48 513.619 272.207C513.795 271.927 513.925 271.562 514.01 271.113C514.094 270.664 514.137 270.117 514.137 269.473ZM528.443 266.641V269.102C528.443 270.169 528.329 271.09 528.102 271.865C527.874 272.633 527.545 273.265 527.115 273.76C526.692 274.248 526.188 274.609 525.602 274.844C525.016 275.078 524.365 275.195 523.648 275.195C523.076 275.195 522.542 275.124 522.047 274.98C521.552 274.831 521.106 274.6 520.709 274.287C520.318 273.975 519.98 273.581 519.693 273.105C519.413 272.624 519.199 272.051 519.049 271.387C518.899 270.723 518.824 269.961 518.824 269.102V266.641C518.824 265.573 518.938 264.658 519.166 263.896C519.4 263.128 519.729 262.5 520.152 262.012C520.582 261.523 521.09 261.165 521.676 260.938C522.262 260.703 522.913 260.586 523.629 260.586C524.202 260.586 524.732 260.661 525.221 260.811C525.715 260.954 526.161 261.178 526.559 261.484C526.956 261.79 527.294 262.184 527.574 262.666C527.854 263.141 528.069 263.711 528.219 264.375C528.368 265.033 528.443 265.788 528.443 266.641ZM525.621 269.473V266.26C525.621 265.745 525.592 265.296 525.533 264.912C525.481 264.528 525.4 264.202 525.289 263.936C525.178 263.662 525.042 263.441 524.879 263.271C524.716 263.102 524.531 262.979 524.322 262.9C524.114 262.822 523.883 262.783 523.629 262.783C523.31 262.783 523.027 262.845 522.779 262.969C522.538 263.092 522.333 263.291 522.164 263.564C521.995 263.831 521.865 264.189 521.773 264.639C521.689 265.081 521.646 265.622 521.646 266.26V269.473C521.646 269.987 521.673 270.439 521.725 270.83C521.783 271.221 521.868 271.556 521.979 271.836C522.096 272.109 522.232 272.334 522.389 272.51C522.551 272.679 522.737 272.803 522.945 272.881C523.16 272.959 523.395 272.998 523.648 272.998C523.961 272.998 524.238 272.936 524.479 272.812C524.726 272.682 524.934 272.48 525.104 272.207C525.279 271.927 525.41 271.562 525.494 271.113C525.579 270.664 525.621 270.117 525.621 269.473Z" fill="black"/>
<path d="M436 328H383V354.5H436V328Z" fill="#111113"/>
<path d="M489 328H436V354.5H489V328Z" fill="#6C6E79"/>
<path d="M542 328H489V354.5H542V328Z" fill="#5F616B"/>
<path d="M595 328H542V354.5H595V328Z" fill="#B2B3BD"/>
<g filter="url(#filter0_d_5287_868)">
<rect x="727" y="235" width="105" height="202" rx="15" transform="rotate(-90 727 235)" fill="white"/>
</g>
<path d="M800.623 174.094V194H797.971L787.949 178.646V194H785.311V174.094H787.949L798.012 189.488V174.094H800.623ZM811.055 194.273C810.025 194.273 809.09 194.1 808.252 193.754C807.423 193.398 806.707 192.902 806.105 192.264C805.513 191.626 805.057 190.869 804.738 189.994C804.419 189.119 804.26 188.162 804.26 187.123V186.549C804.26 185.346 804.438 184.275 804.793 183.336C805.148 182.388 805.632 181.586 806.242 180.93C806.853 180.273 807.546 179.777 808.32 179.439C809.095 179.102 809.897 178.934 810.727 178.934C811.784 178.934 812.695 179.116 813.461 179.48C814.236 179.845 814.869 180.355 815.361 181.012C815.854 181.659 816.218 182.424 816.455 183.309C816.692 184.184 816.811 185.141 816.811 186.18V187.314H805.764V185.25H814.281V185.059C814.245 184.402 814.108 183.764 813.871 183.145C813.643 182.525 813.279 182.014 812.777 181.613C812.276 181.212 811.592 181.012 810.727 181.012C810.152 181.012 809.624 181.135 809.141 181.381C808.658 181.618 808.243 181.973 807.896 182.447C807.55 182.921 807.281 183.5 807.09 184.184C806.898 184.867 806.803 185.656 806.803 186.549V187.123C806.803 187.825 806.898 188.486 807.09 189.105C807.29 189.716 807.577 190.254 807.951 190.719C808.334 191.184 808.794 191.548 809.332 191.812C809.879 192.077 810.499 192.209 811.191 192.209C812.085 192.209 812.841 192.027 813.461 191.662C814.081 191.298 814.623 190.81 815.088 190.199L816.619 191.416C816.3 191.899 815.895 192.359 815.402 192.797C814.91 193.234 814.304 193.59 813.584 193.863C812.873 194.137 812.03 194.273 811.055 194.273ZM828.814 190.582V179.207H831.357V194H828.938L828.814 190.582ZM829.293 187.465L830.346 187.438C830.346 188.422 830.241 189.333 830.031 190.172C829.831 191.001 829.503 191.721 829.047 192.332C828.591 192.943 827.994 193.421 827.256 193.768C826.518 194.105 825.62 194.273 824.562 194.273C823.842 194.273 823.182 194.169 822.58 193.959C821.988 193.749 821.477 193.426 821.049 192.988C820.62 192.551 820.288 191.981 820.051 191.279C819.823 190.577 819.709 189.734 819.709 188.75V179.207H822.238V188.777C822.238 189.443 822.311 189.994 822.457 190.432C822.612 190.86 822.817 191.202 823.072 191.457C823.337 191.703 823.628 191.876 823.947 191.977C824.275 192.077 824.613 192.127 824.959 192.127C826.035 192.127 826.887 191.922 827.516 191.512C828.145 191.092 828.596 190.532 828.869 189.83C829.152 189.119 829.293 188.331 829.293 187.465ZM841.406 179.207V181.148H833.408V179.207H841.406ZM836.115 175.611H838.645V190.336C838.645 190.837 838.722 191.215 838.877 191.471C839.032 191.726 839.232 191.895 839.479 191.977C839.725 192.059 839.989 192.1 840.271 192.1C840.481 192.1 840.7 192.081 840.928 192.045C841.165 191.999 841.342 191.963 841.461 191.936L841.475 194C841.274 194.064 841.01 194.123 840.682 194.178C840.363 194.242 839.975 194.273 839.52 194.273C838.9 194.273 838.33 194.15 837.811 193.904C837.291 193.658 836.876 193.248 836.566 192.674C836.266 192.09 836.115 191.307 836.115 190.322V175.611ZM846.902 181.531V194H844.373V179.207H846.834L846.902 181.531ZM851.523 179.125L851.51 181.477C851.3 181.431 851.1 181.404 850.908 181.395C850.726 181.376 850.516 181.367 850.279 181.367C849.696 181.367 849.181 181.458 848.734 181.641C848.288 181.823 847.91 182.078 847.6 182.406C847.29 182.734 847.044 183.126 846.861 183.582C846.688 184.029 846.574 184.521 846.52 185.059L845.809 185.469C845.809 184.576 845.895 183.737 846.068 182.953C846.251 182.169 846.529 181.477 846.902 180.875C847.276 180.264 847.75 179.79 848.324 179.453C848.908 179.107 849.6 178.934 850.402 178.934C850.585 178.934 850.794 178.956 851.031 179.002C851.268 179.038 851.432 179.079 851.523 179.125ZM862.037 191.471V183.855C862.037 183.272 861.919 182.766 861.682 182.338C861.454 181.9 861.107 181.563 860.643 181.326C860.178 181.089 859.604 180.971 858.92 180.971C858.282 180.971 857.721 181.08 857.238 181.299C856.764 181.518 856.391 181.805 856.117 182.16C855.853 182.516 855.721 182.898 855.721 183.309H853.191C853.191 182.78 853.328 182.256 853.602 181.736C853.875 181.217 854.267 180.747 854.777 180.328C855.297 179.9 855.917 179.562 856.637 179.316C857.366 179.061 858.177 178.934 859.07 178.934C860.146 178.934 861.094 179.116 861.914 179.48C862.743 179.845 863.391 180.396 863.855 181.135C864.329 181.864 864.566 182.78 864.566 183.883V190.773C864.566 191.266 864.607 191.79 864.689 192.346C864.781 192.902 864.913 193.38 865.086 193.781V194H862.447C862.32 193.708 862.219 193.321 862.146 192.838C862.074 192.346 862.037 191.89 862.037 191.471ZM862.475 185.031L862.502 186.809H859.945C859.225 186.809 858.583 186.868 858.018 186.986C857.452 187.096 856.979 187.264 856.596 187.492C856.213 187.72 855.921 188.007 855.721 188.354C855.52 188.691 855.42 189.087 855.42 189.543C855.42 190.008 855.525 190.432 855.734 190.814C855.944 191.197 856.258 191.503 856.678 191.73C857.106 191.949 857.63 192.059 858.25 192.059C859.025 192.059 859.708 191.895 860.301 191.566C860.893 191.238 861.363 190.837 861.709 190.363C862.064 189.889 862.256 189.429 862.283 188.982L863.363 190.199C863.299 190.582 863.126 191.006 862.844 191.471C862.561 191.936 862.183 192.382 861.709 192.811C861.244 193.23 860.688 193.581 860.041 193.863C859.403 194.137 858.683 194.273 857.881 194.273C856.878 194.273 855.999 194.077 855.242 193.686C854.495 193.294 853.911 192.77 853.492 192.113C853.082 191.448 852.877 190.705 852.877 189.885C852.877 189.092 853.032 188.395 853.342 187.793C853.652 187.182 854.098 186.676 854.682 186.275C855.265 185.865 855.967 185.555 856.787 185.346C857.607 185.136 858.523 185.031 859.535 185.031H862.475ZM871.293 173V194H868.75V173H871.293Z" fill="black"/>
<path d="M791.242 275L793.723 260.781H795.49L793.01 275H791.242ZM794.904 275L797.395 260.781H799.162L796.672 275H794.904ZM800.617 266.494H790.451V264.844H800.617V266.494ZM799.875 270.996H789.719V269.355H799.875V270.996ZM805.197 260.781V275H802.268V260.781H805.197ZM810.861 266.855V269.141H804.396V266.855H810.861ZM811.545 260.781V263.076H804.396V260.781H811.545ZM816.174 260.781V275H813.244V260.781H816.174ZM821.838 266.855V269.141H815.373V266.855H821.838ZM822.521 260.781V263.076H815.373V260.781H822.521ZM827.15 260.781V275H824.221V260.781H827.15ZM832.814 266.855V269.141H826.35V266.855H832.814ZM833.498 260.781V263.076H826.35V260.781H833.498ZM838.127 260.781V275H835.197V260.781H838.127ZM843.791 266.855V269.141H837.326V266.855H843.791ZM844.475 260.781V263.076H837.326V260.781H844.475ZM849.104 260.781V275H846.174V260.781H849.104ZM854.768 266.855V269.141H848.303V266.855H854.768ZM855.451 260.781V263.076H848.303V260.781H855.451ZM860.08 260.781V275H857.15V260.781H860.08ZM865.744 266.855V269.141H859.279V266.855H865.744ZM866.428 260.781V263.076H859.279V260.781H866.428Z" fill="black"/>
<path d="M775 328H722V354.5H775V328Z" fill="white"/>
<path d="M828 328H775V354.5H828V328Z" fill="#F5F6F8"/>
<path d="M881 328H828V354.5H881V328Z" fill="#B2B3BD"/>
<path d="M934 328H881V354.5H934V328Z" fill="#EEEEF0"/>
<path d="M59.4844 59.5156H63.7812C63.6667 61.0365 63.2448 62.3854 62.5156 63.5625C61.7865 64.7292 60.7708 65.6458 59.4688 66.3125C58.1667 66.9792 56.5885 67.3125 54.7344 67.3125C53.3073 67.3125 52.0208 67.0625 50.875 66.5625C49.7396 66.0521 48.7656 65.3281 47.9531 64.3906C47.151 63.4427 46.5365 62.3073 46.1094 60.9844C45.6823 59.651 45.4688 58.1562 45.4688 56.5V54.7656C45.4688 53.1094 45.6875 51.6146 46.125 50.2812C46.5625 48.9479 47.1875 47.8125 48 46.875C48.8229 45.9271 49.8073 45.1979 50.9531 44.6875C52.1094 44.1771 53.401 43.9219 54.8281 43.9219C56.6823 43.9219 58.25 44.2656 59.5312 44.9531C60.8125 45.6302 61.8073 46.5625 62.5156 47.75C63.224 48.9375 63.651 50.3021 63.7969 51.8438H59.5C59.4167 50.8854 59.2083 50.0729 58.875 49.4062C58.5521 48.7396 58.0625 48.2344 57.4062 47.8906C56.7604 47.5365 55.901 47.3594 54.8281 47.3594C53.9948 47.3594 53.2604 47.5156 52.625 47.8281C52 48.1406 51.4792 48.6094 51.0625 49.2344C50.6458 49.849 50.3333 50.6198 50.125 51.5469C49.9167 52.4635 49.8125 53.526 49.8125 54.7344V56.5C49.8125 57.6562 49.9062 58.6927 50.0938 59.6094C50.2812 60.526 50.5729 61.3021 50.9688 61.9375C51.3646 62.5729 51.875 63.0573 52.5 63.3906C53.125 63.724 53.8698 63.8906 54.7344 63.8906C55.7865 63.8906 56.6406 63.724 57.2969 63.3906C57.9635 63.0573 58.4688 62.5677 58.8125 61.9219C59.1667 61.276 59.3906 60.474 59.4844 59.5156ZM66.0625 58.7188V58.3906C66.0625 57.151 66.2396 56.0104 66.5938 54.9688C66.9479 53.9167 67.4635 53.0052 68.1406 52.2344C68.8177 51.4635 69.6458 50.8646 70.625 50.4375C71.6042 50 72.7188 49.7812 73.9688 49.7812C75.2396 49.7812 76.3646 50 77.3438 50.4375C78.3333 50.8646 79.1667 51.4635 79.8438 52.2344C80.5208 53.0052 81.0365 53.9167 81.3906 54.9688C81.7448 56.0104 81.9219 57.151 81.9219 58.3906V58.7188C81.9219 59.9479 81.7448 61.0885 81.3906 62.1406C81.0365 63.1823 80.5208 64.0938 79.8438 64.875C79.1667 65.6458 78.3385 66.2448 77.3594 66.6719C76.3802 67.099 75.2604 67.3125 74 67.3125C72.75 67.3125 71.6302 67.099 70.6406 66.6719C69.651 66.2448 68.8177 65.6458 68.1406 64.875C67.4635 64.0938 66.9479 63.1823 66.5938 62.1406C66.2396 61.0885 66.0625 59.9479 66.0625 58.7188ZM70.1875 58.3906V58.7188C70.1875 59.4583 70.2604 60.151 70.4062 60.7969C70.5521 61.4427 70.776 62.0104 71.0781 62.5C71.3802 62.9896 71.7708 63.375 72.25 63.6562C72.7396 63.9271 73.3229 64.0625 74 64.0625C74.6667 64.0625 75.2396 63.9271 75.7188 63.6562C76.1979 63.375 76.5885 62.9896 76.8906 62.5C77.2031 62.0104 77.4323 61.4427 77.5781 60.7969C77.724 60.151 77.7969 59.4583 77.7969 58.7188V58.3906C77.7969 57.6615 77.724 56.9792 77.5781 56.3438C77.4323 55.6979 77.2031 55.1302 76.8906 54.6406C76.5885 54.1406 76.1927 53.75 75.7031 53.4688C75.224 53.1771 74.6458 53.0312 73.9688 53.0312C73.3021 53.0312 72.7292 53.1771 72.25 53.4688C71.7708 53.75 71.3802 54.1406 71.0781 54.6406C70.776 55.1302 70.5521 55.6979 70.4062 56.3438C70.2604 56.9792 70.1875 57.6615 70.1875 58.3906ZM89.2969 43V67H85.1562V43H89.2969ZM92.5 58.7188V58.3906C92.5 57.151 92.6771 56.0104 93.0312 54.9688C93.3854 53.9167 93.901 53.0052 94.5781 52.2344C95.2552 51.4635 96.0833 50.8646 97.0625 50.4375C98.0417 50 99.1562 49.7812 100.406 49.7812C101.677 49.7812 102.802 50 103.781 50.4375C104.771 50.8646 105.604 51.4635 106.281 52.2344C106.958 53.0052 107.474 53.9167 107.828 54.9688C108.182 56.0104 108.359 57.151 108.359 58.3906V58.7188C108.359 59.9479 108.182 61.0885 107.828 62.1406C107.474 63.1823 106.958 64.0938 106.281 64.875C105.604 65.6458 104.776 66.2448 103.797 66.6719C102.818 67.099 101.698 67.3125 100.438 67.3125C99.1875 67.3125 98.0677 67.099 97.0781 66.6719C96.0885 66.2448 95.2552 65.6458 94.5781 64.875C93.901 64.0938 93.3854 63.1823 93.0312 62.1406C92.6771 61.0885 92.5 59.9479 92.5 58.7188ZM96.625 58.3906V58.7188C96.625 59.4583 96.6979 60.151 96.8438 60.7969C96.9896 61.4427 97.2135 62.0104 97.5156 62.5C97.8177 62.9896 98.2083 63.375 98.6875 63.6562C99.1771 63.9271 99.7604 64.0625 100.438 64.0625C101.104 64.0625 101.677 63.9271 102.156 63.6562C102.635 63.375 103.026 62.9896 103.328 62.5C103.641 62.0104 103.87 61.4427 104.016 60.7969C104.161 60.151 104.234 59.4583 104.234 58.7188V58.3906C104.234 57.6615 104.161 56.9792 104.016 56.3438C103.87 55.6979 103.641 55.1302 103.328 54.6406C103.026 54.1406 102.63 53.75 102.141 53.4688C101.661 53.1771 101.083 53.0312 100.406 53.0312C99.7396 53.0312 99.1667 53.1771 98.6875 53.4688C98.2083 53.75 97.8177 54.1406 97.5156 54.6406C97.2135 55.1302 96.9896 55.6979 96.8438 56.3438C96.6979 56.9792 96.625 57.6615 96.625 58.3906ZM115.484 53.5469V67H111.359V50.0938H115.266L115.484 53.5469ZM120.625 49.9844L120.562 53.8281C120.333 53.7865 120.073 53.7552 119.781 53.7344C119.5 53.7135 119.234 53.7031 118.984 53.7031C118.349 53.7031 117.792 53.7917 117.312 53.9688C116.833 54.1354 116.432 54.3802 116.109 54.7031C115.797 55.026 115.557 55.4219 115.391 55.8906C115.224 56.349 115.13 56.8698 115.109 57.4531L114.219 57.3438C114.219 56.2708 114.328 55.276 114.547 54.3594C114.766 53.4427 115.083 52.6406 115.5 51.9531C115.917 51.2656 116.438 50.7344 117.062 50.3594C117.698 49.974 118.427 49.7812 119.25 49.7812C119.479 49.7812 119.724 49.8021 119.984 49.8438C120.255 49.875 120.469 49.9219 120.625 49.9844Z" fill="black"/>
<defs>
<filter id="filter0_d_5287_868" x="711" y="114" width="242" height="145" filterUnits="userSpaceOnUse" color-interpolation-filters="sRGB">
<feFlood flood-opacity="0" result="BackgroundImageFix"/>
<feColorMatrix in="SourceAlpha" type="matrix" values="0 0 0 0 0 0 0 0 0 0 0 0 0 0 0 0 0 0 127 0" result="hardAlpha"/>
<feOffset dx="4" dy="4"/>
<feGaussianBlur stdDeviation="10"/>
<feComposite in2="hardAlpha" operator="out"/>
<feColorMatrix type="matrix" values="0 0 0 0 0 0 0 0 0 0 0 0 0 0 0 0 0 0 0.25 0"/>
<feBlend mode="normal" in2="BackgroundImageFix" result="effect1_dropShadow_5287_868"/>
<feBlend mode="normal" in="SourceGraphic" in2="effect1_dropShadow_5287_868" result="shape"/>
</filter>
</defs>
</svg>
