<svg width="344" height="88" viewBox="0 0 344 88" fill="none" xmlns="http://www.w3.org/2000/svg">
<path d="M0.704 29.8851C0.704 29.6718 1.62133 29.4798 3.456 29.3091C5.33333 29.0958 6.86933 28.9891 8.064 28.9891C12.8 28.9891 15.2747 29.6078 15.488 30.8451L20.992 59.0051L26.176 30.8451C26.432 29.6078 29.0773 28.9891 34.112 28.9891C35.3493 28.9891 36.9067 29.0745 38.784 29.2451C40.6613 29.4158 41.6 29.6078 41.6 29.8211L30.272 72.1891C30.1013 72.8718 28.8427 73.3198 26.496 73.5331C22.8693 73.9171 19.5627 74.0025 16.576 73.7891C13.632 73.5331 12.0747 73.1065 11.904 72.5091L0.704 29.8851ZM49.7365 62.8451V40.0611H45.1925C44.4672 40.0611 43.9552 39.1438 43.6565 37.3091C43.5285 36.4131 43.4645 35.4958 43.4645 34.5571C43.4645 33.6185 43.5285 32.7011 43.6565 31.8051C43.9552 29.9705 44.4672 29.0531 45.1925 29.0531H66.6965C67.4218 29.0531 67.9125 29.9705 68.1685 31.8051C68.3392 32.7011 68.4245 33.6185 68.4245 34.5571C68.4245 35.4958 68.3392 36.4131 68.1685 37.3091C67.9125 39.1438 67.4218 40.0611 66.6965 40.0611H62.4085V62.8451H66.8885C67.6138 62.8451 68.1258 63.7625 68.4245 65.5971C68.5952 66.4931 68.6805 67.4105 68.6805 68.3491C68.6805 69.2878 68.5952 70.2051 68.4245 71.1011C68.1258 72.9358 67.6138 73.8531 66.8885 73.8531H45.3205C44.5952 73.8531 44.1045 72.9358 43.8485 71.1011C43.6778 70.2051 43.5925 69.2878 43.5925 68.3491C43.5925 67.4105 43.6778 66.4931 43.8485 65.5971C44.1045 63.7625 44.5952 62.8451 45.3205 62.8451H49.7365ZM74.614 58.2371C75.4247 58.8771 76.8113 59.7518 78.774 60.8611C80.7793 61.9705 82.678 62.5251 84.47 62.5251C86.3047 62.5251 87.222 61.8211 87.222 60.4131C87.222 59.7731 86.966 59.2185 86.454 58.7491C85.942 58.2371 85.0033 57.6611 83.638 57.0211C82.2727 56.3811 81.2487 55.8905 80.566 55.5491C79.8833 55.1651 78.966 54.5678 77.814 53.7571C76.7047 52.9038 75.8513 52.0291 75.254 51.1331C73.5473 48.7011 72.694 45.6078 72.694 41.8531C72.694 38.0985 74.0807 34.9411 76.854 32.3811C79.67 29.7785 83.3393 28.4771 87.862 28.4771C90.934 28.4771 93.7713 28.8185 96.374 29.5011C98.9767 30.1411 100.321 30.9945 100.406 32.0611C100.406 32.1891 100.406 32.3171 100.406 32.4451C100.406 33.9385 99.9367 35.8371 98.998 38.1411C98.0593 40.4025 97.398 41.6611 97.014 41.9171C94.2833 40.5091 91.83 39.8051 89.654 39.8051C87.5207 39.8051 86.454 40.5731 86.454 42.1091C86.454 43.0478 87.2433 43.8798 88.822 44.6051C89.1633 44.7758 89.654 45.0105 90.294 45.3091C90.934 45.6078 91.6593 45.9705 92.47 46.3971C93.3233 46.7811 94.2193 47.2931 95.158 47.9331C96.1393 48.5305 97.1847 49.3411 98.294 50.3651C100.555 52.4985 101.686 55.3145 101.686 58.8131C101.686 63.3785 100.427 67.1118 97.91 70.0131C95.3927 72.9145 91.51 74.4078 86.262 74.4931C83.702 74.4931 81.3767 74.2798 79.286 73.8531C77.238 73.4265 75.446 72.5945 73.91 71.3571C72.374 70.1198 71.606 68.6265 71.606 66.8771C71.606 65.1278 71.926 63.3998 72.566 61.6931C73.206 59.9438 73.8887 58.7918 74.614 58.2371ZM137.03 73.9811C133.318 73.9811 131.313 73.3838 131.014 72.1891L128.902 63.9331H118.726L116.87 71.8691C116.614 73.1918 114.566 73.8531 110.726 73.8531C108.678 73.8531 107.163 73.7465 106.182 73.5331C105.201 73.2771 104.71 73.0851 104.71 72.9571L116.038 29.6291C116.038 29.2878 118.961 29.1171 124.806 29.1171C130.651 29.1171 133.574 29.2878 133.574 29.6291L144.646 73.0211C144.646 73.3198 143.665 73.5545 141.702 73.7251C139.739 73.8958 138.182 73.9811 137.03 73.9811ZM120.326 55.8051H127.046L124.166 42.5571H123.782L120.326 55.8051ZM180.312 40.6371C180.312 45.0745 178.392 48.4451 174.552 50.7491C176.642 51.5171 178.392 52.8398 179.8 54.7171C181.208 56.5945 181.912 59.2611 181.912 62.7171C181.912 66.1305 180.632 68.8398 178.072 70.8451C175.554 72.8505 171.928 73.8531 167.192 73.8531H152.088C151.362 73.8531 150.765 73.6185 150.296 73.1491C149.826 72.6371 149.592 71.9758 149.592 71.1651V30.2051C149.592 29.7358 149.656 29.4371 149.784 29.3091C149.954 29.1385 150.274 29.0531 150.744 29.0531H165.336C175.32 29.0531 180.312 32.9145 180.312 40.6371ZM161.88 39.4211V47.8051H162.2C166.296 47.8051 168.344 46.4398 168.344 43.7091C168.344 42.2158 167.938 41.1278 167.128 40.4451C166.36 39.7625 165.058 39.4211 163.224 39.4211H161.88ZM161.88 55.3571V63.6771H163.032C164.866 63.6771 166.21 63.3358 167.064 62.6531C167.917 61.9705 168.344 60.8825 168.344 59.3891C168.344 57.8958 167.938 56.8505 167.128 56.2531C166.36 55.6558 165.058 55.3571 163.224 55.3571H161.88ZM207.816 30.3331C207.816 29.4798 210.12 29.0531 214.728 29.0531C219.378 29.0531 221.704 29.4798 221.704 30.3331V59.7091C221.704 64.0611 220.146 67.6238 217.032 70.3971C213.917 73.1278 209.608 74.4931 204.104 74.4931C198.642 74.4931 194.184 73.0851 190.728 70.2691C187.314 67.4105 185.608 63.5705 185.608 58.7491V30.3971C185.608 29.5438 187.912 29.1171 192.52 29.1171C197.17 29.1171 199.496 29.5438 199.496 30.3971V59.2611C199.496 60.1145 199.944 60.7971 200.84 61.3091C201.778 61.8211 202.76 62.0771 203.784 62.0771C204.808 62.0771 205.725 61.8425 206.536 61.3731C207.389 60.9038 207.816 60.1998 207.816 59.2611V30.3331ZM227.075 70.9091V32.5091C227.075 31.4425 227.331 30.6105 227.843 30.0131C228.398 29.3731 229.102 29.0531 229.955 29.0531H240.643C247.427 29.0531 252.568 30.7598 256.067 34.1731C259.608 37.5865 261.379 42.9625 261.379 50.3011C261.379 66.0025 254.68 73.8531 241.283 73.8531H230.339C228.163 73.8531 227.075 72.8718 227.075 70.9091ZM239.363 41.2131V60.3491C239.363 61.2451 239.427 61.8211 239.555 62.0771C239.683 62.2905 240.067 62.3971 240.707 62.3971C243.054 62.3971 244.824 61.5225 246.019 59.7731C247.256 58.0238 247.875 55.1225 247.875 51.0691C247.875 46.9731 247.235 44.3065 245.955 43.0691C244.718 41.8318 242.734 41.2131 240.003 41.2131H239.363ZM266.513 70.9091V32.5091C266.513 31.4425 266.769 30.6105 267.281 30.0131C267.835 29.3731 268.539 29.0531 269.393 29.0531H280.081C286.865 29.0531 292.006 30.7598 295.505 34.1731C299.046 37.5865 300.817 42.9625 300.817 50.3011C300.817 66.0025 294.118 73.8531 280.721 73.8531H269.777C267.601 73.8531 266.513 72.8718 266.513 70.9091ZM278.801 41.2131V60.3491C278.801 61.2451 278.865 61.8211 278.993 62.0771C279.121 62.2905 279.505 62.3971 280.145 62.3971C282.491 62.3971 284.262 61.5225 285.457 59.7731C286.694 58.0238 287.313 55.1225 287.313 51.0691C287.313 46.9731 286.673 44.3065 285.393 43.0691C284.155 41.8318 282.171 41.2131 279.441 41.2131H278.801ZM328.222 31.1651C328.777 29.6718 331.507 28.9251 336.414 28.9251C337.651 28.9251 339.102 29.0105 340.766 29.1811C342.473 29.3518 343.262 29.5651 343.134 29.8211L329.822 56.5731V72.1891C329.822 72.9145 328.649 73.4265 326.302 73.7251C325.107 73.8958 323.934 73.9811 322.782 73.9811C321.63 73.9811 320.478 73.9171 319.326 73.7891C316.979 73.4905 315.806 72.9571 315.806 72.1891V56.9571L302.046 29.9491C301.875 29.6931 302.75 29.4585 304.67 29.2451C306.59 28.9891 308.211 28.8611 309.534 28.8611C314.782 28.8611 317.662 29.6291 318.174 31.1651L322.846 44.2211L328.222 31.1651Z" fill="white"/>
<path d="M55.9904 22.8531L56.2455 17.9593C56.2493 17.8788 56.2349 17.7985 56.2034 17.7243C56.172 17.6501 56.1243 17.584 56.0639 17.5306C56.0036 17.4773 55.932 17.4382 55.8545 17.4162C55.7769 17.3942 55.6955 17.3899 55.6161 17.4036L50.7449 18.2598L51.4027 16.4452C51.4294 16.373 51.4328 16.2942 51.4125 16.22C51.3921 16.1458 51.3491 16.0797 51.2893 16.0312L45.9531 11.7101L47.1553 11.1487C47.2365 11.1103 47.3009 11.0436 47.3364 10.9612C47.3719 10.8787 47.3761 10.7861 47.3481 10.7007L46.2934 7.45705L49.3669 8.10918C49.4502 8.12654 49.5369 8.11457 49.6124 8.0753C49.6878 8.03602 49.7473 7.97186 49.7809 7.89369L50.3763 6.49302L52.775 9.06754C52.8299 9.12539 52.902 9.1639 52.9806 9.1773C53.0592 9.19069 53.14 9.17825 53.2109 9.14183C53.2818 9.10542 53.339 9.04699 53.3739 8.97532C53.4088 8.90365 53.4196 8.82259 53.4045 8.74431L52.2477 2.77867L54.102 3.85044C54.1455 3.87596 54.1939 3.89227 54.2439 3.89835C54.294 3.90443 54.3449 3.90016 54.3932 3.88581C54.4416 3.87146 54.4865 3.84732 54.5252 3.8149C54.5639 3.78248 54.5955 3.74247 54.618 3.69733L56.5007 0L58.3834 3.69733C58.406 3.74247 58.4376 3.78248 58.4763 3.8149C58.5149 3.84732 58.5599 3.87146 58.6082 3.88581C58.6566 3.90016 58.7074 3.90443 58.7575 3.89835C58.8076 3.89227 58.8559 3.87596 58.8995 3.85044L60.7538 2.77867L59.597 8.74431C59.5819 8.82259 59.5926 8.90365 59.6275 8.97532C59.6624 9.04699 59.7196 9.10542 59.7905 9.14183C59.8615 9.17825 59.9423 9.19069 60.0209 9.1773C60.0994 9.1639 60.1716 9.12539 60.2264 9.06754L62.6251 6.49302L63.2206 7.89369C63.2541 7.97186 63.3137 8.03602 63.3891 8.0753C63.4646 8.11457 63.5513 8.12654 63.6345 8.10918L66.7081 7.45705L65.6533 10.7007C65.6254 10.7861 65.6295 10.8787 65.665 10.9612C65.7005 11.0436 65.7649 11.1103 65.8461 11.1487L67.0483 11.7101L61.7122 16.0312C61.6524 16.0797 61.6093 16.1458 61.589 16.22C61.5686 16.2942 61.5721 16.373 61.5987 16.4452L62.2565 18.2598L57.3854 17.4036C57.306 17.3899 57.2245 17.3942 57.147 17.4162C57.0695 17.4382 56.9979 17.4773 56.9375 17.5306C56.8771 17.584 56.8295 17.6501 56.798 17.7243C56.7666 17.7985 56.7522 17.8788 56.7559 17.9593L57.0111 22.8531H55.9904Z" fill="#FF0000"/>
</svg>
