<svg width="800" height="800" viewBox="0 0 800 800" fill="none" xmlns="http://www.w3.org/2000/svg">
<g clip-path="url(#clip0_7444_984)">
<path fill-rule="evenodd" clip-rule="evenodd" d="M107.064 0V25H162.248L104.624 84.952V109.376H202.488V84.376H144.856L202.488 24.424V0H107.064ZM321.592 0L241.608 122.392H301.608V524.264L259.264 559.544L255.424 516.528L224.688 542.128L228.528 585.16L171.504 632.672L167.656 589.656L136.92 615.264L140.784 658.28L81.216 706.28L42.816 660.184L0 800L145.232 783.096L106.816 737L335.968 547.48H677.608V607.48L800 527.504L677.608 447.496V507.496H570.088V451.496H530.088V507.496H455.848V451.496H415.848V507.496H341.6V433.256H397.6V393.256H341.6V319.008H397.6V279.008H341.6V204.768H397.6V164.768H341.6V122.4H401.6L321.592 0ZM0 447.328L48.736 560.904L47.752 563.92C46.256 568.8 44.144 572.208 41.408 574.096C38.736 575.984 34.44 576.92 28.512 576.92H17.576V599.88H37.8C47.888 599.88 55.992 597.432 62.112 592.544C68.296 587.728 73.712 579.224 78.328 567.048L124.312 447.328H89.352L64.36 521.544L34.968 447.328H0ZM679 626.624L718.456 680.048L677.04 736H714.056L738.368 701.44L762.984 736H800L758.592 679.84L798.048 626.624H761.032L738.376 659.048L716.016 626.624H679Z" fill="white"/>
</g>
<defs>
<clipPath id="clip0_7444_984">
<rect width="800" height="800" fill="white"/>
</clipPath>
</defs>
</svg>
