<svg width="392" height="302" viewBox="0 0 392 302" fill="none" xmlns="http://www.w3.org/2000/svg">
<path d="M299.941 172.7C299.403 170.673 298.533 168.75 297.366 167.008C297.616 166.091 297.807 165.159 297.934 164.217C298.763 158.241 296.691 152.77 292.787 148.537C290.672 146.225 288.405 144.698 286.004 143.761C287.58 137.018 288.377 130.117 288.381 123.193C288.381 120.03 288.202 116.932 287.902 113.88C287.746 112.356 287.557 110.836 287.335 109.32C286.648 104.847 285.628 100.431 284.284 96.11C283.403 93.2707 282.384 90.476 281.23 87.736C279.501 83.6782 277.482 79.75 275.189 75.982C273.685 73.475 272.047 71.0508 270.282 68.72C269.417 67.543 268.516 66.3938 267.578 65.274C264.8 61.898 261.781 58.7277 258.545 55.788C257.47 54.7997 256.365 53.8453 255.23 52.926C254.113 51.9943 252.971 51.0927 251.806 50.222C249.461 48.4766 247.038 46.8392 244.544 45.315C230.763 36.945 214.602 32.145 197.329 32.145C147.037 32.145 106.277 72.907 106.277 123.196C106.275 130.208 107.087 137.196 108.697 144.02C106.537 144.958 104.467 146.42 102.547 148.535C98.6436 152.766 96.5706 158.217 97.3996 164.193C97.5256 165.142 97.7146 166.082 97.9666 167.006C96.8007 168.749 95.9313 170.673 95.3936 172.7C94.1936 177.261 94.5886 181.374 96.1136 184.978C94.4556 189.688 94.8696 194.704 97.0286 199.065C98.5986 202.25 100.846 204.714 103.616 206.916C106.909 209.534 111.031 211.758 116.003 213.892C121.935 216.422 129.176 218.799 132.469 219.671C140.975 221.873 149.131 223.269 157.397 223.337C169.174 223.446 179.316 220.677 186.577 213.59C190.144 214.027 193.735 214.246 197.329 214.244C201.126 214.236 204.919 213.997 208.687 213.529C215.931 220.661 226.112 223.455 237.932 223.343C246.197 223.277 254.353 221.881 262.837 219.676C266.152 218.804 273.39 216.427 279.325 213.897C284.297 211.76 288.419 209.536 291.734 206.922C294.483 204.719 296.728 202.256 298.299 199.071C300.48 194.709 300.872 189.693 299.237 184.983C300.747 181.379 301.14 177.257 299.941 172.7ZM291.501 184.673C293.172 187.844 293.279 191.427 291.805 194.764C289.569 199.821 284.015 203.805 273.228 208.082C266.52 210.742 260.378 212.443 260.324 212.458C251.452 214.759 243.428 215.928 236.482 215.928C224.98 215.928 216.421 212.754 210.993 206.486C201.814 208.05 192.442 208.103 183.246 206.644C177.811 212.808 169.301 215.928 157.896 215.928C150.949 215.928 142.926 214.759 134.053 212.458C133.999 212.443 127.859 210.742 121.149 208.082C110.363 203.805 104.807 199.824 102.572 194.764C101.098 191.427 101.205 187.844 102.876 184.673C103.03 184.378 103.196 184.091 103.373 183.813C102.371 182.309 101.7 180.61 101.402 178.827C101.104 177.045 101.187 175.22 101.645 173.472C102.309 170.949 103.68 168.851 105.542 167.344C104.645 165.87 104.056 164.23 103.812 162.522C103.276 158.808 104.509 155.1 107.282 152.076C109.442 149.723 112.495 148.428 115.875 148.428H115.965C113.416 140.259 112.124 131.75 112.133 123.193C112.133 76.522 149.969 38.683 196.647 38.683C243.324 38.683 281.16 76.518 281.16 123.193C281.167 131.773 279.866 140.304 277.301 148.492C277.709 148.452 278.109 148.432 278.502 148.431C281.882 148.431 284.936 149.726 287.094 152.079C289.867 155.1 291.101 158.811 290.564 162.525C290.32 164.233 289.731 165.873 288.835 167.347C290.697 168.854 292.069 170.952 292.732 173.475C293.19 175.223 293.273 177.048 292.975 178.831C292.678 180.613 292.006 182.312 291.004 183.816C291.181 184.091 291.349 184.378 291.501 184.673Z" fill="white"/>
<path d="M291.002 183.816C292.004 182.312 292.676 180.613 292.974 178.831C293.271 177.048 293.188 175.223 292.73 173.475C292.066 170.952 290.694 168.854 288.833 167.347C289.73 165.873 290.318 164.233 290.562 162.525C291.099 158.811 289.866 155.103 287.092 152.079C284.934 149.726 281.88 148.431 278.5 148.431C278.107 148.431 277.707 148.452 277.299 148.492C279.861 140.304 281.16 131.774 281.151 123.195C281.151 76.5231 243.315 38.6851 196.642 38.6851C149.968 38.6851 112.128 76.5191 112.128 123.195C112.12 131.752 113.412 140.261 115.96 148.43H115.87C112.49 148.43 109.437 149.724 107.278 152.077C104.505 155.098 103.271 158.81 103.808 162.523C104.053 164.231 104.641 165.872 105.538 167.346C103.676 168.852 102.304 170.95 101.64 173.473C101.182 175.222 101.1 177.047 101.398 178.83C101.696 180.612 102.368 182.312 103.37 183.816C103.192 184.094 103.028 184.381 102.873 184.676C101.203 187.847 101.095 191.43 102.57 194.767C104.806 199.824 110.36 203.808 121.147 208.085C127.854 210.745 133.997 212.446 134.051 212.461C142.923 214.762 150.947 215.931 157.893 215.931C169.299 215.931 177.809 212.811 183.244 206.647C192.44 208.106 201.812 208.052 210.991 206.489C216.419 212.757 224.978 215.931 236.48 215.931C243.426 215.931 251.45 214.762 260.321 212.461C260.376 212.446 266.516 210.745 273.226 208.085C284.013 203.808 289.568 199.824 291.803 194.767C293.277 191.43 293.17 187.847 291.499 184.676C291.347 184.379 291.179 184.091 291.002 183.816ZM179.355 196.997C178.887 197.815 178.386 198.614 177.853 199.391C176.448 201.448 174.6 203.02 172.455 204.188C168.355 206.424 163.165 207.205 157.893 207.205C149.564 207.205 141.026 205.256 136.241 204.015C136.005 203.954 106.907 195.735 110.591 188.739C111.211 187.562 112.231 187.092 113.516 187.092C118.703 187.092 128.148 194.816 132.207 194.816C133.114 194.816 133.754 194.43 134.015 193.488C135.745 187.284 107.722 184.676 110.082 175.692C110.498 174.102 111.628 173.456 113.216 173.456C120.074 173.455 135.466 185.516 138.685 185.516C138.932 185.516 139.109 185.443 139.205 185.291C139.219 185.268 139.233 185.246 139.246 185.222C140.757 182.727 139.89 180.913 129.539 174.573L128.545 173.968C117.154 167.074 109.159 162.925 113.706 157.975C114.229 157.404 114.971 157.151 115.872 157.151C116.94 157.151 118.233 157.508 119.657 158.108C125.673 160.645 134.011 167.564 137.494 170.581C138.042 171.057 138.587 171.538 139.127 172.022C139.127 172.022 143.537 176.608 146.203 176.608C146.817 176.608 147.338 176.366 147.691 175.768C149.582 172.58 130.128 157.838 129.031 151.755C128.287 147.634 129.553 145.546 131.893 145.546C133.006 145.546 134.364 146.02 135.863 146.971C140.513 149.922 149.491 165.35 152.778 171.352C153.88 173.363 155.761 174.213 157.456 174.213C160.819 174.213 163.448 170.87 157.764 166.622C149.221 160.23 152.219 149.782 156.296 149.139C156.47 149.111 156.646 149.097 156.821 149.097C160.529 149.097 162.164 155.486 162.164 155.486C162.164 155.486 166.958 167.524 175.193 175.753C182.665 183.222 183.709 189.351 179.355 196.997ZM205.984 198.407L205.557 198.458L204.829 198.541C204.446 198.581 204.062 198.619 203.677 198.654L203.302 198.688L202.959 198.717L202.473 198.756L201.936 198.795L201.4 198.83L201.281 198.838C201.141 198.846 201.001 198.855 200.859 198.862L200.68 198.872C200.514 198.881 200.348 198.889 200.18 198.896L199.599 198.921L199.072 198.939L198.72 198.949H198.541C198.431 198.949 198.322 198.955 198.212 198.956H198.038C197.928 198.956 197.819 198.956 197.709 198.961L197.261 198.967H196.636C196.145 198.967 195.655 198.962 195.167 198.952L194.771 198.943C194.658 198.943 194.545 198.938 194.434 198.934L194.014 198.922L193.493 198.902L193.023 198.881L192.902 198.876L192.455 198.853C192.33 198.846 192.207 198.84 192.083 198.831L191.794 198.814C191.431 198.791 191.068 198.766 190.705 198.738L190.325 198.707C190.165 198.695 190.005 198.68 189.846 198.666C189.659 198.65 189.472 198.632 189.285 198.614C188.972 198.585 188.659 198.553 188.346 198.519H188.331C192.901 188.324 190.59 178.802 181.355 169.575C175.298 163.526 171.269 154.594 170.433 152.633C168.741 146.828 164.263 140.375 156.826 140.375C156.197 140.375 155.569 140.425 154.948 140.523C151.69 141.036 148.842 142.911 146.81 145.733C144.614 143.002 142.48 140.831 140.55 139.605C137.64 137.76 134.736 136.824 131.907 136.824C128.376 136.824 125.22 138.274 123.02 140.904L122.964 140.971C122.922 140.798 122.882 140.625 122.841 140.451L122.836 140.428C122.417 138.638 122.066 136.833 121.782 135.016C121.782 135.004 121.782 134.992 121.776 134.98C121.754 134.843 121.734 134.705 121.713 134.568C121.652 134.162 121.594 133.755 121.54 133.348C121.516 133.163 121.49 132.978 121.467 132.793L121.399 132.238C121.377 132.053 121.359 131.885 121.339 131.709L121.333 131.665C121.253 130.945 121.183 130.225 121.123 129.503L121.101 129.226L121.066 128.754C121.056 128.625 121.046 128.495 121.039 128.365C121.039 128.334 121.034 128.304 121.033 128.275C121.008 127.913 120.986 127.55 120.968 127.187C120.958 126.998 120.948 126.81 120.94 126.62L120.92 126.124L120.915 125.974L120.899 125.517L120.889 125.128C120.889 124.973 120.881 124.818 120.879 124.663C120.876 124.508 120.872 124.338 120.871 124.174C120.869 124.01 120.871 123.848 120.866 123.685C120.862 123.521 120.866 123.358 120.866 123.195C120.866 81.3421 154.797 47.4111 196.654 47.4111C238.51 47.4111 272.44 81.3411 272.44 123.195V124.174C272.44 124.337 272.435 124.501 272.432 124.663C272.432 124.798 272.426 124.931 272.422 125.068C272.422 125.188 272.417 125.309 272.413 125.425C272.413 125.578 272.404 125.731 272.399 125.884V125.896L272.378 126.427C272.371 126.582 272.365 126.738 272.357 126.893L272.352 127.003L272.325 127.499C272.266 128.562 272.185 129.623 272.084 130.683V130.696C272.067 130.87 272.05 131.044 272.031 131.218L271.986 131.629L271.897 132.433L271.846 132.84L271.783 133.319C271.76 133.493 271.737 133.668 271.711 133.841C271.685 134.036 271.656 134.23 271.627 134.424L271.558 134.883L271.476 135.403C271.448 135.576 271.418 135.748 271.386 135.92C271.353 136.093 271.327 136.265 271.297 136.437C271.237 136.781 271.174 137.125 271.108 137.468C271.007 137.981 270.904 138.493 270.798 139.005L270.688 139.512C270.652 139.681 270.613 139.851 270.575 140.02C268.442 137.947 265.617 136.818 262.502 136.818C259.675 136.818 256.768 137.753 253.859 139.598C251.929 140.824 249.796 142.996 247.599 145.726C245.564 142.904 242.716 141.029 239.46 140.516C238.839 140.418 238.211 140.368 237.582 140.368C230.143 140.368 225.668 146.821 223.975 152.626C223.135 154.587 219.105 163.519 213.043 169.577C203.814 178.775 201.486 188.254 205.984 198.407ZM284.225 177.998L284.195 178.087C284.119 178.288 284.031 178.484 283.932 178.674C283.857 178.814 283.776 178.95 283.688 179.082C283.521 179.331 283.338 179.569 283.139 179.793C283.093 179.845 283.049 179.897 282.997 179.948C282.925 180.025 282.852 180.101 282.777 180.175C281.431 181.509 279.379 182.679 277.059 183.752C276.796 183.871 276.529 183.99 276.26 184.11L275.992 184.229C275.813 184.308 275.634 184.386 275.446 184.463C275.267 184.541 275.081 184.619 274.895 184.695L274.337 184.925C273.032 185.462 271.695 185.974 270.391 186.479L269.833 186.696L269.282 186.912C268.915 187.055 268.553 187.198 268.197 187.341L267.666 187.555L267.144 187.768L266.888 187.876C266.717 187.947 266.55 188.018 266.383 188.089C262.546 189.736 259.785 191.411 260.365 193.489C260.381 193.548 260.399 193.604 260.419 193.659C260.471 193.813 260.542 193.958 260.631 194.095C260.683 194.176 260.743 194.253 260.81 194.323C261.492 195.032 262.733 194.92 264.298 194.357C264.518 194.276 264.737 194.192 264.954 194.104L265.09 194.048C265.448 193.896 265.827 193.726 266.214 193.542C266.311 193.496 266.409 193.452 266.507 193.401C268.421 192.465 270.59 191.205 272.742 190.058C273.603 189.593 274.476 189.152 275.36 188.733C277.398 187.774 279.314 187.094 280.854 187.094C281.577 187.094 282.215 187.242 282.747 187.582L282.836 187.641C283.17 187.876 283.45 188.178 283.659 188.528C283.7 188.595 283.74 188.666 283.779 188.739C284.54 190.184 283.903 191.68 282.412 193.147C280.981 194.556 278.755 195.937 276.225 197.215C276.037 197.31 275.849 197.405 275.658 197.498C268.128 201.196 258.267 203.981 258.13 204.016C255.502 204.697 251.744 205.591 247.51 206.26L246.884 206.358L246.781 206.373C246.307 206.445 245.832 206.512 245.356 206.574C244.873 206.639 244.385 206.698 243.894 206.753L243.804 206.763C242.024 206.968 240.237 207.104 238.446 207.169H238.42C237.772 207.192 237.125 207.204 236.477 207.204H235.73C234.742 207.191 233.756 207.146 232.771 207.07C232.748 207.07 232.723 207.07 232.7 207.064C232.347 207.037 231.995 207.004 231.643 206.965C231.278 206.926 230.914 206.882 230.551 206.833C230.312 206.801 230.074 206.765 229.836 206.726C229.594 206.687 229.352 206.647 229.111 206.605L228.782 206.543L228.757 206.538C228.41 206.472 228.065 206.399 227.721 206.319C227.521 206.274 227.322 206.23 227.125 206.176L227.006 206.146C226.908 206.122 226.813 206.096 226.716 206.07L226.663 206.056L226.355 205.966C226.243 205.935 226.131 205.901 226.019 205.868L225.98 205.857L225.689 205.768C225.579 205.734 225.469 205.698 225.36 205.662L225.092 205.573L224.895 205.504C224.705 205.437 224.516 205.368 224.329 205.296L224.151 205.226L224.004 205.168C223.72 205.054 223.438 204.935 223.159 204.81L222.974 204.72L222.943 204.706C222.877 204.675 222.812 204.644 222.746 204.617C222.617 204.555 222.489 204.491 222.362 204.426L222.323 204.407L222.139 204.31C221.812 204.139 221.492 203.957 221.178 203.764L221.006 203.658C220.92 203.605 220.834 203.55 220.75 203.494L220.526 203.346L220.285 203.18L220.141 203.077C219.989 202.969 219.84 202.857 219.694 202.742L219.461 202.563C219.368 202.488 219.276 202.412 219.185 202.335C219.108 202.272 219.033 202.206 218.958 202.14L218.952 202.135C218.871 202.064 218.792 201.993 218.713 201.92C218.635 201.849 218.557 201.777 218.481 201.704L218.472 201.695C218.392 201.619 218.314 201.542 218.237 201.463C218.16 201.385 218.081 201.307 218.006 201.227C217.931 201.148 217.854 201.067 217.78 200.984C217.706 200.902 217.638 200.827 217.568 200.746L217.545 200.719C217.477 200.641 217.41 200.562 217.344 200.481C217.201 200.31 217.062 200.135 216.928 199.956C216.793 199.776 216.661 199.592 216.532 199.405L216.409 199.221C216.245 198.981 216.085 198.739 215.93 198.493C215.814 198.316 215.701 198.138 215.591 197.957C215.52 197.844 215.452 197.73 215.384 197.618L215.356 197.572C215.291 197.462 215.227 197.354 215.165 197.245C215.129 197.186 215.095 197.127 215.063 197.066C215.03 197.004 214.992 196.941 214.957 196.878L214.9 196.779L214.865 196.715C214.798 196.595 214.732 196.474 214.668 196.352C214.638 196.298 214.609 196.244 214.578 196.192L214.489 196.019L214.399 195.848C214.174 195.398 213.961 194.942 213.761 194.48L213.69 194.311C213.644 194.198 213.601 194.086 213.555 193.975C213.533 193.921 213.511 193.868 213.492 193.814C213.385 193.537 213.285 193.257 213.193 192.975C213.16 192.874 213.128 192.775 213.098 192.675C213.026 192.448 212.961 192.219 212.903 191.988C212.832 191.719 212.769 191.448 212.716 191.175C212.705 191.12 212.694 191.065 212.685 191.012C212.633 190.745 212.591 190.476 212.558 190.206C212.55 190.153 212.544 190.1 212.538 190.047L212.521 189.885C212.499 189.673 212.482 189.46 212.472 189.247C212.472 189.193 212.467 189.139 212.465 189.087C212.46 188.981 212.458 188.875 212.457 188.769C212.401 184.496 214.563 180.388 219.186 175.767C227.421 167.54 232.215 155.501 232.215 155.501C232.215 155.501 232.344 154.996 232.612 154.269C232.649 154.168 232.688 154.064 232.732 153.955C232.888 153.548 233.064 153.148 233.259 152.758L233.298 152.683C233.464 152.351 233.646 152.027 233.842 151.712C233.888 151.639 233.932 151.567 233.983 151.494C234.13 151.277 234.285 151.065 234.448 150.86C234.537 150.749 234.634 150.639 234.731 150.532C234.77 150.49 234.808 150.448 234.849 150.408C235.326 149.915 235.871 149.513 236.488 149.299L236.566 149.273C236.618 149.256 236.67 149.24 236.723 149.225C236.784 149.209 236.845 149.195 236.908 149.182L236.937 149.176C237.067 149.15 237.199 149.133 237.332 149.124H237.343C237.412 149.124 237.482 149.117 237.553 149.117C237.642 149.117 237.725 149.117 237.812 149.126C237.902 149.134 237.991 149.144 238.081 149.158C238.823 149.276 239.529 149.718 240.137 150.4C240.368 150.66 240.576 150.94 240.758 151.236C240.878 151.428 240.991 151.631 241.098 151.845C241.141 151.934 241.182 152.016 241.222 152.104C241.326 152.33 241.42 152.56 241.502 152.795C241.697 153.345 241.844 153.911 241.941 154.487C242.025 154.992 242.075 155.502 242.091 156.013C242.099 156.286 242.099 156.563 242.091 156.842C242.037 158.14 241.771 159.421 241.304 160.634C241.262 160.745 241.215 160.857 241.17 160.969C241.078 161.195 240.977 161.417 240.868 161.634C240.787 161.799 240.702 161.965 240.61 162.13C240.55 162.24 240.487 162.35 240.424 162.46C240.263 162.734 240.089 163.006 239.902 163.277L239.789 163.439C239.347 164.055 238.855 164.633 238.317 165.167C237.787 165.698 237.219 166.189 236.618 166.637C236.016 167.083 235.451 167.577 234.929 168.114C233.426 169.691 233.076 171.083 233.414 172.138C233.468 172.304 233.539 172.465 233.625 172.617C233.726 172.791 233.846 172.951 233.982 173.097L234.035 173.152L234.089 173.206C234.143 173.258 234.2 173.309 234.261 173.359L234.321 173.407C234.466 173.519 234.62 173.619 234.781 173.707C234.828 173.732 234.87 173.757 234.923 173.781C235.097 173.866 235.276 173.939 235.46 173.998C235.511 174.015 235.562 174.03 235.614 174.046L235.679 174.063L235.769 174.087L235.846 174.106L235.93 174.124L236.013 174.141L236.092 174.154C236.15 174.164 236.21 174.174 236.27 174.181L236.327 174.19L236.431 174.2L236.495 174.207L236.6 174.214H236.662L236.772 174.22H237.118L237.217 174.214L237.331 174.207L237.47 174.194L237.6 174.179C237.63 174.179 237.66 174.171 237.69 174.165C238.09 174.107 238.482 174.001 238.857 173.849L239.016 173.782C239.105 173.743 239.195 173.702 239.277 173.658C239.453 173.57 239.624 173.47 239.788 173.361C240.017 173.211 240.233 173.043 240.435 172.858C240.483 172.815 240.53 172.769 240.576 172.725C240.599 172.703 240.621 172.682 240.643 172.658C240.687 172.613 240.732 172.569 240.776 172.52C241.096 172.168 241.373 171.78 241.601 171.363C243.558 167.804 245.609 164.298 247.752 160.849L248.046 160.378L248.343 159.907C248.491 159.668 248.641 159.433 248.79 159.199L248.94 158.965C249.438 158.185 249.944 157.41 250.459 156.641L250.764 156.185C251.376 155.278 251.986 154.396 252.591 153.558L252.892 153.143C253.55 152.236 254.235 151.348 254.946 150.482L255.228 150.144C255.275 150.088 255.318 150.032 255.369 149.978C255.462 149.868 255.555 149.761 255.646 149.657C255.692 149.604 255.735 149.552 255.784 149.5L256.052 149.198L256.186 149.051C256.321 148.906 256.453 148.767 256.583 148.634C256.673 148.544 256.756 148.455 256.842 148.371C257.349 147.853 257.908 147.388 258.511 146.985L258.651 146.895C258.785 146.805 258.924 146.721 259.066 146.645C261.43 145.303 263.387 145.204 264.514 146.331C265.196 147.013 265.574 148.144 265.553 149.718C265.553 149.787 265.553 149.857 265.548 149.929V150.006C265.548 150.078 265.542 150.15 265.536 150.223C265.536 150.313 265.526 150.402 265.517 150.492C265.508 150.581 265.503 150.649 265.494 150.729C265.494 150.751 265.49 150.774 265.486 150.798C265.48 150.867 265.471 150.938 265.461 151.009C265.461 151.03 265.461 151.052 265.453 151.074C265.442 151.169 265.428 151.263 265.412 151.357C265.401 151.447 265.386 151.531 265.37 151.619L265.344 151.768C265.318 151.91 265.285 152.05 265.244 152.188C265.166 152.447 265.072 152.7 264.961 152.946C264.806 153.284 264.635 153.613 264.447 153.933C264.343 154.111 264.236 154.286 264.125 154.459C264.011 154.638 263.891 154.819 263.767 155.002C263.451 155.454 263.123 155.897 262.782 156.33L262.626 156.527C262.07 157.22 261.496 157.899 260.904 158.562L260.717 158.772C260.465 159.053 260.209 159.336 259.947 159.62L259.75 159.834C259.619 159.977 259.482 160.12 259.35 160.264C259.219 160.407 259.082 160.552 258.944 160.697L258.533 161.13L258.116 161.566L257.696 162.002C257.414 162.294 257.131 162.586 256.846 162.878C252.791 167.037 248.519 171.182 247.073 173.766C246.976 173.934 246.889 174.108 246.811 174.285C246.605 174.755 246.519 175.157 246.578 175.482C246.597 175.589 246.634 175.691 246.689 175.785C246.77 175.926 246.869 176.056 246.984 176.172C247.037 176.224 247.093 176.272 247.152 176.316C247.45 176.528 247.809 176.637 248.175 176.627H248.289L248.406 176.618L248.523 176.605L248.62 176.591C248.633 176.589 248.647 176.587 248.66 176.583L248.749 176.566L248.772 176.561L248.871 176.54L248.906 176.531C248.941 176.522 248.975 176.513 249.01 176.503C249.045 176.493 249.093 176.48 249.135 176.466C249.311 176.413 249.483 176.35 249.652 176.278C249.741 176.242 249.828 176.203 249.914 176.161C249.959 176.141 250.004 176.12 250.046 176.098L250.18 176.032C250.5 175.866 250.812 175.685 251.116 175.491L251.249 175.401C251.294 175.373 251.339 175.344 251.382 175.312L251.515 175.223L251.586 175.174L251.778 175.039C251.957 174.916 252.124 174.789 252.293 174.66L252.308 174.648L252.577 174.44C252.944 174.15 253.292 173.858 253.608 173.583L253.818 173.399L253.837 173.381L253.947 173.284C254.205 173.052 254.435 172.836 254.626 172.658L254.705 172.581C254.774 172.516 254.837 172.455 254.894 172.403L255.006 172.292L255.046 172.253L255.057 172.242L255.174 172.125L255.248 172.048L255.257 172.041L255.292 172.009L255.336 171.969L255.35 171.956L255.387 171.922L255.591 171.743L255.705 171.641C255.766 171.588 255.825 171.534 255.884 171.479L256.02 171.358C256.045 171.338 256.069 171.316 256.094 171.294L256.237 171.169L256.447 170.984L256.559 170.887C256.994 170.509 257.523 170.052 258.131 169.537L258.38 169.326L258.791 168.981L259.212 168.63C259.762 168.173 260.354 167.688 260.98 167.185L261.391 166.855C261.741 166.576 262.1 166.292 262.464 166.006C262.611 165.891 262.76 165.776 262.912 165.662C263.284 165.373 263.658 165.086 264.035 164.803C264.893 164.155 265.778 163.506 266.674 162.874L267.058 162.606C267.327 162.421 267.595 162.235 267.863 162.054L268.106 161.89C268.585 161.565 269.071 161.248 269.561 160.939L269.804 160.786L270.045 160.636C270.287 160.486 270.527 160.339 270.766 160.196L271.005 160.053L271.483 159.775L271.952 159.506L272.047 159.454L272.418 159.25C272.573 159.166 272.727 159.085 272.881 159.006L273.11 158.888L273.333 158.776C273.411 158.739 273.488 158.7 273.564 158.663C274.066 158.415 274.578 158.187 275.098 157.979C275.239 157.919 275.379 157.865 275.518 157.818L275.928 157.674C276.051 157.633 276.171 157.594 276.286 157.559L276.326 157.547C276.388 157.527 276.45 157.509 276.511 157.493L276.529 157.488C276.657 157.451 276.784 157.419 276.909 157.389H276.918C277.272 157.304 277.632 157.243 277.995 157.206C278.162 157.189 278.329 157.18 278.497 157.181H278.581C278.693 157.181 278.801 157.188 278.908 157.199C278.957 157.199 279.006 157.209 279.054 157.215H279.074C279.122 157.221 279.17 157.228 279.218 157.239C279.265 157.248 279.313 157.256 279.359 157.267H279.374C279.421 157.277 279.463 157.289 279.512 157.303C279.766 157.374 280.008 157.484 280.23 157.628C280.339 157.699 280.441 157.779 280.535 157.868L280.562 157.894C280.58 157.91 280.597 157.927 280.613 157.944L280.662 157.997C281.064 158.418 281.396 158.901 281.646 159.427L281.684 159.517C281.769 159.717 281.836 159.924 281.884 160.135C282.026 160.781 281.971 161.455 281.726 162.07C281.633 162.318 281.52 162.557 281.387 162.785C281.076 163.309 280.707 163.796 280.288 164.237L280.199 164.332C280.066 164.472 279.928 164.612 279.783 164.752C279.719 164.815 279.652 164.877 279.585 164.94L279.38 165.129L279.273 165.224C279.015 165.454 278.75 165.677 278.481 165.893C278.318 166.025 278.154 166.154 277.988 166.281C277.402 166.729 276.805 167.161 276.197 167.578C275.83 167.83 275.46 168.077 275.087 168.321C274.168 168.924 273.239 169.512 272.301 170.084C270.333 171.294 268.152 172.588 265.827 173.995L265.225 174.36C264.566 174.762 263.944 175.146 263.358 175.512L263.063 175.697L262.505 176.055C262.135 176.292 261.766 176.531 261.397 176.77L261.1 176.966C260.955 177.06 260.811 177.156 260.667 177.252L260.526 177.342L260.094 177.633L259.865 177.79L259.597 177.976L259.348 178.149C258.931 178.444 258.543 178.725 258.186 178.992L258.052 179.094C257.842 179.253 257.634 179.415 257.429 179.58C257.12 179.829 256.838 180.067 256.585 180.296L256.461 180.409C256.39 180.474 256.32 180.539 256.253 180.603C256.207 180.648 256.164 180.693 256.116 180.736L256.052 180.8C255.909 180.944 255.769 181.091 255.634 181.242L255.568 181.318C255.421 181.488 255.293 181.651 255.181 181.81L255.131 181.881C255.043 182.009 254.962 182.141 254.889 182.277C254.87 182.311 254.853 182.345 254.836 182.379L254.787 182.481L254.754 182.555L254.733 182.605L254.716 182.65L254.693 182.711C254.631 182.88 254.588 183.056 254.563 183.234L254.555 183.296L254.549 183.354V183.669C254.549 183.695 254.549 183.721 254.556 183.749L254.561 183.797C254.561 183.823 254.567 183.848 254.571 183.876C254.575 183.902 254.582 183.949 254.59 183.986V183.991C254.597 184.026 254.604 184.06 254.613 184.095C254.622 184.13 254.631 184.17 254.642 184.206C254.661 184.277 254.685 184.347 254.71 184.417C254.726 184.459 254.741 184.5 254.758 184.541C254.758 184.549 254.764 184.558 254.768 184.566L254.804 184.647L254.854 184.758C254.908 184.873 254.967 184.985 255.031 185.094L255.097 185.208L255.165 185.322C255.177 185.341 255.191 185.359 255.206 185.376L255.228 185.399L255.253 185.422L255.279 185.442C255.317 185.469 255.358 185.49 255.401 185.505C255.424 185.513 255.448 185.519 255.472 185.525C256.049 185.655 257.235 185.178 258.811 184.346C258.9 184.298 258.998 184.248 259.093 184.196L259.573 183.934L259.807 183.804C259.974 183.715 260.144 183.614 260.318 183.515L260.635 183.336C262.718 182.137 265.206 180.597 267.778 179.093C268.019 178.952 268.261 178.811 268.503 178.672L268.989 178.361C269.553 178.038 270.12 177.719 270.689 177.404C271.406 177.01 272.128 176.626 272.857 176.254L273.333 176.013C273.649 175.857 273.962 175.705 274.271 175.557C274.869 175.273 275.474 175.003 276.086 174.748L276.421 174.612L276.461 174.596C278.236 173.893 279.845 173.459 281.147 173.459C281.428 173.456 281.71 173.48 281.987 173.528H281.996C282.085 173.544 282.166 173.562 282.249 173.582H282.264C282.477 173.636 282.684 173.713 282.88 173.812C283.155 173.954 283.402 174.143 283.611 174.371C283.707 174.477 283.792 174.592 283.867 174.714C284.007 174.929 284.117 175.162 284.196 175.406C284.228 175.501 284.256 175.594 284.285 175.693C284.496 176.45 284.475 177.253 284.225 177.998Z" fill="#FF9D00"/>
<path fill-rule="evenodd" clip-rule="evenodd" d="M272.429 123.685V123.194C272.429 81.34 238.511 47.411 196.654 47.411C154.798 47.411 120.867 81.342 120.867 123.194V123.358C120.865 123.467 120.864 123.576 120.867 123.685C120.871 123.848 120.873 124.011 120.872 124.174L120.877 124.534L120.88 124.663C120.88 124.723 120.882 124.782 120.884 124.842C120.887 124.937 120.889 125.033 120.889 125.128L120.9 125.517L120.916 125.974L120.921 126.124L120.941 126.597V126.62C120.949 126.805 120.959 126.989 120.968 127.173L120.969 127.187C120.979 127.375 120.989 127.564 121.001 127.753C121.011 127.927 121.021 128.101 121.034 128.275L121.036 128.306C121.044 128.455 121.054 128.605 121.066 128.754L121.069 128.794L121.102 129.226L121.105 129.254C121.111 129.338 121.117 129.422 121.125 129.503C121.184 130.224 121.254 130.945 121.334 131.664L121.339 131.709L121.4 132.238L121.468 132.793L121.518 133.17L121.541 133.347C121.594 133.755 121.652 134.162 121.714 134.568L121.718 134.595L121.777 134.979C122.062 136.808 122.416 138.626 122.837 140.429L122.842 140.451L122.874 140.586L122.965 140.971L123.021 140.904C125.221 138.274 128.377 136.824 131.908 136.824C134.738 136.824 137.641 137.76 140.551 139.605C142.481 140.831 144.615 143.002 146.811 145.733C148.843 142.911 151.691 141.035 154.949 140.523C155.57 140.425 156.198 140.376 156.827 140.375C164.263 140.375 168.742 146.828 170.434 152.633C171.27 154.594 175.299 163.526 181.375 169.568C190.611 178.795 192.922 188.316 188.351 198.511H188.367C188.678 198.546 188.991 198.578 189.306 198.607C189.493 198.625 189.679 198.643 189.867 198.659L189.933 198.665L190.346 198.7L190.726 198.73C191.088 198.758 191.451 198.784 191.815 198.807L192.104 198.824L192.333 198.838L192.475 198.846L192.922 198.869L193.044 198.874L193.513 198.895L194.035 198.915L194.454 198.927L194.524 198.929C194.613 198.933 194.702 198.936 194.791 198.936L194.887 198.939C195.477 198.953 196.066 198.96 196.656 198.959H197.282L197.729 198.954C197.839 198.949 197.948 198.949 198.059 198.949H198.233L198.384 198.945C198.443 198.943 198.502 198.941 198.562 198.941H198.741L199.092 198.932L199.62 198.914L200.201 198.888C200.369 198.882 200.535 198.873 200.701 198.865L200.88 198.854L201.146 198.84L201.302 198.831L201.42 198.823L201.957 198.788L202.493 198.749L202.98 198.71L203.322 198.681L203.698 198.647C204.326 198.591 204.952 198.525 205.578 198.45L206.005 198.399C201.506 188.247 203.835 178.767 213.032 169.577C219.095 163.519 223.124 154.587 223.964 152.625C225.657 146.821 230.133 140.368 237.571 140.368C238.2 140.368 238.829 140.418 239.45 140.516C242.705 141.028 245.553 142.904 247.588 145.726C249.785 142.996 251.918 140.823 253.849 139.597C256.758 137.753 259.664 136.817 262.491 136.817C265.607 136.817 268.431 137.947 270.564 140.02C270.603 139.851 270.641 139.682 270.678 139.512L270.787 139.006C270.826 138.821 270.865 138.636 270.902 138.451C270.968 138.124 271.034 137.797 271.097 137.467C271.163 137.125 271.226 136.781 271.286 136.437L271.317 136.251C271.336 136.141 271.354 136.031 271.375 135.92C271.409 135.748 271.437 135.576 271.465 135.402L271.476 135.336L271.547 134.883L271.617 134.424V134.42C271.668 134.081 271.716 133.742 271.761 133.403L271.772 133.319L271.835 132.841L271.886 132.433L271.976 131.629L272.011 131.306L272.02 131.218C272.039 131.044 272.057 130.87 272.073 130.696V130.682C272.086 130.544 272.1 130.405 272.112 130.266C272.183 129.478 272.243 128.686 272.291 127.891C272.3 127.761 272.307 127.63 272.315 127.499V127.493L272.341 127.002L272.347 126.892C272.363 126.56 272.377 126.228 272.388 125.896V125.884L272.393 125.754C272.398 125.645 272.402 125.535 272.402 125.425L272.404 125.381C272.408 125.278 272.412 125.172 272.412 125.067L272.415 124.977C272.418 124.872 272.421 124.768 272.421 124.663L272.423 124.574C272.426 124.441 272.429 124.307 272.429 124.174V123.685ZM177.857 199.391C183.859 190.59 183.433 183.984 175.199 175.754C166.963 167.523 162.17 155.487 162.17 155.487C162.17 155.487 160.381 148.496 156.301 149.138C152.221 149.78 149.228 160.227 157.771 166.622C166.313 173.017 156.071 177.353 152.783 171.352C149.495 165.35 140.518 149.923 135.864 146.972C131.21 144.021 127.937 145.675 129.034 151.757C129.579 154.776 134.647 159.929 139.382 164.743C144.186 169.627 148.647 174.163 147.693 175.768C145.8 178.955 139.133 172.023 139.133 172.023C139.133 172.023 118.257 153.025 113.713 157.976C109.523 162.539 115.984 166.418 125.94 172.397C126.786 172.905 127.658 173.429 128.551 173.969C139.942 180.865 140.828 182.684 139.211 185.293C138.614 186.257 134.801 183.968 130.111 181.153C122.116 176.352 111.574 170.023 110.085 175.688C108.797 180.591 116.553 183.595 123.587 186.32C129.447 188.59 134.807 190.666 134.018 193.484C133.201 196.406 128.772 193.969 123.931 191.305C118.496 188.314 112.541 185.038 110.592 188.735C106.909 195.725 136.002 203.954 136.242 204.015C145.642 206.453 169.514 211.619 177.857 199.391ZM216.522 199.391C210.52 190.59 210.946 183.984 219.181 175.754C227.416 167.523 232.209 155.487 232.209 155.487C232.209 155.487 233.998 148.496 238.078 149.138C242.158 149.78 245.151 160.227 236.609 166.622C228.066 173.017 238.308 177.353 241.596 171.352C244.885 165.35 253.856 149.923 258.51 146.972C263.164 144.021 266.439 145.675 265.341 151.757C264.797 154.776 259.728 159.929 254.993 164.744C250.189 169.628 245.728 174.163 246.681 175.768C248.574 178.955 255.246 172.019 255.246 172.019C255.246 172.019 276.121 153.022 280.667 157.973C284.856 162.535 278.395 166.415 268.438 172.394C267.567 172.917 266.697 173.441 265.828 173.966C254.437 180.862 253.551 182.681 255.167 185.289C255.765 186.254 259.578 183.964 264.267 181.149C272.263 176.349 282.805 170.019 284.294 175.685C285.583 180.588 277.826 183.592 270.792 186.317C264.932 188.587 259.572 190.663 260.36 193.481C261.176 196.402 265.604 193.965 270.444 191.301C275.879 188.31 281.835 185.032 283.783 188.732C287.467 195.726 258.369 203.947 258.134 204.007C248.734 206.453 224.862 211.619 216.522 199.391Z" fill="#FFD21E"/>
<path fill-rule="evenodd" clip-rule="evenodd" d="M221.266 102.567C222.448 102.985 223.327 104.257 224.163 105.468C225.293 107.104 226.345 108.627 227.959 107.769C229.863 106.756 231.424 105.202 232.444 103.302C233.465 101.402 233.9 99.2427 233.694 97.096C233.54 95.4908 233.032 93.9398 232.206 92.5548C231.38 91.1697 230.257 89.985 228.919 89.0862C227.58 88.1874 226.058 87.5968 224.464 87.3569C222.869 87.117 221.241 87.2339 219.697 87.699C218.153 88.1639 216.732 88.9653 215.535 90.0455C214.338 91.1257 213.395 92.4578 212.775 93.946C212.155 95.4342 211.872 97.0415 211.947 98.652C212.023 100.263 212.454 101.836 213.211 103.26C213.959 104.667 215.619 104.003 217.371 103.302C218.744 102.753 220.175 102.181 221.266 102.567ZM169.891 102.567C168.709 102.985 167.83 104.258 166.994 105.468C165.864 107.105 164.811 108.627 163.198 107.769C160.803 106.501 158.967 104.386 158.047 101.838C157.126 99.2895 157.188 96.4896 158.22 93.9841C159.251 91.4786 161.179 89.4471 163.627 88.2855C166.075 87.1239 168.868 86.9156 171.461 87.701C173.526 88.3228 175.36 89.5427 176.732 91.2065C178.104 92.8704 178.951 94.9035 179.168 97.049C179.384 99.1945 178.959 101.356 177.947 103.26C177.198 104.667 175.538 104.003 173.786 103.303C172.412 102.753 170.983 102.181 169.891 102.567ZM213.318 149.318C221.461 142.903 224.452 132.429 224.452 125.977C224.452 120.877 221.021 122.482 215.528 125.202L215.218 125.355C210.176 127.852 203.464 131.177 196.096 131.177C188.727 131.177 182.015 127.852 176.974 125.354C171.303 122.545 167.746 120.783 167.746 125.978C167.746 132.634 170.928 143.563 179.662 149.912C180.815 147.573 182.438 145.497 184.43 143.813C186.421 142.129 188.739 140.874 191.237 140.126C192.109 139.866 193.007 141.367 193.926 142.904C194.813 144.386 195.72 145.902 196.642 145.902C197.625 145.902 198.59 144.408 199.533 142.95C200.518 141.425 201.479 139.94 202.408 140.237C207.083 141.738 210.994 144.993 213.318 149.318Z" fill="#32343D"/>
<path d="M213.316 149.317C209.075 152.659 203.438 154.9 196.097 154.9C189.2 154.9 183.806 152.922 179.662 149.911C180.815 147.572 182.438 145.495 184.43 143.812C186.421 142.128 188.739 140.873 191.237 140.125C192.949 139.614 194.764 145.901 196.642 145.901C198.652 145.901 200.589 139.655 202.408 140.236C207.082 141.738 210.992 144.993 213.316 149.317Z" fill="#FF323D"/>
<path fill-rule="evenodd" clip-rule="evenodd" d="M150.419 111.64C149.45 112.288 148.336 112.687 147.176 112.801C146.016 112.916 144.845 112.742 143.769 112.295C142.908 111.94 142.126 111.418 141.468 110.759C140.809 110.101 140.287 109.319 139.932 108.458C139.486 107.381 139.312 106.211 139.427 105.051C139.542 103.891 139.941 102.777 140.589 101.808C141.368 100.642 142.475 99.7333 143.77 99.1967C145.065 98.6601 146.491 98.5197 147.866 98.7935C149.241 99.0672 150.504 99.7427 151.495 100.734C152.486 101.726 153.161 102.99 153.434 104.365C153.707 105.74 153.566 107.165 153.03 108.46C152.494 109.755 151.584 110.861 150.419 111.64ZM251.832 111.64C250.863 112.288 249.749 112.687 248.589 112.801C247.428 112.916 246.258 112.742 245.181 112.295C244.32 111.939 243.538 111.418 242.88 110.759C242.222 110.101 241.7 109.319 241.344 108.458C240.899 107.381 240.726 106.211 240.84 105.051C240.955 103.891 241.354 102.777 242.001 101.808C242.583 100.936 243.352 100.205 244.251 99.6658C245.15 99.1269 246.157 98.7942 247.2 98.6917C248.244 98.5891 249.297 98.7193 250.283 99.0728C251.27 99.4264 252.166 99.9944 252.907 100.736C253.899 101.727 254.574 102.99 254.847 104.365C255.121 105.74 254.98 107.165 254.443 108.46C253.906 109.755 252.998 110.861 251.832 111.64Z" fill="#FFAD03"/>
<path d="M23.125 240.5V286H13.7812V240.5H23.125ZM37.125 240.5V247.844H0V240.5H37.125ZM48.7188 259.562V286H39.7188V252.188H48.1875L48.7188 259.562ZM58.9062 251.969L58.75 260.312C58.3125 260.25 57.7812 260.198 57.1562 260.156C56.5521 260.094 56 260.062 55.5 260.062C54.2292 260.062 53.125 260.229 52.1875 260.562C51.2708 260.875 50.5 261.344 49.875 261.969C49.2708 262.594 48.8125 263.354 48.5 264.25C48.2083 265.146 48.0417 266.167 48 267.312L46.1875 266.75C46.1875 264.562 46.4062 262.552 46.8438 260.719C47.2812 258.865 47.9167 257.25 48.75 255.875C49.6042 254.5 50.6458 253.438 51.875 252.688C53.1042 251.938 54.5104 251.562 56.0938 251.562C56.5938 251.562 57.1042 251.604 57.625 251.688C58.1458 251.75 58.5729 251.844 58.9062 251.969ZM80.3438 278.375V263.312C80.3438 262.229 80.1667 261.302 79.8125 260.531C79.4583 259.74 78.9062 259.125 78.1562 258.688C77.4271 258.25 76.4792 258.031 75.3125 258.031C74.3125 258.031 73.4479 258.208 72.7188 258.562C71.9896 258.896 71.4271 259.385 71.0312 260.031C70.6354 260.656 70.4375 261.396 70.4375 262.25H61.4375C61.4375 260.812 61.7708 259.448 62.4375 258.156C63.1042 256.865 64.0729 255.729 65.3438 254.75C66.6146 253.75 68.125 252.969 69.875 252.406C71.6458 251.844 73.625 251.562 75.8125 251.562C78.4375 251.562 80.7708 252 82.8125 252.875C84.8542 253.75 86.4583 255.062 87.625 256.812C88.8125 258.562 89.4062 260.75 89.4062 263.375V277.844C89.4062 279.698 89.5208 281.219 89.75 282.406C89.9792 283.573 90.3125 284.594 90.75 285.469V286H81.6562C81.2188 285.083 80.8854 283.938 80.6562 282.562C80.4479 281.167 80.3438 279.771 80.3438 278.375ZM81.5312 265.406L81.5938 270.5H76.5625C75.375 270.5 74.3438 270.635 73.4688 270.906C72.5938 271.177 71.875 271.562 71.3125 272.062C70.75 272.542 70.3333 273.104 70.0625 273.75C69.8125 274.396 69.6875 275.104 69.6875 275.875C69.6875 276.646 69.8646 277.344 70.2188 277.969C70.5729 278.573 71.0833 279.052 71.75 279.406C72.4167 279.74 73.1979 279.906 74.0938 279.906C75.4479 279.906 76.625 279.635 77.625 279.094C78.625 278.552 79.3958 277.885 79.9375 277.094C80.5 276.302 80.7917 275.552 80.8125 274.844L83.1875 278.656C82.8542 279.51 82.3958 280.396 81.8125 281.312C81.25 282.229 80.5312 283.094 79.6562 283.906C78.7812 284.698 77.7292 285.354 76.5 285.875C75.2708 286.375 73.8125 286.625 72.125 286.625C69.9792 286.625 68.0312 286.198 66.2812 285.344C64.5521 284.469 63.1771 283.271 62.1562 281.75C61.1562 280.208 60.6562 278.458 60.6562 276.5C60.6562 274.729 60.9896 273.156 61.6562 271.781C62.3229 270.406 63.3021 269.25 64.5938 268.312C65.9062 267.354 67.5417 266.635 69.5 266.156C71.4583 265.656 73.7292 265.406 76.3125 265.406H81.5312ZM105.156 259.406V286H96.1562V252.188H104.594L105.156 259.406ZM103.844 267.906H101.406C101.406 265.406 101.729 263.156 102.375 261.156C103.021 259.135 103.927 257.417 105.094 256C106.26 254.562 107.646 253.469 109.25 252.719C110.875 251.948 112.688 251.562 114.688 251.562C116.271 251.562 117.719 251.792 119.031 252.25C120.344 252.708 121.469 253.438 122.406 254.438C123.365 255.438 124.094 256.76 124.594 258.406C125.115 260.052 125.375 262.062 125.375 264.438V286H116.312V264.406C116.312 262.906 116.104 261.74 115.688 260.906C115.271 260.073 114.656 259.49 113.844 259.156C113.052 258.802 112.073 258.625 110.906 258.625C109.698 258.625 108.646 258.865 107.75 259.344C106.875 259.823 106.146 260.49 105.562 261.344C105 262.177 104.573 263.156 104.281 264.281C103.99 265.406 103.844 266.615 103.844 267.906ZM150.5 276.656C150.5 276.01 150.312 275.427 149.938 274.906C149.562 274.385 148.865 273.906 147.844 273.469C146.844 273.01 145.396 272.594 143.5 272.219C141.792 271.844 140.198 271.375 138.719 270.812C137.26 270.229 135.99 269.531 134.906 268.719C133.844 267.906 133.01 266.948 132.406 265.844C131.802 264.719 131.5 263.438 131.5 262C131.5 260.583 131.802 259.25 132.406 258C133.031 256.75 133.917 255.646 135.062 254.688C136.229 253.708 137.646 252.948 139.312 252.406C141 251.844 142.896 251.562 145 251.562C147.938 251.562 150.458 252.031 152.562 252.969C154.688 253.906 156.312 255.198 157.438 256.844C158.583 258.469 159.156 260.323 159.156 262.406H150.156C150.156 261.531 149.969 260.75 149.594 260.062C149.24 259.354 148.677 258.802 147.906 258.406C147.156 257.99 146.177 257.781 144.969 257.781C143.969 257.781 143.104 257.958 142.375 258.312C141.646 258.646 141.083 259.104 140.688 259.688C140.312 260.25 140.125 260.875 140.125 261.562C140.125 262.083 140.229 262.552 140.438 262.969C140.667 263.365 141.031 263.729 141.531 264.062C142.031 264.396 142.677 264.708 143.469 265C144.281 265.271 145.281 265.521 146.469 265.75C148.906 266.25 151.083 266.906 153 267.719C154.917 268.51 156.438 269.594 157.562 270.969C158.688 272.323 159.25 274.104 159.25 276.312C159.25 277.812 158.917 279.188 158.25 280.438C157.583 281.688 156.625 282.781 155.375 283.719C154.125 284.635 152.625 285.354 150.875 285.875C149.146 286.375 147.198 286.625 145.031 286.625C141.885 286.625 139.219 286.062 137.031 284.938C134.865 283.812 133.219 282.385 132.094 280.656C130.99 278.906 130.438 277.115 130.438 275.281H138.969C139.01 276.51 139.323 277.5 139.906 278.25C140.51 279 141.271 279.542 142.188 279.875C143.125 280.208 144.135 280.375 145.219 280.375C146.385 280.375 147.354 280.219 148.125 279.906C148.896 279.573 149.479 279.135 149.875 278.594C150.292 278.031 150.5 277.385 150.5 276.656ZM176.562 286H167.5V249.188C167.5 246.625 168 244.469 169 242.719C170.021 240.948 171.448 239.615 173.281 238.719C175.135 237.802 177.333 237.344 179.875 237.344C180.708 237.344 181.51 237.406 182.281 237.531C183.052 237.635 183.802 237.771 184.531 237.938L184.438 244.719C184.042 244.615 183.625 244.542 183.188 244.5C182.75 244.458 182.24 244.438 181.656 244.438C180.573 244.438 179.646 244.625 178.875 245C178.125 245.354 177.552 245.885 177.156 246.594C176.76 247.302 176.562 248.167 176.562 249.188V286ZM183.312 252.188V258.562H162.469V252.188H183.312ZM186.594 269.438V268.781C186.594 266.302 186.948 264.021 187.656 261.938C188.365 259.833 189.396 258.01 190.75 256.469C192.104 254.927 193.771 253.729 195.75 252.875C197.729 252 200 251.562 202.562 251.562C205.125 251.562 207.406 252 209.406 252.875C211.406 253.729 213.083 254.927 214.438 256.469C215.812 258.01 216.854 259.833 217.562 261.938C218.271 264.021 218.625 266.302 218.625 268.781V269.438C218.625 271.896 218.271 274.177 217.562 276.281C216.854 278.365 215.812 280.188 214.438 281.75C213.083 283.292 211.417 284.49 209.438 285.344C207.458 286.198 205.188 286.625 202.625 286.625C200.062 286.625 197.781 286.198 195.781 285.344C193.802 284.49 192.125 283.292 190.75 281.75C189.396 280.188 188.365 278.365 187.656 276.281C186.948 274.177 186.594 271.896 186.594 269.438ZM195.594 268.781V269.438C195.594 270.854 195.719 272.177 195.969 273.406C196.219 274.635 196.615 275.719 197.156 276.656C197.719 277.573 198.448 278.292 199.344 278.812C200.24 279.333 201.333 279.594 202.625 279.594C203.875 279.594 204.948 279.333 205.844 278.812C206.74 278.292 207.458 277.573 208 276.656C208.542 275.719 208.938 274.635 209.188 273.406C209.458 272.177 209.594 270.854 209.594 269.438V268.781C209.594 267.406 209.458 266.115 209.188 264.906C208.938 263.677 208.531 262.594 207.969 261.656C207.427 260.698 206.708 259.948 205.812 259.406C204.917 258.865 203.833 258.594 202.562 258.594C201.292 258.594 200.208 258.865 199.312 259.406C198.438 259.948 197.719 260.698 197.156 261.656C196.615 262.594 196.219 263.677 195.969 264.906C195.719 266.115 195.594 267.406 195.594 268.781ZM233.156 259.562V286H224.156V252.188H232.625L233.156 259.562ZM243.344 251.969L243.188 260.312C242.75 260.25 242.219 260.198 241.594 260.156C240.99 260.094 240.438 260.062 239.938 260.062C238.667 260.062 237.562 260.229 236.625 260.562C235.708 260.875 234.938 261.344 234.312 261.969C233.708 262.594 233.25 263.354 232.938 264.25C232.646 265.146 232.479 266.167 232.438 267.312L230.625 266.75C230.625 264.562 230.844 262.552 231.281 260.719C231.719 258.865 232.354 257.25 233.188 255.875C234.042 254.5 235.083 253.438 236.312 252.688C237.542 251.938 238.948 251.562 240.531 251.562C241.031 251.562 241.542 251.604 242.062 251.688C242.583 251.75 243.01 251.844 243.344 251.969ZM256.594 259.188V286H247.562V252.188H256.031L256.594 259.188ZM255.344 267.906H252.844C252.844 265.552 253.125 263.385 253.688 261.406C254.271 259.406 255.115 257.677 256.219 256.219C257.344 254.74 258.729 253.594 260.375 252.781C262.021 251.969 263.927 251.562 266.094 251.562C267.594 251.562 268.969 251.792 270.219 252.25C271.469 252.688 272.542 253.385 273.438 254.344C274.354 255.281 275.062 256.51 275.562 258.031C276.062 259.531 276.312 261.333 276.312 263.438V286H267.312V264.438C267.312 262.896 267.104 261.708 266.688 260.875C266.271 260.042 265.677 259.458 264.906 259.125C264.156 258.792 263.25 258.625 262.188 258.625C261.021 258.625 260 258.865 259.125 259.344C258.271 259.823 257.562 260.49 257 261.344C256.438 262.177 256.021 263.156 255.75 264.281C255.479 265.406 255.344 266.615 255.344 267.906ZM275.469 266.875L272.25 267.281C272.25 265.073 272.521 263.021 273.062 261.125C273.625 259.229 274.448 257.562 275.531 256.125C276.635 254.688 278 253.573 279.625 252.781C281.25 251.969 283.125 251.562 285.25 251.562C286.875 251.562 288.354 251.802 289.688 252.281C291.021 252.74 292.156 253.479 293.094 254.5C294.052 255.5 294.781 256.812 295.281 258.438C295.802 260.062 296.062 262.052 296.062 264.406V286H287.031V264.406C287.031 262.844 286.823 261.656 286.406 260.844C286.01 260.01 285.427 259.438 284.656 259.125C283.906 258.792 283.01 258.625 281.969 258.625C280.885 258.625 279.938 258.844 279.125 259.281C278.312 259.698 277.635 260.281 277.094 261.031C276.552 261.781 276.146 262.656 275.875 263.656C275.604 264.635 275.469 265.708 275.469 266.875ZM318.594 286.625C315.969 286.625 313.615 286.208 311.531 285.375C309.448 284.521 307.677 283.344 306.219 281.844C304.781 280.344 303.677 278.604 302.906 276.625C302.135 274.625 301.75 272.5 301.75 270.25V269C301.75 266.438 302.115 264.094 302.844 261.969C303.573 259.844 304.615 258 305.969 256.438C307.344 254.875 309.01 253.677 310.969 252.844C312.927 251.99 315.135 251.562 317.594 251.562C319.99 251.562 322.115 251.958 323.969 252.75C325.823 253.542 327.375 254.667 328.625 256.125C329.896 257.583 330.854 259.333 331.5 261.375C332.146 263.396 332.469 265.646 332.469 268.125V271.875H305.594V265.875H323.625V265.188C323.625 263.938 323.396 262.823 322.938 261.844C322.5 260.844 321.833 260.052 320.938 259.469C320.042 258.885 318.896 258.594 317.5 258.594C316.312 258.594 315.292 258.854 314.438 259.375C313.583 259.896 312.885 260.625 312.344 261.562C311.823 262.5 311.427 263.604 311.156 264.875C310.906 266.125 310.781 267.5 310.781 269V270.25C310.781 271.604 310.969 272.854 311.344 274C311.74 275.146 312.292 276.135 313 276.969C313.729 277.802 314.604 278.448 315.625 278.906C316.667 279.365 317.844 279.594 319.156 279.594C320.781 279.594 322.292 279.281 323.688 278.656C325.104 278.01 326.323 277.042 327.344 275.75L331.719 280.5C331.01 281.521 330.042 282.5 328.812 283.438C327.604 284.375 326.146 285.146 324.438 285.75C322.729 286.333 320.781 286.625 318.594 286.625ZM346.594 259.562V286H337.594V252.188H346.062L346.594 259.562ZM356.781 251.969L356.625 260.312C356.188 260.25 355.656 260.198 355.031 260.156C354.427 260.094 353.875 260.062 353.375 260.062C352.104 260.062 351 260.229 350.062 260.562C349.146 260.875 348.375 261.344 347.75 261.969C347.146 262.594 346.688 263.354 346.375 264.25C346.083 265.146 345.917 266.167 345.875 267.312L344.062 266.75C344.062 264.562 344.281 262.552 344.719 260.719C345.156 258.865 345.792 257.25 346.625 255.875C347.479 254.5 348.521 253.438 349.75 252.688C350.979 251.938 352.385 251.562 353.969 251.562C354.469 251.562 354.979 251.604 355.5 251.688C356.021 251.75 356.448 251.844 356.781 251.969ZM379.312 276.656C379.312 276.01 379.125 275.427 378.75 274.906C378.375 274.385 377.677 273.906 376.656 273.469C375.656 273.01 374.208 272.594 372.312 272.219C370.604 271.844 369.01 271.375 367.531 270.812C366.073 270.229 364.802 269.531 363.719 268.719C362.656 267.906 361.823 266.948 361.219 265.844C360.615 264.719 360.312 263.438 360.312 262C360.312 260.583 360.615 259.25 361.219 258C361.844 256.75 362.729 255.646 363.875 254.688C365.042 253.708 366.458 252.948 368.125 252.406C369.812 251.844 371.708 251.562 373.812 251.562C376.75 251.562 379.271 252.031 381.375 252.969C383.5 253.906 385.125 255.198 386.25 256.844C387.396 258.469 387.969 260.323 387.969 262.406H378.969C378.969 261.531 378.781 260.75 378.406 260.062C378.052 259.354 377.49 258.802 376.719 258.406C375.969 257.99 374.99 257.781 373.781 257.781C372.781 257.781 371.917 257.958 371.188 258.312C370.458 258.646 369.896 259.104 369.5 259.688C369.125 260.25 368.938 260.875 368.938 261.562C368.938 262.083 369.042 262.552 369.25 262.969C369.479 263.365 369.844 263.729 370.344 264.062C370.844 264.396 371.49 264.708 372.281 265C373.094 265.271 374.094 265.521 375.281 265.75C377.719 266.25 379.896 266.906 381.812 267.719C383.729 268.51 385.25 269.594 386.375 270.969C387.5 272.323 388.062 274.104 388.062 276.312C388.062 277.812 387.729 279.188 387.062 280.438C386.396 281.688 385.438 282.781 384.188 283.719C382.938 284.635 381.438 285.354 379.688 285.875C377.958 286.375 376.01 286.625 373.844 286.625C370.698 286.625 368.031 286.062 365.844 284.938C363.677 283.812 362.031 282.385 360.906 280.656C359.802 278.906 359.25 277.115 359.25 275.281H367.781C367.823 276.51 368.135 277.5 368.719 278.25C369.323 279 370.083 279.542 371 279.875C371.938 280.208 372.948 280.375 374.031 280.375C375.198 280.375 376.167 280.219 376.938 279.906C377.708 279.573 378.292 279.135 378.688 278.594C379.104 278.031 379.312 277.385 379.312 276.656Z" fill="white"/>
</svg>
