<svg width="546" height="420" viewBox="0 0 546 420" fill="none" xmlns="http://www.w3.org/2000/svg">
<path d="M86.6809 17.0416C85.0709 16.0487 83.2287 15.5522 81.1526 15.5522C79.6782 15.5522 78.3243 15.8532 77.0911 16.4547C76.4787 16.7535 75.9222 17.1082 75.4214 17.5179V16.0036H68.5166V47.1879H75.3309V36.4441C75.8554 36.8663 76.4408 37.2294 77.0911 37.5303C78.3243 38.1017 79.6782 38.388 81.1526 38.388C83.2287 38.388 85.0709 37.8916 86.6809 36.8986C88.29 35.906 89.5537 34.5519 90.4717 32.8371C91.3891 31.1223 91.8482 29.1669 91.8482 26.9703C91.8482 24.7737 91.3891 22.8186 90.4717 21.1035C89.5537 19.3887 88.29 18.0346 86.6809 17.0416ZM84.2213 29.6329C83.7997 30.4157 83.2209 31.0319 82.4838 31.4832C81.7461 31.9343 80.8819 32.1603 79.889 32.1603C78.956 32.1603 78.1136 31.9343 77.3619 31.4832C76.6096 31.0319 76.0304 30.4154 75.6244 29.6329C75.2184 28.8508 75.0154 27.9632 75.0154 26.9703C75.0154 25.9478 75.2255 25.0454 75.6471 24.2626C76.068 23.4804 76.6469 22.8714 77.3846 22.435C78.1216 21.9991 78.9713 21.7806 79.9343 21.7806C80.8974 21.7806 81.7467 21.9991 82.4841 22.435C83.2212 22.8714 83.7997 23.4807 84.2216 24.2626C84.6425 25.0454 84.8536 25.9478 84.8536 26.9703C84.8536 27.9632 84.6428 28.8511 84.2216 29.6329H84.2213Z" fill="#347740"/>
<path d="M109.989 16.613C108.695 15.9067 107.191 15.5526 105.476 15.5526C103.791 15.5526 102.302 15.9067 101.008 16.613C100.478 16.903 99.9988 17.245 99.5645 17.6333V5.17285H92.6597V37.9367H99.5645V25.4359C99.5645 24.6842 99.7295 24.0142 100.061 23.4276C100.392 22.841 100.843 22.3896 101.415 22.0738C101.986 21.7576 102.648 21.6 103.401 21.6C104.484 21.6 105.378 21.9541 106.086 22.6607C106.792 23.3679 107.146 24.2931 107.146 25.4362V37.937H114.051V23.902C114.051 22.2475 113.697 20.7958 112.99 19.547C112.283 18.2988 111.283 17.3208 109.989 16.6136V16.613Z" fill="#347740"/>
<path d="M132.463 16.9967C130.658 16.0038 128.612 15.5073 126.326 15.5073C124.04 15.5073 121.993 16.0116 120.189 17.0191C118.383 18.0276 116.954 19.3886 115.901 21.1033C114.847 22.8184 114.321 24.7589 114.321 26.9251C114.321 29.0912 114.847 31.0472 115.901 32.7922C116.954 34.5371 118.39 35.9136 120.211 36.9215C122.031 37.9297 124.069 38.433 126.326 38.433C128.612 38.433 130.658 37.9297 132.463 36.9215C134.269 35.9136 135.697 34.5371 136.751 32.7922C137.804 31.0475 138.33 29.0915 138.33 26.9251C138.33 24.7586 137.804 22.8113 136.751 21.081C135.697 19.3513 134.269 17.9896 132.463 16.9967ZM130.681 29.6555C130.274 30.4528 129.695 31.0702 128.943 31.5058C128.191 31.9422 127.318 32.1602 126.325 32.1602C125.362 32.1602 124.505 31.9422 123.753 31.5058C123.001 31.0702 122.414 30.4528 121.993 29.6555C121.572 28.859 121.361 27.9634 121.361 26.9701C121.361 25.9477 121.572 25.0452 121.993 24.2624C122.414 23.4803 123.001 22.8713 123.753 22.4348C124.505 21.999 125.363 21.7804 126.325 21.7804C127.318 21.7804 128.183 21.999 128.921 22.4348C129.657 22.8713 130.236 23.4728 130.658 24.2401C131.079 25.0073 131.29 25.9029 131.29 26.9254C131.29 27.9478 131.087 28.8587 130.681 29.6555Z" fill="#347740"/>
<path d="M152.139 32.07C151.808 32.1906 151.402 32.2506 150.921 32.2506C150.199 32.2506 149.612 32.0482 149.161 31.6435C148.86 31.3637 148.649 31.0133 148.529 30.5927C148.408 30.1724 148.349 29.7136 148.349 29.2149V21.5096H153.809V15.8235H148.349V9.0542H141.579V15.8235H137.698V21.5096H141.579V30.1768C141.579 31.4983 141.775 32.7048 142.166 33.7956C142.557 34.8874 143.114 35.8011 143.836 36.5385C145.219 37.9517 147.1 38.6589 149.477 38.6589C150.499 38.6589 151.462 38.5529 152.365 38.3428C153.267 38.132 154.11 37.8463 154.892 37.4854L152.997 31.6186C152.756 31.7989 152.47 31.95 152.139 32.07Z" fill="#347740"/>
<path d="M178.088 26.9251C178.088 24.7589 177.561 22.8113 176.508 21.081C175.455 19.3513 174.026 17.9896 172.221 16.9967C170.416 16.0038 168.369 15.5073 166.083 15.5073C163.797 15.5073 161.751 16.0116 159.946 17.0191C158.141 18.0276 156.711 19.3886 155.659 21.1033C154.605 22.8184 154.079 24.7589 154.079 26.9251C154.079 29.0912 154.605 31.0472 155.659 32.7922C156.711 34.5371 158.148 35.9136 159.968 36.9215C161.788 37.9297 163.827 38.433 166.083 38.433C168.369 38.433 170.416 37.9297 172.221 36.9215C174.026 35.9136 175.455 34.5371 176.508 32.7922C177.561 31.0475 178.088 29.0915 178.088 26.9251ZM170.439 29.6555C170.032 30.4528 169.453 31.0702 168.701 31.5058C167.949 31.9422 167.076 32.1602 166.083 32.1602C165.12 32.1602 164.263 31.9422 163.511 31.5058C162.759 31.0702 162.172 30.4528 161.751 29.6555C161.329 28.859 161.119 27.9634 161.119 26.9701C161.119 25.9477 161.329 25.0452 161.751 24.2624C162.172 23.4803 162.759 22.8713 163.511 22.4348C164.263 21.999 165.121 21.7804 166.083 21.7804C167.076 21.7804 167.941 21.999 168.679 22.4348C169.415 22.8713 169.994 23.4728 170.416 24.2401C170.837 25.0073 171.048 25.9029 171.048 26.9254C171.048 27.9478 170.845 28.8587 170.439 29.6555Z" fill="#347740"/>
<path d="M199.795 37.9369L192.045 26.6243L199.344 16.0039H191.853L188.158 21.9494L184.497 16.0039H176.418L183.867 26.7669L176.012 37.9369H183.549L187.757 31.3943L191.807 37.9369H199.795Z" fill="#347740"/>
<path d="M53.7264 28.9909C53.054 28.9868 52.3815 28.9875 51.7088 28.9875C50.6742 28.9875 49.6396 28.989 48.6051 28.9881C48.4956 28.9881 48.3834 28.9871 48.2774 28.9648C48.1232 28.9324 48.0679 28.804 48.1493 28.6694C48.1987 28.588 48.2687 28.5171 48.3368 28.449C49.5302 27.2547 50.7249 26.0618 51.9183 24.8678C52.2015 24.5843 52.4801 24.2961 52.7636 24.0126C52.8668 23.9093 52.8939 23.8005 52.8385 23.6616C52.5463 22.9276 52.1931 22.2232 51.8089 21.5337C51.7903 21.4998 51.7697 21.4662 51.7452 21.4367C51.6731 21.3496 51.6193 21.3391 51.5297 21.4071C51.4582 21.4618 51.3951 21.5278 51.3311 21.5918C49.1407 23.781 46.9481 25.9679 44.7627 28.1618C44.2112 28.7154 43.5499 28.9865 42.7796 28.9962C41.9586 29.0067 41.1373 29.0002 40.3159 29.0002C40.2578 29.0002 40.199 28.9983 40.1418 28.989C39.9155 28.952 39.8552 28.7991 39.9951 28.6129C40.0374 28.5563 40.0899 28.5072 40.1403 28.4571C40.439 28.1615 40.7403 27.8683 41.0369 27.5711C41.8908 26.7156 42.7423 25.857 43.5966 25.0018C44.5559 24.0412 45.5181 23.0834 46.4784 22.1237C47.4797 21.123 48.4804 20.1217 49.4811 19.12C49.5632 19.0377 49.6424 18.9525 49.7214 18.867C49.7938 18.7887 49.7954 18.706 49.7292 18.6223C49.6971 18.5819 49.6676 18.5384 49.6322 18.5014C49.2918 18.1476 48.9535 17.7911 48.6069 17.4432C48.4431 17.2787 48.2674 17.1245 48.0881 16.9769C47.9311 16.8479 47.872 16.8572 47.7206 16.9983C47.664 17.0512 47.6109 17.1081 47.5562 17.1631C47.2142 17.5069 46.8732 17.8517 46.5303 18.1943C44.9483 19.7757 43.3653 21.3562 41.7833 22.9379C40.5761 24.1447 39.3709 25.353 38.1635 26.5595C38.1091 26.6139 38.0506 26.6687 37.9844 26.706C37.8557 26.7784 37.7345 26.7321 37.694 26.59C37.6682 26.4986 37.6626 26.3988 37.6623 26.3028C37.6611 25.5334 37.6629 24.7642 37.6654 23.9948C37.6657 23.8655 37.6692 23.7359 37.6807 23.6075C37.7369 22.9718 37.9878 22.4224 38.4358 21.9683C39.0942 21.3011 39.757 20.638 40.4195 19.9749C41.9872 18.4069 43.5562 16.8398 45.1248 15.2721C45.3738 15.023 45.3751 14.9742 45.063 14.8154C44.4409 14.4989 43.8117 14.1967 43.1847 13.8902C43.1153 13.8563 43.0404 13.8333 42.9674 13.8069C42.8533 13.7656 42.751 13.7858 42.6637 13.8713C42.613 13.921 42.5623 13.9711 42.5123 14.0214C42.1482 14.3889 41.7857 14.7576 41.4202 15.1235C40.8491 15.6952 40.2758 16.2647 39.7038 16.8357C39.1778 17.3611 38.6521 17.8871 38.1262 18.4125C38.1035 18.4352 38.0801 18.4582 38.0543 18.4778C37.8706 18.6183 37.713 18.5595 37.6779 18.3335C37.6642 18.2446 37.6651 18.1532 37.6651 18.0628C37.6645 16.9573 37.6654 15.8518 37.6648 14.7464C37.6645 14.1128 37.6645 13.4793 37.6586 12.8457C37.6561 12.5964 37.6222 12.5653 37.3801 12.5494C36.6498 12.5022 35.9196 12.5072 35.1896 12.5519C34.9985 12.5637 34.9556 12.606 34.9484 12.804C34.9406 13.0235 34.9409 13.2436 34.9409 13.4634C34.9409 15.0084 34.9425 16.5535 34.9419 18.0985C34.9419 18.1821 34.9406 18.2679 34.9232 18.3491C34.8819 18.5428 34.7414 18.5959 34.576 18.4834C34.5178 18.4436 34.4669 18.3923 34.4165 18.3425C33.8206 17.75 33.2246 17.1572 32.6305 16.5631C32.0318 15.9641 31.4352 15.3631 30.8374 14.7635C30.5726 14.498 30.2993 14.2406 30.0444 13.9661C29.8778 13.7867 29.7077 13.7491 29.4923 13.8604C29.3661 13.9257 29.2293 13.9695 29.1024 14.0332C28.5534 14.308 28.0041 14.5822 27.4598 14.8661C27.2571 14.9718 27.2568 15.0352 27.4197 15.1996C27.8058 15.5904 28.191 15.9824 28.5796 16.371C29.4161 17.2076 30.2552 18.041 31.092 18.8773C32.1117 19.8963 33.1301 20.9166 34.1485 21.9372C34.6459 22.4355 34.9204 23.0395 34.9354 23.7409C34.9543 24.6197 34.9416 25.4992 34.9416 26.3783C34.9416 26.4361 34.9378 26.4955 34.9245 26.5515C34.8822 26.7262 34.7554 26.7818 34.6033 26.6898C34.5433 26.6534 34.4905 26.6034 34.4404 26.5536C33.9185 26.0335 33.3972 25.5125 32.8764 24.9909C31.7756 23.8882 30.6761 22.7843 29.5747 21.6826C28.574 20.6812 27.5708 19.6821 26.5694 18.6811C26.0117 18.1234 25.4568 17.5629 24.8982 17.0061C24.7278 16.8364 24.6681 16.8336 24.4913 16.9974C24.1453 17.3182 23.7999 17.6403 23.4651 17.9723C23.268 18.1675 23.0874 18.3802 22.9067 18.5916C22.8014 18.715 22.8088 18.7753 22.912 18.8975C22.9413 18.932 22.9736 18.9637 23.0056 18.9957C23.4125 19.4023 23.8201 19.808 24.227 20.2149C25.2461 21.2346 26.2645 22.2549 27.2832 23.2745C28.357 24.3492 29.4307 25.4239 30.5054 26.4974C31.1685 27.1598 31.8347 27.8195 32.4972 28.4826C32.5603 28.5457 32.6203 28.6175 32.661 28.6962C32.725 28.8205 32.6759 28.9293 32.5429 28.9713C32.4763 28.9921 32.403 28.9999 32.3327 28.9999C31.4728 29.0005 30.6127 29.0092 29.7528 28.9937C29.016 28.9803 28.3843 28.7015 27.8611 28.1764C26.46 26.7706 25.0555 25.3683 23.6528 23.9641C22.94 23.2506 22.2284 22.5359 21.5159 21.8221C21.3835 21.6894 21.2529 21.5545 21.1136 21.4292C20.9998 21.3269 20.933 21.3409 20.8453 21.4678C20.8195 21.5047 20.7975 21.5445 20.7763 21.5846C20.6035 21.9098 20.4222 22.2313 20.2609 22.5623C20.0968 22.899 19.9559 23.2472 19.798 23.5873C19.7051 23.7878 19.7452 23.9467 19.9102 24.0872C19.9939 24.158 20.0682 24.2401 20.1459 24.3178C20.9007 25.0714 21.6561 25.8246 22.4103 26.5791C23.0544 27.2239 23.6973 27.8699 24.3402 28.5165C24.3856 28.5622 24.431 28.6104 24.4639 28.6648C24.5513 28.8093 24.5012 28.9383 24.3364 28.9738C24.2304 28.9965 24.1182 28.998 24.0088 28.998C22.7609 28.9996 21.5128 28.999 20.2649 28.9993C19.7669 28.9993 19.2692 28.998 18.7712 29.0033C18.562 29.0055 18.5166 29.0496 18.5045 29.2508C18.4594 29.9938 18.4578 30.7367 18.5085 31.4794C18.5219 31.6737 18.5654 31.7129 18.7591 31.7241C18.8107 31.7272 18.8626 31.7262 18.9142 31.7266C19.6709 31.7272 20.4272 31.7281 21.1839 31.7281C22.1022 31.7281 23.0202 31.7262 23.9385 31.7275C24.0675 31.7275 24.1987 31.7269 24.3246 31.7499C24.4919 31.7803 24.5447 31.9109 24.4574 32.0555C24.421 32.1152 24.37 32.1674 24.32 32.2174C23.1915 33.3471 22.0621 34.4762 20.933 35.6056C20.5764 35.9622 20.222 36.3213 19.8624 36.6747C19.7349 36.8 19.7072 36.929 19.7784 37.0941C20.0806 37.7948 20.3912 38.4915 20.7819 39.149C20.8049 39.1878 20.8279 39.2273 20.8559 39.2627C20.9399 39.3691 20.9952 39.3787 21.0996 39.2982C21.1556 39.255 21.205 39.2027 21.2551 39.1524C22.2054 38.2011 23.1554 37.2492 24.1061 36.2983C25.1481 35.2559 26.1924 34.2151 27.2325 33.1712C27.5074 32.8954 27.7887 32.6262 28.1216 32.4248C29.501 31.591 30.9341 31.4968 32.4048 32.1584C33.1105 32.4758 33.672 32.9819 34.1209 33.6058C34.539 34.1868 34.7951 34.8359 34.8925 35.5506C34.9615 36.0558 34.9388 36.5557 34.8806 37.058C34.682 38.7709 33.9542 40.2327 32.776 41.4768C32.3299 41.9481 31.8229 42.3485 31.2664 42.6854C30.3005 43.2705 29.2613 43.646 28.135 43.7499C27.6469 43.795 27.1539 43.7922 26.6627 43.7993C26.1196 43.8074 25.5765 43.8006 25.0334 43.8037C24.9339 43.8043 24.8264 43.7862 24.7369 43.8665C24.7745 44.0008 24.8879 44.0617 24.9796 44.1372C26.1787 45.1252 27.4865 45.9387 28.8991 46.586C31.1349 47.6106 33.4823 48.1428 35.9395 48.1941C37.1519 48.2193 38.3546 48.1223 39.5484 47.9019C40.4984 47.7266 41.4282 47.4779 42.3347 47.1477C43.5963 46.6883 44.7965 46.1023 45.9275 45.3745C46.5377 44.9819 47.1188 44.5519 47.6824 44.0968C47.7598 44.0343 47.8503 43.9762 47.8723 43.8593C47.7927 43.7869 47.6989 43.8027 47.6118 43.8024C46.9136 43.8006 46.2151 43.7984 45.5168 43.8012C44.9856 43.8034 44.4571 43.7747 43.9339 43.6762C43.2049 43.5391 42.5063 43.3091 41.8467 42.9699C41.205 42.6401 40.6172 42.2313 40.0946 41.732C39.554 41.2153 39.0827 40.6421 38.7078 39.9945C38.1118 38.9655 37.7665 37.8573 37.6869 36.6685C37.6574 36.228 37.6586 35.7872 37.7438 35.3544C37.9981 34.0603 38.6938 33.058 39.8133 32.3685C40.6961 31.8248 41.6645 31.6321 42.6982 31.7704C43.5981 31.8907 44.3933 32.2451 45.0524 32.8631C45.717 33.4864 46.3509 34.1424 46.996 34.7865C47.6 35.3893 48.2003 35.9955 48.8034 36.5992C49.5069 37.3036 50.2113 38.0068 50.9151 38.7106C51.0889 38.8844 51.2605 39.0604 51.4368 39.2313C51.6171 39.4061 51.6849 39.3998 51.8052 39.1872C52.1838 38.517 52.5298 37.8305 52.8168 37.1149C52.8892 36.9346 52.8665 36.7991 52.726 36.6626C52.4061 36.3517 52.0974 36.0297 51.7819 35.7141C50.6065 34.5396 49.4304 33.3661 48.2547 32.1922C48.2273 32.1649 48.1991 32.1378 48.1757 32.1071C48.0365 31.9243 48.098 31.7608 48.324 31.7328C48.458 31.7163 48.5951 31.7197 48.7306 31.7197C50.3407 31.7188 51.9507 31.7188 53.561 31.7185C53.658 31.7185 53.755 31.7197 53.852 31.7151C54.0491 31.7054 54.091 31.6669 54.1066 31.4748C54.1168 31.3461 54.123 31.2164 54.1227 31.0874C54.1221 30.5188 54.1215 29.9499 54.1147 29.3813C54.1103 29.0185 54.0867 28.9962 53.7258 28.994L53.7264 28.9909Z" fill="#347740"/>
<path d="M36.3331 5.24219C29.613 5.24219 23.2948 7.85912 18.5431 12.6111C13.7911 17.3631 11.1742 23.681 11.1742 30.4011C11.1742 34.4618 12.1311 38.3747 13.9357 41.8848H17.4299C15.3875 38.5351 14.2096 34.6032 14.2096 30.4011C14.2096 18.2022 24.1342 8.27786 36.3331 8.27786C48.5321 8.27786 58.4567 18.2022 58.4567 30.4011C58.4567 34.6032 57.2788 38.5351 55.2364 41.8848H58.7306C60.5352 38.3747 61.4921 34.4618 61.4921 30.4011C61.4921 23.681 58.8752 17.3631 54.1232 12.6111C49.3711 7.85912 43.0533 5.24219 36.3331 5.24219Z" fill="#347740"/>
<g filter="url(#filter0_d_6033_24499)">
<rect x="6" y="115.158" width="162" height="209" rx="10" fill="white" shape-rendering="crispEdges"/>
<path d="M28.976 231.158L56.24 164.534H62.768L89.936 231.158H80.144L57.776 174.806H61.136L38.576 231.158H28.976ZM41.936 216.086V208.214H76.976V216.086H41.936ZM115.666 232.118C111.506 232.118 107.73 231.094 104.338 229.046C100.946 226.934 98.2575 224.086 96.2735 220.502C94.3535 216.918 93.3935 212.886 93.3935 208.406C93.3935 203.926 94.3535 199.894 96.2735 196.31C98.2575 192.726 100.914 189.878 104.242 187.766C107.634 185.654 111.442 184.598 115.666 184.598C119.122 184.598 122.194 185.334 124.882 186.806C127.634 188.214 129.842 190.198 131.506 192.758C133.17 195.254 134.098 198.166 134.29 201.494V215.222C134.098 218.486 133.17 221.398 131.506 223.958C129.906 226.518 127.73 228.534 124.978 230.006C122.29 231.414 119.186 232.118 115.666 232.118ZM117.106 223.958C121.394 223.958 124.85 222.518 127.474 219.638C130.098 216.694 131.41 212.95 131.41 208.406C131.41 205.27 130.802 202.55 129.586 200.246C128.434 197.878 126.77 196.054 124.594 194.774C122.418 193.43 119.89 192.758 117.01 192.758C114.13 192.758 111.57 193.43 109.33 194.774C107.154 196.118 105.426 197.974 104.146 200.342C102.93 202.646 102.322 205.302 102.322 208.31C102.322 211.382 102.93 214.102 104.146 216.47C105.426 218.774 107.186 220.598 109.426 221.942C111.666 223.286 114.226 223.958 117.106 223.958ZM130.834 231.158V218.87L132.466 207.734L130.834 196.694V185.558H139.57V231.158H130.834Z" fill="black"/>
<path d="M59.9209 296.457C58.4433 296.457 57.0655 296.188 55.7875 295.649C54.5096 295.089 53.3914 294.321 52.4329 293.342C51.4744 292.344 50.7256 291.196 50.1865 289.898C49.6673 288.6 49.4077 287.212 49.4077 285.734C49.4077 284.237 49.6673 282.849 50.1865 281.571C50.7256 280.273 51.4644 279.135 52.4029 278.157C53.3614 277.178 54.4696 276.419 55.7276 275.88C57.0056 275.341 58.3834 275.072 59.861 275.072C61.3386 275.072 62.7064 275.341 63.9644 275.88C65.2424 276.419 66.3606 277.178 67.319 278.157C68.2775 279.135 69.0263 280.273 69.5654 281.571C70.1046 282.869 70.3741 284.267 70.3741 285.764C70.3741 287.242 70.1046 288.63 69.5654 289.928C69.0263 291.226 68.2775 292.364 67.319 293.342C66.3805 294.321 65.2723 295.089 63.9944 295.649C62.7364 296.188 61.3786 296.457 59.9209 296.457ZM59.861 293.762C61.3586 293.762 62.6665 293.422 63.7847 292.743C64.9229 292.044 65.8214 291.096 66.4804 289.898C67.1393 288.68 67.4688 287.292 67.4688 285.734C67.4688 284.576 67.2791 283.518 66.8997 282.56C66.5203 281.581 65.9912 280.732 65.3123 280.014C64.6333 279.295 63.8346 278.746 62.9161 278.366C61.9976 277.967 60.9792 277.767 59.861 277.767C58.3834 277.767 57.0755 278.107 55.9373 278.786C54.8191 279.464 53.9305 280.403 53.2716 281.601C52.6326 282.799 52.3131 284.177 52.3131 285.734C52.3131 286.893 52.4928 287.971 52.8522 288.969C53.2316 289.948 53.7508 290.796 54.4097 291.515C55.0886 292.214 55.8874 292.763 56.8059 293.163C57.7444 293.562 58.7628 293.762 59.861 293.762ZM79.4779 296.457C78.3198 296.457 77.2715 296.198 76.333 295.678C75.4144 295.139 74.6956 294.401 74.1764 293.462C73.6572 292.524 73.3977 291.435 73.3977 290.197V281.931H76.0933V290.077C76.0933 290.856 76.2231 291.535 76.4827 292.114C76.7623 292.673 77.1616 293.103 77.6808 293.402C78.2 293.702 78.809 293.851 79.5079 293.851C80.5662 293.851 81.3948 293.522 81.9939 292.863C82.5929 292.184 82.8924 291.256 82.8924 290.077V281.931H85.5881V290.197C85.5881 291.435 85.3285 292.524 84.8094 293.462C84.2902 294.401 83.5714 295.139 82.6528 295.678C81.7543 296.198 80.696 296.457 79.4779 296.457ZM91.3876 296.158V275.97H94.0833V296.158H91.3876ZM87.8832 284.387V281.931H97.5876V284.387H87.8832ZM101.709 296.158V279.355C101.709 278.416 101.909 277.587 102.308 276.869C102.728 276.13 103.307 275.551 104.046 275.131C104.784 274.692 105.633 274.472 106.591 274.472C107.33 274.472 107.979 274.602 108.538 274.862C109.097 275.101 109.617 275.441 110.096 275.88L108.329 277.647C108.069 277.428 107.8 277.268 107.52 277.168C107.24 277.048 106.931 276.988 106.591 276.988C105.893 276.988 105.353 277.208 104.974 277.647C104.595 278.067 104.405 278.636 104.405 279.355V296.158H101.709ZM98.2049 284.387V281.931H111.713V284.387H98.2049ZM110.156 296.158V281.931H112.881V296.158H110.156ZM111.504 280.433C111.024 280.433 110.625 280.273 110.306 279.954C109.986 279.614 109.826 279.195 109.826 278.696C109.826 278.216 109.986 277.817 110.306 277.498C110.625 277.158 111.024 276.988 111.504 276.988C112.023 276.988 112.432 277.158 112.732 277.498C113.051 277.817 113.211 278.216 113.211 278.696C113.211 279.195 113.051 279.614 112.732 279.954C112.432 280.273 112.023 280.433 111.504 280.433ZM119.029 296.158V275.97H121.725V296.158H119.029ZM115.524 284.387V281.931H125.229V284.387H115.524Z" fill="black"/>
</g>
<g filter="url(#filter1_d_6033_24499)">
<rect x="252.113" y="42.1577" width="269" height="282" rx="25" fill="white" shape-rendering="crispEdges"/>
<rect x="272.113" y="62.1577" width="100" height="100" rx="10" fill="#347740"/>
<rect x="401.113" y="62.1577" width="100" height="100" rx="10" fill="#FDF9F2"/>
<rect x="272.113" y="204.158" width="100" height="100" rx="10" fill="black"/>
<rect x="401.113" y="204.158" width="100" height="100" rx="10" fill="#909090"/>
</g>
<path d="M133.989 395.245C134.249 394.529 134.38 393.778 134.38 393.004C134.38 389.365 131.419 386.404 127.78 386.404C127.411 386.404 127.044 386.434 126.685 386.495C125.799 384.429 124.066 382.82 121.913 382.103C117.774 380.723 113.283 382.969 111.9 387.111C111.891 387.136 111.883 387.162 111.874 387.187C110.757 387.653 109.847 388.453 109.243 389.447C106.832 389.001 104.316 389.833 102.655 391.678C101.383 393.09 100.736 394.914 100.836 396.811C100.935 398.708 101.768 400.453 103.179 401.725C103.633 402.134 104.13 402.479 104.663 402.756C104.318 404.023 104.485 405.387 105.157 406.55C105.822 407.701 106.896 408.526 108.18 408.87C108.61 408.986 109.046 409.042 109.479 409.042C110.341 409.042 111.193 408.815 111.96 408.373C112.561 408.025 113.088 407.545 113.504 406.97H120.963C121.48 406.97 121.9 406.55 121.9 406.033C121.9 405.515 121.48 405.095 120.963 405.095H112.994C112.657 405.095 112.346 405.276 112.18 405.569C111.899 406.061 111.488 406.479 111.022 406.75C110.304 407.164 109.468 407.273 108.666 407.059C107.864 406.845 107.196 406.331 106.78 405.612C106.258 404.708 106.226 403.61 106.693 402.673C106.829 402.4 106.837 402.078 106.731 401.853C106.625 401.626 106.404 401.454 106.169 401.37C105.529 401.142 104.946 400.794 104.435 400.333C103.394 399.395 102.782 398.111 102.708 396.712C102.635 395.315 103.111 393.973 104.049 392.933C105.189 391.667 106.877 391.051 108.538 391.24C108.463 391.609 108.421 391.99 108.421 392.379C108.421 395.114 110.344 397.387 112.941 397.9C113.079 400.554 115.18 402.595 117.838 402.595H124.869C126.771 402.595 128.316 404.14 128.316 406.039V406.97H130.191V406.039C130.191 403.106 127.804 400.72 124.869 400.72H117.838C116.139 400.72 114.808 399.359 114.808 397.622V397.067C114.808 396.562 114.41 396.148 113.907 396.129C111.882 396.054 110.296 394.408 110.296 392.379C110.296 390.731 111.352 389.292 112.924 388.8C113.235 388.701 113.472 388.45 113.552 388.134C113.586 387.997 113.63 387.85 113.68 387.701C114.735 384.542 118.161 382.829 121.321 383.883C123.179 384.501 124.627 385.99 125.193 387.869C125.265 388.109 125.43 388.309 125.65 388.426C125.872 388.544 126.132 388.569 126.371 388.492C126.822 388.351 127.297 388.279 127.78 388.279C130.386 388.279 132.505 390.398 132.505 393.004C132.505 393.439 132.447 393.864 132.333 394.273C131.624 393.994 130.85 393.84 130.036 393.84H129.15C128.285 391.537 125.807 390.187 123.355 390.789C122.289 391.053 121.366 391.644 120.685 392.498C120.363 392.903 120.43 393.494 120.835 393.815C121.239 394.139 121.83 394.072 122.152 393.667C122.572 393.139 123.144 392.773 123.805 392.609C125.443 392.208 127.107 393.211 127.504 394.851C127.647 395.447 128.024 395.715 128.472 395.715H130.036C132.571 395.715 134.557 397.845 134.557 400.564V406.97H136.432V400.564C136.432 398.376 135.485 396.465 133.989 395.245ZM126.439 408.542L138.307 408.533V412.595H136.432V416.345H128.307V412.595H126.432L126.439 408.542Z" fill="#347740"/>
<path d="M203.223 392.491H196.097L201.337 383.324C201.483 383.071 201.56 382.783 201.56 382.49C201.56 382.197 201.482 381.91 201.336 381.656C201.189 381.403 200.978 381.192 200.724 381.046C200.471 380.9 200.183 380.824 199.89 380.824H188.223C187.914 380.824 187.61 380.91 187.346 381.073C187.083 381.236 186.87 381.469 186.732 381.746L178.398 398.413C178.271 398.667 178.211 398.949 178.224 399.233C178.237 399.517 178.322 399.793 178.472 400.034C178.621 400.276 178.83 400.475 179.078 400.614C179.326 400.752 179.606 400.824 179.89 400.824H187.65L183.293 415.346C183.183 415.713 183.202 416.107 183.348 416.461C183.494 416.816 183.758 417.109 184.095 417.292C184.432 417.474 184.822 417.535 185.199 417.464C185.576 417.393 185.916 417.194 186.163 416.901L204.497 395.234C204.702 394.992 204.834 394.695 204.876 394.38C204.919 394.065 204.87 393.744 204.736 393.456C204.602 393.167 204.389 392.923 204.121 392.752C203.853 392.581 203.541 392.491 203.223 392.491ZM188.785 408.639L191.487 399.639C191.562 399.39 191.578 399.127 191.533 398.871C191.488 398.614 191.384 398.372 191.229 398.163C191.074 397.955 190.872 397.785 190.639 397.668C190.407 397.551 190.15 397.491 189.89 397.491H182.587L189.253 384.158H197.017L191.777 393.324C191.63 393.578 191.553 393.866 191.553 394.158C191.553 394.451 191.631 394.739 191.777 394.992C191.924 395.246 192.135 395.456 192.389 395.602C192.643 395.748 192.93 395.825 193.223 395.824H199.63L188.785 408.639Z" fill="#347740"/>
<path d="M270.507 395.924H256.607C254.64 395.924 253.957 394.608 255.107 393.008L262.057 383.274C262.873 382.108 264.24 382.108 265.04 383.274L271.99 393.008C273.157 394.608 272.473 395.924 270.507 395.924Z" stroke="#347740" stroke-width="2.5" stroke-linecap="round" stroke-linejoin="round"/>
<path d="M272.873 409.158H254.257C251.623 409.158 250.723 407.408 252.273 405.274L258.923 395.924H268.207L274.857 405.274C276.407 407.408 275.507 409.158 272.873 409.158Z" stroke="#347740" stroke-width="2.5" stroke-linecap="round" stroke-linejoin="round"/>
<path d="M263.557 415.824V409.158" stroke="#347740" stroke-width="2.5" stroke-linecap="round" stroke-linejoin="round"/>
<path d="M330.607 415.308L334.49 412.041C335.073 411.541 336.04 411.541 336.623 412.041L340.507 415.308C341.407 415.758 342.507 415.308 342.84 414.341L343.573 412.124C343.757 411.591 343.573 410.808 343.173 410.408L339.39 406.608C339.107 406.341 338.89 405.808 338.89 405.424V400.674C338.89 399.974 339.407 399.641 340.057 399.908L348.24 403.441C349.523 403.991 350.573 403.308 350.573 401.908V399.758C350.573 398.641 349.74 397.358 348.707 396.924L339.39 392.908C339.123 392.791 338.89 392.441 338.89 392.141V387.141C338.89 385.574 337.74 383.724 336.34 383.008C335.84 382.758 335.257 382.758 334.757 383.008C333.357 383.724 332.207 385.591 332.207 387.158V392.158C332.207 392.458 331.973 392.808 331.707 392.924L322.407 396.941C321.373 397.358 320.54 398.641 320.54 399.758V401.908C320.54 403.308 321.59 403.991 322.873 403.441L331.057 399.908C331.69 399.624 332.223 399.974 332.223 400.674V405.424C332.223 405.808 332.007 406.341 331.74 406.608L327.957 410.408C327.557 410.808 327.373 411.574 327.557 412.124L328.29 414.341C328.59 415.308 329.69 415.774 330.607 415.308Z" stroke="#347740" stroke-width="2.5" stroke-linecap="round" stroke-linejoin="round"/>
<path fill-rule="evenodd" clip-rule="evenodd" d="M396.342 392.848C397.591 389.678 399.094 387.491 402.497 387.491H411.618C415.018 387.491 416.522 389.678 417.774 392.848L419.023 396.24C419.954 396.251 420.81 396.768 421.271 397.598C421.542 398.071 421.684 398.609 421.682 399.158V403.531C421.694 404.552 421.191 405.508 420.353 406.058C419.954 406.313 419.493 406.448 419.023 406.448H395.09C394.62 406.448 394.16 406.313 393.761 406.058C392.922 405.508 392.42 404.552 392.432 403.531V399.158C392.43 398.61 392.572 398.072 392.843 397.6C393.304 396.77 394.159 396.253 395.09 396.241L396.342 392.848Z" stroke="#347740" stroke-width="2.5" stroke-linecap="round" stroke-linejoin="round"/>
<path d="M399.001 406.449C399.001 405.759 398.441 405.199 397.751 405.199C397.06 405.199 396.501 405.759 396.501 406.449H399.001ZM397.751 408.638H396.501C396.501 408.651 396.501 408.664 396.501 408.677L397.751 408.638ZM395.755 410.824L395.71 412.073C395.74 412.075 395.769 412.075 395.799 412.074L395.755 410.824ZM393.761 408.636L395.01 408.676C395.011 408.663 395.011 408.649 395.011 408.636H393.761ZM395.011 406.058C395.011 405.367 394.451 404.808 393.761 404.808C393.071 404.808 392.511 405.367 392.511 406.058H395.011ZM395.09 394.989C394.4 394.989 393.84 395.549 393.84 396.239C393.84 396.93 394.4 397.489 395.09 397.489V394.989ZM419.023 397.489C419.714 397.489 420.273 396.93 420.273 396.239C420.273 395.549 419.714 394.989 419.023 394.989V397.489ZM417.615 406.448C417.615 405.757 417.055 405.198 416.365 405.198C415.675 405.198 415.115 405.757 415.115 406.448H417.615ZM416.365 408.636L417.613 408.714C417.614 408.688 417.615 408.662 417.615 408.636H416.365ZM420.354 408.636H419.104C419.104 408.662 419.105 408.688 419.107 408.714L420.354 408.636ZM421.604 406.058C421.604 405.367 421.045 404.808 420.354 404.808C419.664 404.808 419.104 405.367 419.104 406.058H421.604ZM397.307 400.408C396.617 400.408 396.057 400.967 396.057 401.658C396.057 402.348 396.617 402.908 397.307 402.908V400.408ZM398.932 402.908C399.622 402.908 400.182 402.348 400.182 401.658C400.182 400.967 399.622 400.408 398.932 400.408V402.908ZM415.182 400.408C414.492 400.408 413.932 400.967 413.932 401.658C413.932 402.348 414.492 402.908 415.182 402.908V400.408ZM416.807 402.908C417.497 402.908 418.057 402.348 418.057 401.658C418.057 400.967 417.497 400.408 416.807 400.408V402.908ZM396.501 406.449V408.638H399.001V406.449H396.501ZM396.501 408.677C396.517 409.187 396.133 409.56 395.711 409.575L395.799 412.074C397.655 412.009 399.057 410.426 399 408.599L396.501 408.677ZM395.8 409.575C395.378 409.56 394.994 409.186 395.01 408.676L392.512 408.596C392.453 410.423 393.854 412.007 395.71 412.073L395.8 409.575ZM395.011 408.636V406.058H392.511V408.636H395.011ZM395.09 397.489H419.023V394.989H395.09V397.489ZM415.115 406.448V408.636H417.615V406.448H415.115ZM415.117 408.558C415.042 409.769 415.628 410.937 416.664 411.581L417.984 409.458C417.746 409.311 417.593 409.027 417.613 408.714L415.117 408.558ZM416.664 411.581C417.705 412.228 419.015 412.228 420.055 411.581L418.736 409.458C418.503 409.603 418.216 409.603 417.984 409.458L416.664 411.581ZM420.055 411.581C421.092 410.937 421.677 409.769 421.602 408.558L419.107 408.714C419.126 409.027 418.973 409.311 418.736 409.458L420.055 411.581ZM421.604 408.636V406.058H419.104V408.636H421.604ZM397.307 402.908H398.932V400.408H397.307V402.908ZM415.182 402.908H416.807V400.408H415.182V402.908Z" fill="#347740"/>
<defs>
<filter id="filter0_d_6033_24499" x="0" y="109.158" width="182" height="229" filterUnits="userSpaceOnUse" color-interpolation-filters="sRGB">
<feFlood flood-opacity="0" result="BackgroundImageFix"/>
<feColorMatrix in="SourceAlpha" type="matrix" values="0 0 0 0 0 0 0 0 0 0 0 0 0 0 0 0 0 0 127 0" result="hardAlpha"/>
<feOffset dx="4" dy="4"/>
<feGaussianBlur stdDeviation="5"/>
<feComposite in2="hardAlpha" operator="out"/>
<feColorMatrix type="matrix" values="0 0 0 0 0 0 0 0 0 0 0 0 0 0 0 0 0 0 0.25 0"/>
<feBlend mode="normal" in2="BackgroundImageFix" result="effect1_dropShadow_6033_24499"/>
<feBlend mode="normal" in="SourceGraphic" in2="effect1_dropShadow_6033_24499" result="shape"/>
</filter>
<filter id="filter1_d_6033_24499" x="236.113" y="26.1577" width="309" height="322" filterUnits="userSpaceOnUse" color-interpolation-filters="sRGB">
<feFlood flood-opacity="0" result="BackgroundImageFix"/>
<feColorMatrix in="SourceAlpha" type="matrix" values="0 0 0 0 0 0 0 0 0 0 0 0 0 0 0 0 0 0 127 0" result="hardAlpha"/>
<feOffset dx="4" dy="4"/>
<feGaussianBlur stdDeviation="10"/>
<feComposite in2="hardAlpha" operator="out"/>
<feColorMatrix type="matrix" values="0 0 0 0 0 0 0 0 0 0 0 0 0 0 0 0 0 0 0.25 0"/>
<feBlend mode="normal" in2="BackgroundImageFix" result="effect1_dropShadow_6033_24499"/>
<feBlend mode="normal" in="SourceGraphic" in2="effect1_dropShadow_6033_24499" result="shape"/>
</filter>
</defs>
</svg>
