<svg width="201" height="56" viewBox="0 0 201 56" fill="none" xmlns="http://www.w3.org/2000/svg">
<rect width="200.113" height="55.1579" rx="10" fill="white"/>
<path d="M80.6809 17.0416C79.0709 16.0487 77.2287 15.5522 75.1526 15.5522C73.6782 15.5522 72.3243 15.8532 71.0911 16.4547C70.4787 16.7535 69.9222 17.1082 69.4214 17.5179V16.0036H62.5166V47.1879H69.3309V36.4441C69.8554 36.8663 70.4408 37.2294 71.0911 37.5303C72.3243 38.1017 73.6782 38.388 75.1526 38.388C77.2287 38.388 79.0709 37.8916 80.6809 36.8986C82.29 35.906 83.5537 34.5519 84.4717 32.8371C85.3891 31.1223 85.8482 29.1669 85.8482 26.9703C85.8482 24.7737 85.3891 22.8186 84.4717 21.1035C83.5537 19.3887 82.29 18.0346 80.6809 17.0416ZM78.2213 29.6329C77.7997 30.4157 77.2209 31.0319 76.4838 31.4832C75.7461 31.9343 74.8819 32.1603 73.889 32.1603C72.956 32.1603 72.1136 31.9343 71.3619 31.4832C70.6096 31.0319 70.0304 30.4154 69.6244 29.6329C69.2184 28.8508 69.0154 27.9632 69.0154 26.9703C69.0154 25.9478 69.2255 25.0454 69.6471 24.2626C70.068 23.4804 70.6469 22.8714 71.3846 22.435C72.1216 21.9991 72.9713 21.7806 73.9343 21.7806C74.8974 21.7806 75.7467 21.9991 76.4841 22.435C77.2212 22.8714 77.7997 23.4807 78.2216 24.2626C78.6425 25.0454 78.8536 25.9478 78.8536 26.9703C78.8536 27.9632 78.6428 28.8511 78.2216 29.6329H78.2213Z" fill="#347740"/>
<path d="M103.989 16.613C102.695 15.9067 101.191 15.5526 99.4763 15.5526C97.7911 15.5526 96.3017 15.9067 95.0085 16.613C94.4781 16.903 93.9988 17.245 93.5645 17.6333V5.17285H86.6597V37.9367H93.5645V25.4359C93.5645 24.6842 93.7295 24.0142 94.0609 23.4276C94.3917 22.841 94.8431 22.3896 95.4148 22.0738C95.9859 21.7576 96.648 21.6 97.4006 21.6C98.4837 21.6 99.3784 21.9541 100.086 22.6607C100.792 23.3679 101.146 24.2931 101.146 25.4362V37.937H108.051V23.902C108.051 22.2475 107.697 20.7958 106.99 19.547C106.283 18.2988 105.283 17.3208 103.989 16.6136V16.613Z" fill="#347740"/>
<path d="M126.463 16.9967C124.658 16.0038 122.612 15.5073 120.326 15.5073C118.04 15.5073 115.994 16.0116 114.189 17.0191C112.383 18.0276 110.954 19.3886 109.901 21.1033C108.848 22.8184 108.322 24.7589 108.322 26.9251C108.322 29.0912 108.848 31.0472 109.901 32.7922C110.954 34.5371 112.39 35.9136 114.211 36.9215C116.031 37.9297 118.07 38.433 120.326 38.433C122.612 38.433 124.659 37.9297 126.463 36.9215C128.269 35.9136 129.697 34.5371 130.751 32.7922C131.804 31.0475 132.33 29.0915 132.33 26.9251C132.33 24.7586 131.804 22.8113 130.751 21.081C129.697 19.3513 128.269 17.9896 126.463 16.9967ZM124.681 29.6555C124.275 30.4528 123.695 31.0702 122.943 31.5058C122.191 31.9422 121.318 32.1602 120.326 32.1602C119.362 32.1602 118.505 31.9422 117.753 31.5058C117.001 31.0702 116.414 30.4528 115.994 29.6555C115.572 28.859 115.362 27.9634 115.362 26.9701C115.362 25.9477 115.572 25.0452 115.994 24.2624C116.414 23.4803 117.001 22.8713 117.753 22.4348C118.505 21.999 119.363 21.7804 120.326 21.7804C121.318 21.7804 122.183 21.999 122.921 22.4348C123.658 22.8713 124.236 23.4728 124.658 24.2401C125.079 25.0073 125.29 25.9029 125.29 26.9254C125.29 27.9478 125.087 28.8587 124.681 29.6555Z" fill="#347740"/>
<path d="M146.139 32.07C145.808 32.1906 145.402 32.2506 144.921 32.2506C144.199 32.2506 143.612 32.0482 143.161 31.6435C142.86 31.3637 142.649 31.0133 142.529 30.5927C142.408 30.1724 142.349 29.7136 142.349 29.2149V21.5096H147.809V15.8235H142.349V9.0542H135.579V15.8235H131.698V21.5096H135.579V30.1768C135.579 31.4983 135.775 32.7048 136.166 33.7956C136.557 34.8874 137.114 35.8011 137.836 36.5385C139.219 37.9517 141.1 38.6589 143.477 38.6589C144.499 38.6589 145.462 38.5529 146.365 38.3428C147.267 38.132 148.11 37.8463 148.892 37.4854L146.997 31.6186C146.756 31.7989 146.47 31.95 146.139 32.07Z" fill="#347740"/>
<path d="M172.088 26.9251C172.088 24.7589 171.561 22.8113 170.508 21.081C169.455 19.3513 168.026 17.9896 166.221 16.9967C164.416 16.0038 162.369 15.5073 160.083 15.5073C157.797 15.5073 155.751 16.0116 153.946 17.0191C152.141 18.0276 150.711 19.3886 149.659 21.1033C148.605 22.8184 148.079 24.7589 148.079 26.9251C148.079 29.0912 148.605 31.0472 149.659 32.7922C150.711 34.5371 152.148 35.9136 153.968 36.9215C155.788 37.9297 157.827 38.433 160.083 38.433C162.369 38.433 164.416 37.9297 166.221 36.9215C168.026 35.9136 169.455 34.5371 170.508 32.7922C171.561 31.0475 172.088 29.0915 172.088 26.9251ZM164.439 29.6555C164.032 30.4528 163.453 31.0702 162.701 31.5058C161.949 31.9422 161.076 32.1602 160.083 32.1602C159.12 32.1602 158.263 31.9422 157.511 31.5058C156.759 31.0702 156.172 30.4528 155.751 29.6555C155.329 28.859 155.119 27.9634 155.119 26.9701C155.119 25.9477 155.329 25.0452 155.751 24.2624C156.172 23.4803 156.759 22.8713 157.511 22.4348C158.263 21.999 159.121 21.7804 160.083 21.7804C161.076 21.7804 161.941 21.999 162.679 22.4348C163.415 22.8713 163.994 23.4728 164.416 24.2401C164.837 25.0073 165.048 25.9029 165.048 26.9254C165.048 27.9478 164.845 28.8587 164.439 29.6555Z" fill="#347740"/>
<path d="M193.795 37.9369L186.045 26.6243L193.344 16.0039H185.853L182.158 21.9494L178.497 16.0039H170.418L177.867 26.7669L170.012 37.9369H177.549L181.757 31.3943L185.807 37.9369H193.795Z" fill="#347740"/>
<path d="M47.7265 28.9909C47.0541 28.9868 46.3817 28.9875 45.7089 28.9875C44.6743 28.9875 43.6398 28.989 42.6052 28.9881C42.4957 28.9881 42.3835 28.9871 42.2775 28.9648C42.1233 28.9324 42.068 28.804 42.1494 28.6694C42.1989 28.588 42.2688 28.5171 42.3369 28.449C43.5303 27.2547 44.725 26.0618 45.9185 24.8678C46.2017 24.5843 46.4802 24.2961 46.7637 24.0126C46.8669 23.9093 46.894 23.8005 46.8386 23.6616C46.5464 22.9276 46.1933 22.2232 45.809 21.5337C45.7904 21.4998 45.7699 21.4662 45.7453 21.4367C45.6732 21.3496 45.6194 21.3391 45.5299 21.4071C45.4584 21.4618 45.3953 21.5278 45.3312 21.5918C43.1408 23.781 40.9482 25.9679 38.7628 28.1618C38.2113 28.7154 37.5501 28.9865 36.7797 28.9962C35.9587 29.0067 35.1374 29.0002 34.3161 29.0002C34.2579 29.0002 34.1992 28.9983 34.142 28.989C33.9157 28.952 33.8553 28.7991 33.9952 28.6129C34.0375 28.5563 34.0901 28.5072 34.1404 28.4571C34.4392 28.1615 34.7404 27.8683 35.037 27.5711C35.8909 26.7156 36.7424 25.857 37.5967 25.0018C38.5561 24.0412 39.5182 23.0834 40.4785 22.1237C41.4798 21.123 42.4805 20.1217 43.4812 19.12C43.5633 19.0377 43.6426 18.9525 43.7215 18.867C43.794 18.7887 43.7955 18.706 43.7293 18.6223C43.6973 18.5819 43.6677 18.5384 43.6323 18.5014C43.2919 18.1476 42.9537 17.7911 42.607 17.4432C42.4432 17.2787 42.2676 17.1245 42.0882 16.9769C41.9312 16.8479 41.8721 16.8572 41.7207 16.9983C41.6642 17.0512 41.611 17.1081 41.5563 17.1631C41.2143 17.5069 40.8733 17.8517 40.5304 18.1943C38.9484 19.7757 37.3654 21.3562 35.7834 22.9379C34.5763 24.1447 33.371 25.353 32.1636 26.5595C32.1092 26.6139 32.0507 26.6687 31.9845 26.706C31.8558 26.7784 31.7346 26.7321 31.6942 26.59C31.6684 26.4986 31.6628 26.3988 31.6624 26.3028C31.6612 25.5334 31.6631 24.7642 31.6656 23.9948C31.6659 23.8655 31.6693 23.7359 31.6808 23.6075C31.7371 22.9718 31.9879 22.4224 32.4359 21.9683C33.0943 21.3011 33.7571 20.638 34.4196 19.9749C35.9873 18.4069 37.5563 16.8398 39.125 15.2721C39.374 15.023 39.3752 14.9742 39.0631 14.8154C38.441 14.4989 37.8118 14.1967 37.1848 13.8902C37.1155 13.8563 37.0405 13.8333 36.9675 13.8069C36.8534 13.7656 36.7511 13.7858 36.6638 13.8713C36.6131 13.921 36.5624 13.9711 36.5124 14.0214C36.1483 14.3889 35.7859 14.7576 35.4203 15.1235C34.8492 15.6952 34.276 16.2647 33.704 16.8357C33.178 17.3611 32.6523 17.8871 32.1263 18.4125C32.1036 18.4352 32.0803 18.4582 32.0545 18.4778C31.8707 18.6183 31.7131 18.5595 31.678 18.3335C31.6643 18.2446 31.6652 18.1532 31.6652 18.0628C31.6646 16.9573 31.6656 15.8518 31.6649 14.7464C31.6646 14.1128 31.6646 13.4793 31.6587 12.8457C31.6562 12.5964 31.6223 12.5653 31.3802 12.5494C30.6499 12.5022 29.9197 12.5072 29.1898 12.5519C28.9986 12.5637 28.9557 12.606 28.9485 12.804C28.9408 13.0235 28.9411 13.2436 28.9411 13.4634C28.9411 15.0084 28.9426 16.5535 28.942 18.0985C28.942 18.1821 28.9408 18.2679 28.9233 18.3491C28.882 18.5428 28.7415 18.5959 28.5761 18.4834C28.518 18.4436 28.467 18.3923 28.4166 18.3425C27.8207 17.75 27.2247 17.1572 26.6307 16.5631C26.0319 15.9641 25.4354 15.3631 24.8375 14.7635C24.5727 14.498 24.2994 14.2406 24.0445 13.9661C23.8779 13.7867 23.7078 13.7491 23.4924 13.8604C23.3662 13.9257 23.2294 13.9695 23.1026 14.0332C22.5536 14.308 22.0042 14.5822 21.4599 14.8661C21.2572 14.9718 21.2569 15.0352 21.4198 15.1996C21.8059 15.5904 22.1911 15.9824 22.5797 16.371C23.4162 17.2076 24.2553 18.041 25.0921 18.8773C26.1118 19.8963 27.1302 20.9166 28.1487 21.9372C28.646 22.4355 28.9206 23.0395 28.9355 23.7409C28.9544 24.6197 28.9417 25.4992 28.9417 26.3783C28.9417 26.4361 28.938 26.4955 28.9246 26.5515C28.8823 26.7262 28.7555 26.7818 28.6035 26.6898C28.5435 26.6534 28.4906 26.6034 28.4406 26.5536C27.9186 26.0335 27.3973 25.5125 26.8766 24.9909C25.7758 23.8882 24.6762 22.7843 23.5748 21.6826C22.5741 20.6812 21.5709 19.6821 20.5696 18.6811C20.0119 18.1234 19.457 17.5629 18.8983 17.0061C18.728 16.8364 18.6683 16.8336 18.4914 16.9974C18.1454 17.3182 17.8 17.6403 17.4652 17.9723C17.2681 18.1675 17.0875 18.3802 16.9069 18.5916C16.8015 18.715 16.8089 18.7753 16.9122 18.8975C16.9414 18.932 16.9737 18.9637 17.0057 18.9957C17.4127 19.4023 17.8202 19.808 18.2271 20.2149C19.2462 21.2346 20.2646 22.2549 21.2833 23.2745C22.3571 24.3492 23.4308 25.4239 24.5055 26.4974C25.1686 27.1598 25.8348 27.8195 26.4973 28.4826C26.5604 28.5457 26.6204 28.6175 26.6611 28.6962C26.7252 28.8205 26.676 28.9293 26.543 28.9713C26.4765 28.9921 26.4031 28.9999 26.3328 28.9999C25.473 29.0005 24.6128 29.0092 23.7529 28.9937C23.0161 28.9803 22.3844 28.7015 21.8612 28.1764C20.4601 26.7706 19.0556 25.3683 17.653 23.9641C16.9401 23.2506 16.2285 22.5359 15.516 21.8221C15.3836 21.6894 15.253 21.5545 15.1138 21.4292C15 21.3269 14.9331 21.3409 14.8455 21.4678C14.8197 21.5047 14.7976 21.5445 14.7765 21.5846C14.6036 21.9098 14.4224 22.2313 14.261 22.5623C14.0969 22.899 13.9561 23.2472 13.7981 23.5873C13.7052 23.7878 13.7453 23.9467 13.9104 24.0872C13.994 24.158 14.0683 24.2401 14.146 24.3178C14.9008 25.0714 15.6562 25.8246 16.4104 26.5791C17.0545 27.2239 17.6974 27.8699 18.3403 28.5165C18.3857 28.5622 18.4311 28.6104 18.464 28.6648C18.5514 28.8093 18.5013 28.9383 18.3366 28.9738C18.2306 28.9965 18.1183 28.998 18.0089 28.998C16.7611 28.9996 15.5129 28.999 14.2651 28.9993C13.767 28.9993 13.2693 28.998 12.7713 29.0033C12.5621 29.0055 12.5167 29.0496 12.5046 29.2508C12.4595 29.9938 12.458 30.7367 12.5086 31.4794C12.522 31.6737 12.5655 31.7129 12.7592 31.7241C12.8108 31.7272 12.8627 31.7262 12.9143 31.7266C13.671 31.7272 14.4273 31.7281 15.184 31.7281C16.1023 31.7281 17.0203 31.7262 17.9387 31.7275C18.0677 31.7275 18.1989 31.7269 18.3248 31.7499C18.492 31.7803 18.5449 31.9109 18.4575 32.0555C18.4211 32.1152 18.3701 32.1674 18.3201 32.2174C17.1916 33.3471 16.0622 34.4762 14.9331 35.6056C14.5766 35.9622 14.2222 36.3213 13.8625 36.6747C13.735 36.8 13.7074 36.929 13.7786 37.0941C14.0807 37.7948 14.3913 38.4915 14.782 39.149C14.8051 39.1878 14.8281 39.2273 14.856 39.2627C14.94 39.3691 14.9953 39.3787 15.0998 39.2982C15.1557 39.255 15.2051 39.2027 15.2552 39.1524C16.2055 38.2011 17.1556 37.2492 18.1062 36.2983C19.1483 35.2559 20.1925 34.2151 21.2327 33.1712C21.5075 32.8954 21.7888 32.6262 22.1218 32.4248C23.5011 31.591 24.9342 31.4968 26.405 32.1584C27.1106 32.4758 27.6721 32.9819 28.121 33.6058C28.5391 34.1868 28.7953 34.8359 28.8926 35.5506C28.9616 36.0558 28.9389 36.5557 28.8808 37.058C28.6821 38.7709 27.9544 40.2327 26.7761 41.4768C26.33 41.9481 25.823 42.3485 25.2665 42.6854C24.3007 43.2705 23.2614 43.646 22.1351 43.7499C21.6471 43.795 21.154 43.7922 20.6628 43.7993C20.1197 43.8074 19.5766 43.8006 19.0335 43.8037C18.9341 43.8043 18.8265 43.7862 18.737 43.8665C18.7746 44.0008 18.8881 44.0617 18.9798 44.1372C20.1788 45.1252 21.4866 45.9387 22.8993 46.586C25.1351 47.6106 27.4825 48.1428 29.9396 48.1941C31.152 48.2193 32.3548 48.1223 33.5485 47.9019C34.4985 47.7266 35.4284 47.4779 36.3349 47.1477C37.5964 46.6883 38.7967 46.1023 39.9276 45.3745C40.5379 44.9819 41.1189 44.5519 41.6825 44.0968C41.7599 44.0343 41.8504 43.9762 41.8724 43.8593C41.7929 43.7869 41.699 43.8027 41.6119 43.8024C40.9137 43.8006 40.2152 43.7984 39.517 43.8012C38.9857 43.8034 38.4572 43.7747 37.934 43.6762C37.205 43.5391 36.5065 43.3091 35.8468 42.9699C35.2052 42.6401 34.6173 42.2313 34.0947 41.732C33.5541 41.2153 33.0828 40.6421 32.7079 39.9945C32.112 38.9655 31.7666 37.8573 31.687 36.6685C31.6575 36.228 31.6587 35.7872 31.7439 35.3544C31.9982 34.0603 32.6939 33.058 33.8134 32.3685C34.6963 31.8248 35.6646 31.6321 36.6983 31.7704C37.5983 31.8907 38.3935 32.2451 39.0525 32.8631C39.7172 33.4864 40.351 34.1424 40.9961 34.7865C41.6001 35.3893 42.2004 35.9955 42.8035 36.5992C43.507 37.3036 44.2115 38.0068 44.9153 38.7106C45.089 38.8844 45.2606 39.0604 45.4369 39.2313C45.6172 39.4061 45.685 39.3998 45.8053 39.1872C46.1839 38.517 46.5299 37.8305 46.8169 37.1149C46.8893 36.9346 46.8666 36.7991 46.7261 36.6626C46.4062 36.3517 46.0975 36.0297 45.782 35.7141C44.6066 34.5396 43.4305 33.3661 42.2548 32.1922C42.2275 32.1649 42.1992 32.1378 42.1759 32.1071C42.0366 31.9243 42.0981 31.7608 42.3241 31.7328C42.4581 31.7163 42.5952 31.7197 42.7308 31.7197C44.3408 31.7188 45.9508 31.7188 47.5611 31.7185C47.6581 31.7185 47.7551 31.7197 47.8521 31.7151C48.0492 31.7054 48.0911 31.6669 48.1067 31.4748C48.1169 31.3461 48.1232 31.2164 48.1229 31.0874C48.1222 30.5188 48.1216 29.9499 48.1148 29.3813C48.1104 29.0185 48.0868 28.9962 47.7259 28.994L47.7265 28.9909Z" fill="#347740"/>
<path d="M30.333 5.24219C23.6129 5.24219 17.2947 7.85912 12.543 12.6111C7.791 17.3631 5.17407 23.681 5.17407 30.4011C5.17407 34.4618 6.13094 38.3747 7.93556 41.8848H11.4298C9.38733 38.5351 8.20944 34.6032 8.20944 30.4011C8.20944 18.2022 18.1341 8.27786 30.333 8.27786C42.532 8.27786 52.4566 18.2022 52.4566 30.4011C52.4566 34.6032 51.2787 38.5351 49.2363 41.8848H52.7305C54.5351 38.3747 55.492 34.4618 55.492 30.4011C55.492 23.681 52.875 17.3631 48.123 12.6111C43.371 7.85912 37.0532 5.24219 30.333 5.24219Z" fill="#347740"/>
</svg>
