<svg width="201" height="56" viewBox="0 0 201 56" fill="none" xmlns="http://www.w3.org/2000/svg">
<path d="M80.6809 17.0416C79.0709 16.0487 77.2287 15.5522 75.1526 15.5522C73.6782 15.5522 72.3243 15.8532 71.0911 16.4547C70.4787 16.7535 69.9222 17.1082 69.4214 17.5179V16.0036H62.5166V47.1879H69.3309V36.4441C69.8554 36.8663 70.4408 37.2294 71.0911 37.5303C72.3243 38.1017 73.6782 38.388 75.1526 38.388C77.2287 38.388 79.0709 37.8916 80.6809 36.8986C82.29 35.906 83.5537 34.5519 84.4717 32.8371C85.3891 31.1223 85.8482 29.1669 85.8482 26.9703C85.8482 24.7737 85.3891 22.8186 84.4717 21.1035C83.5537 19.3887 82.29 18.0346 80.6809 17.0416ZM78.2213 29.6329C77.7997 30.4157 77.2209 31.0319 76.4838 31.4832C75.7461 31.9343 74.8819 32.1603 73.889 32.1603C72.956 32.1603 72.1136 31.9343 71.3619 31.4832C70.6096 31.0319 70.0304 30.4154 69.6244 29.6329C69.2184 28.8508 69.0154 27.9632 69.0154 26.9703C69.0154 25.9478 69.2255 25.0454 69.6471 24.2626C70.068 23.4804 70.6469 22.8714 71.3846 22.435C72.1216 21.9991 72.9713 21.7806 73.9343 21.7806C74.8974 21.7806 75.7467 21.9991 76.4841 22.435C77.2212 22.8714 77.7997 23.4807 78.2216 24.2626C78.6425 25.0454 78.8536 25.9478 78.8536 26.9703C78.8536 27.9632 78.6428 28.8511 78.2216 29.6329H78.2213Z" fill="#ECF86E"/>
<path d="M103.989 16.613C102.695 15.9067 101.191 15.5526 99.4763 15.5526C97.7911 15.5526 96.3017 15.9067 95.0085 16.613C94.4781 16.903 93.9988 17.245 93.5645 17.6333V5.17285H86.6597V37.9367H93.5645V25.4359C93.5645 24.6842 93.7295 24.0142 94.0609 23.4276C94.3917 22.841 94.8431 22.3896 95.4148 22.0738C95.9859 21.7576 96.648 21.6 97.4006 21.6C98.4837 21.6 99.3784 21.9541 100.086 22.6607C100.792 23.3679 101.146 24.2931 101.146 25.4362V37.937H108.051V23.902C108.051 22.2475 107.697 20.7958 106.99 19.547C106.283 18.2988 105.283 17.3208 103.989 16.6136V16.613Z" fill="#ECF86E"/>
<path d="M126.463 16.9967C124.658 16.0038 122.612 15.5073 120.326 15.5073C118.04 15.5073 115.993 16.0116 114.189 17.0191C112.383 18.0276 110.954 19.3886 109.901 21.1033C108.847 22.8184 108.321 24.7589 108.321 26.9251C108.321 29.0912 108.847 31.0472 109.901 32.7922C110.954 34.5371 112.39 35.9136 114.211 36.9215C116.031 37.9297 118.069 38.433 120.326 38.433C122.612 38.433 124.658 37.9297 126.463 36.9215C128.269 35.9136 129.697 34.5371 130.751 32.7922C131.804 31.0475 132.33 29.0915 132.33 26.9251C132.33 24.7586 131.804 22.8113 130.751 21.081C129.697 19.3513 128.269 17.9896 126.463 16.9967ZM124.681 29.6555C124.274 30.4528 123.695 31.0702 122.943 31.5058C122.191 31.9422 121.318 32.1602 120.325 32.1602C119.362 32.1602 118.505 31.9422 117.753 31.5058C117.001 31.0702 116.414 30.4528 115.993 29.6555C115.572 28.859 115.361 27.9634 115.361 26.9701C115.361 25.9477 115.572 25.0452 115.993 24.2624C116.414 23.4803 117.001 22.8713 117.753 22.4348C118.505 21.999 119.363 21.7804 120.325 21.7804C121.318 21.7804 122.183 21.999 122.921 22.4348C123.657 22.8713 124.236 23.4728 124.658 24.2401C125.079 25.0073 125.29 25.9029 125.29 26.9254C125.29 27.9478 125.087 28.8587 124.681 29.6555Z" fill="#ECF86E"/>
<path d="M146.139 32.07C145.808 32.1906 145.402 32.2506 144.921 32.2506C144.199 32.2506 143.612 32.0482 143.161 31.6435C142.86 31.3637 142.649 31.0133 142.529 30.5927C142.408 30.1724 142.349 29.7136 142.349 29.2149V21.5096H147.809V15.8235H142.349V9.0542H135.579V15.8235H131.698V21.5096H135.579V30.1768C135.579 31.4983 135.775 32.7048 136.166 33.7956C136.557 34.8874 137.114 35.8011 137.836 36.5385C139.219 37.9517 141.1 38.6589 143.477 38.6589C144.499 38.6589 145.462 38.5529 146.365 38.3428C147.267 38.132 148.11 37.8463 148.892 37.4854L146.997 31.6186C146.756 31.7989 146.47 31.95 146.139 32.07Z" fill="#ECF86E"/>
<path d="M172.088 26.9251C172.088 24.7589 171.561 22.8113 170.508 21.081C169.455 19.3513 168.026 17.9896 166.221 16.9967C164.416 16.0038 162.369 15.5073 160.083 15.5073C157.797 15.5073 155.751 16.0116 153.946 17.0191C152.141 18.0276 150.711 19.3886 149.659 21.1033C148.605 22.8184 148.079 24.7589 148.079 26.9251C148.079 29.0912 148.605 31.0472 149.659 32.7922C150.711 34.5371 152.148 35.9136 153.968 36.9215C155.788 37.9297 157.827 38.433 160.083 38.433C162.369 38.433 164.416 37.9297 166.221 36.9215C168.026 35.9136 169.455 34.5371 170.508 32.7922C171.561 31.0475 172.088 29.0915 172.088 26.9251ZM164.439 29.6555C164.032 30.4528 163.453 31.0702 162.701 31.5058C161.949 31.9422 161.076 32.1602 160.083 32.1602C159.12 32.1602 158.263 31.9422 157.511 31.5058C156.759 31.0702 156.172 30.4528 155.751 29.6555C155.329 28.859 155.119 27.9634 155.119 26.9701C155.119 25.9477 155.329 25.0452 155.751 24.2624C156.172 23.4803 156.759 22.8713 157.511 22.4348C158.263 21.999 159.121 21.7804 160.083 21.7804C161.076 21.7804 161.941 21.999 162.679 22.4348C163.415 22.8713 163.994 23.4728 164.416 24.2401C164.837 25.0073 165.048 25.9029 165.048 26.9254C165.048 27.9478 164.845 28.8587 164.439 29.6555Z" fill="#ECF86E"/>
<path d="M193.795 37.9369L186.045 26.6243L193.344 16.0039H185.853L182.158 21.9494L178.497 16.0039H170.418L177.867 26.7669L170.012 37.9369H177.549L181.757 31.3943L185.807 37.9369H193.795Z" fill="#ECF86E"/>
<path d="M47.7264 28.9909C47.054 28.9868 46.3815 28.9875 45.7088 28.9875C44.6742 28.9875 43.6396 28.989 42.6051 28.9881C42.4956 28.9881 42.3834 28.9871 42.2774 28.9648C42.1232 28.9324 42.0679 28.804 42.1493 28.6694C42.1987 28.588 42.2687 28.5171 42.3368 28.449C43.5302 27.2547 44.7249 26.0618 45.9183 24.8678C46.2015 24.5843 46.4801 24.2961 46.7636 24.0126C46.8668 23.9093 46.8939 23.8005 46.8385 23.6616C46.5463 22.9276 46.1931 22.2232 45.8089 21.5337C45.7903 21.4998 45.7697 21.4662 45.7452 21.4367C45.6731 21.3496 45.6193 21.3391 45.5297 21.4071C45.4582 21.4618 45.3951 21.5278 45.3311 21.5918C43.1407 23.781 40.9481 25.9679 38.7627 28.1618C38.2112 28.7154 37.5499 28.9865 36.7796 28.9962C35.9586 29.0067 35.1373 29.0002 34.3159 29.0002C34.2578 29.0002 34.199 28.9983 34.1418 28.989C33.9155 28.952 33.8552 28.7991 33.9951 28.6129C34.0374 28.5563 34.0899 28.5072 34.1403 28.4571C34.439 28.1615 34.7403 27.8683 35.0369 27.5711C35.8908 26.7156 36.7423 25.857 37.5966 25.0018C38.5559 24.0412 39.5181 23.0834 40.4784 22.1237C41.4797 21.123 42.4804 20.1217 43.4811 19.12C43.5632 19.0377 43.6424 18.9525 43.7214 18.867C43.7938 18.7887 43.7954 18.706 43.7292 18.6223C43.6971 18.5819 43.6676 18.5384 43.6322 18.5014C43.2918 18.1476 42.9535 17.7911 42.6069 17.4432C42.4431 17.2787 42.2674 17.1245 42.0881 16.9769C41.9311 16.8479 41.872 16.8572 41.7206 16.9983C41.664 17.0512 41.6109 17.1081 41.5562 17.1631C41.2142 17.5069 40.8732 17.8517 40.5303 18.1943C38.9483 19.7757 37.3653 21.3562 35.7833 22.9379C34.5761 24.1447 33.3709 25.353 32.1635 26.5595C32.1091 26.6139 32.0506 26.6687 31.9844 26.706C31.8557 26.7784 31.7345 26.7321 31.694 26.59C31.6682 26.4986 31.6626 26.3988 31.6623 26.3028C31.6611 25.5333 31.6629 24.7642 31.6654 23.9948C31.6657 23.8655 31.6692 23.7359 31.6807 23.6075C31.7369 22.9718 31.9878 22.4224 32.4358 21.9683C33.0942 21.3011 33.757 20.638 34.4195 19.9749C35.9872 18.4069 37.5562 16.8398 39.1248 15.2721C39.3738 15.023 39.3751 14.9742 39.063 14.8154C38.4409 14.4989 37.8117 14.1967 37.1847 13.8902C37.1153 13.8563 37.0404 13.8333 36.9674 13.8069C36.8533 13.7656 36.751 13.7858 36.6637 13.8713C36.613 13.921 36.5623 13.9711 36.5123 14.0214C36.1482 14.3889 35.7857 14.7576 35.4202 15.1235C34.8491 15.6952 34.2758 16.2647 33.7038 16.8357C33.1778 17.3611 32.6521 17.8871 32.1262 18.4125C32.1035 18.4352 32.0801 18.4582 32.0543 18.4778C31.8706 18.6183 31.713 18.5595 31.6779 18.3335C31.6642 18.2446 31.6651 18.1532 31.6651 18.0628C31.6645 16.9573 31.6654 15.8518 31.6648 14.7464C31.6645 14.1128 31.6645 13.4793 31.6586 12.8457C31.6561 12.5964 31.6222 12.5653 31.3801 12.5494C30.6498 12.5022 29.9196 12.5072 29.1896 12.5519C28.9985 12.5637 28.9556 12.606 28.9484 12.804C28.9406 13.0235 28.9409 13.2436 28.9409 13.4634C28.9409 15.0084 28.9425 16.5535 28.9419 18.0985C28.9419 18.1821 28.9406 18.2679 28.9232 18.3491C28.8819 18.5428 28.7414 18.5959 28.576 18.4834C28.5178 18.4436 28.4669 18.3923 28.4165 18.3425C27.8206 17.75 27.2246 17.1572 26.6305 16.5631C26.0318 15.9641 25.4352 15.3631 24.8374 14.7635C24.5726 14.498 24.2993 14.2406 24.0444 13.9661C23.8778 13.7867 23.7077 13.7491 23.4923 13.8604C23.3661 13.9257 23.2293 13.9695 23.1024 14.0332C22.5534 14.308 22.0041 14.5822 21.4598 14.8661C21.2571 14.9718 21.2568 15.0352 21.4197 15.1996C21.8058 15.5904 22.191 15.9824 22.5796 16.371C23.4161 17.2076 24.2552 18.041 25.092 18.8773C26.1117 19.8963 27.1301 20.9166 28.1485 21.9372C28.6459 22.4355 28.9204 23.0395 28.9354 23.7409C28.9543 24.6197 28.9416 25.4992 28.9416 26.3783C28.9416 26.4361 28.9378 26.4955 28.9245 26.5515C28.8822 26.7262 28.7554 26.7818 28.6033 26.6898C28.5433 26.6534 28.4905 26.6034 28.4404 26.5536C27.9185 26.0335 27.3972 25.5125 26.8764 24.9909C25.7756 23.8882 24.6761 22.7843 23.5747 21.6826C22.574 20.6812 21.5708 19.6821 20.5694 18.6811C20.0117 18.1234 19.4568 17.5629 18.8982 17.0061C18.7278 16.8364 18.6681 16.8336 18.4913 16.9974C18.1453 17.3182 17.7999 17.6403 17.4651 17.9723C17.268 18.1675 17.0874 18.3802 16.9067 18.5916C16.8014 18.715 16.8088 18.7753 16.912 18.8975C16.9413 18.932 16.9736 18.9637 17.0056 18.9957C17.4125 19.4023 17.8201 19.808 18.227 20.2149C19.2461 21.2346 20.2645 22.2549 21.2832 23.2745C22.357 24.3492 23.4307 25.4239 24.5054 26.4974C25.1685 27.1598 25.8347 27.8195 26.4972 28.4826C26.5603 28.5457 26.6203 28.6175 26.661 28.6962C26.725 28.8205 26.6759 28.9293 26.5429 28.9713C26.4763 28.9921 26.403 28.9999 26.3327 28.9999C25.4728 29.0005 24.6127 29.0092 23.7528 28.9937C23.016 28.9803 22.3843 28.7015 21.8611 28.1764C20.46 26.7706 19.0555 25.3683 17.6528 23.9641C16.94 23.2506 16.2284 22.5359 15.5159 21.8221C15.3835 21.6894 15.2529 21.5545 15.1136 21.4292C14.9998 21.3269 14.933 21.3409 14.8453 21.4678C14.8195 21.5047 14.7975 21.5445 14.7763 21.5846C14.6035 21.9098 14.4222 22.2313 14.2609 22.5623C14.0968 22.899 13.9559 23.2472 13.798 23.5873C13.7051 23.7878 13.7452 23.9467 13.9102 24.0872C13.9939 24.158 14.0682 24.2401 14.1459 24.3178C14.9007 25.0714 15.6561 25.8246 16.4103 26.5791C17.0544 27.2239 17.6973 27.8699 18.3402 28.5165C18.3856 28.5622 18.431 28.6104 18.4639 28.6648C18.5513 28.8093 18.5012 28.9383 18.3364 28.9738C18.2304 28.9965 18.1182 28.998 18.0088 28.998C16.7609 28.9996 15.5128 28.999 14.2649 28.9993C13.7669 28.9993 13.2692 28.998 12.7712 29.0033C12.562 29.0055 12.5166 29.0496 12.5045 29.2508C12.4594 29.9938 12.4578 30.7367 12.5085 31.4794C12.5219 31.6737 12.5654 31.7129 12.7591 31.7241C12.8107 31.7272 12.8626 31.7262 12.9142 31.7266C13.6709 31.7272 14.4272 31.7281 15.1839 31.7281C16.1022 31.7281 17.0202 31.7262 17.9385 31.7275C18.0675 31.7275 18.1987 31.7269 18.3246 31.7499C18.4919 31.7803 18.5447 31.9109 18.4574 32.0555C18.421 32.1152 18.37 32.1674 18.32 32.2174C17.1915 33.3471 16.0621 34.4762 14.933 35.6056C14.5764 35.9622 14.222 36.3213 13.8624 36.6747C13.7349 36.8 13.7072 36.929 13.7784 37.0941C14.0806 37.7948 14.3912 38.4915 14.7819 39.149C14.8049 39.1878 14.8279 39.2273 14.8559 39.2627C14.9399 39.3691 14.9952 39.3787 15.0996 39.2982C15.1556 39.255 15.205 39.2027 15.2551 39.1524C16.2054 38.2011 17.1554 37.2492 18.1061 36.2983C19.1481 35.2559 20.1924 34.2151 21.2325 33.1712C21.5074 32.8954 21.7887 32.6262 22.1216 32.4248C23.501 31.591 24.9341 31.4968 26.4048 32.1584C27.1105 32.4758 27.672 32.9819 28.1209 33.6058C28.539 34.1868 28.7951 34.8359 28.8925 35.5506C28.9615 36.0558 28.9388 36.5557 28.8806 37.058C28.682 38.7709 27.9542 40.2327 26.776 41.4768C26.3299 41.9481 25.8229 42.3485 25.2664 42.6854C24.3005 43.2705 23.2613 43.646 22.135 43.7499C21.6469 43.795 21.1539 43.7922 20.6627 43.7993C20.1196 43.8074 19.5765 43.8006 19.0334 43.8037C18.9339 43.8043 18.8264 43.7862 18.7369 43.8665C18.7745 44.0008 18.8879 44.0617 18.9796 44.1372C20.1787 45.1252 21.4865 45.9387 22.8991 46.586C25.1349 47.6106 27.4823 48.1428 29.9395 48.1941C31.1519 48.2193 32.3546 48.1223 33.5484 47.9019C34.4984 47.7266 35.4282 47.4779 36.3347 47.1477C37.5963 46.6883 38.7965 46.1023 39.9275 45.3745C40.5377 44.9819 41.1188 44.5519 41.6824 44.0968C41.7598 44.0343 41.8503 43.9762 41.8723 43.8593C41.7927 43.7869 41.6989 43.8027 41.6118 43.8024C40.9136 43.8006 40.2151 43.7984 39.5168 43.8012C38.9856 43.8034 38.4571 43.7747 37.9339 43.6762C37.2049 43.5391 36.5063 43.3091 35.8467 42.9699C35.205 42.6401 34.6172 42.2313 34.0946 41.732C33.554 41.2153 33.0827 40.6421 32.7078 39.9945C32.1118 38.9655 31.7665 37.8573 31.6869 36.6685C31.6574 36.228 31.6586 35.7872 31.7438 35.3544C31.9981 34.0603 32.6938 33.058 33.8133 32.3685C34.6961 31.8248 35.6645 31.6321 36.6982 31.7704C37.5981 31.8907 38.3933 32.2451 39.0524 32.8631C39.717 33.4864 40.3509 34.1424 40.996 34.7865C41.6 35.3893 42.2003 35.9955 42.8034 36.5992C43.5069 37.3036 44.2113 38.0068 44.9151 38.7106C45.0889 38.8844 45.2605 39.0604 45.4368 39.2313C45.6171 39.4061 45.6849 39.3998 45.8052 39.1872C46.1838 38.517 46.5298 37.8305 46.8168 37.1149C46.8892 36.9346 46.8665 36.7991 46.726 36.6626C46.4061 36.3517 46.0974 36.0297 45.7819 35.7141C44.6065 34.5396 43.4304 33.3661 42.2547 32.1922C42.2273 32.1649 42.1991 32.1378 42.1757 32.1071C42.0365 31.9243 42.098 31.7608 42.324 31.7328C42.458 31.7163 42.5951 31.7197 42.7306 31.7197C44.3407 31.7188 45.9507 31.7188 47.561 31.7185C47.658 31.7185 47.755 31.7197 47.852 31.7151C48.0491 31.7054 48.091 31.6669 48.1066 31.4748C48.1168 31.3461 48.123 31.2164 48.1227 31.0874C48.1221 30.5188 48.1215 29.9499 48.1147 29.3813C48.1103 29.0185 48.0867 28.9962 47.7257 28.994L47.7264 28.9909Z" fill="#ECF86E"/>
<path d="M30.3331 5.24219C23.613 5.24219 17.2948 7.85912 12.5431 12.6111C7.79112 17.3631 5.17419 23.681 5.17419 30.4011C5.17419 34.4618 6.13106 38.3747 7.93568 41.8848H11.4299C9.38745 38.5351 8.20956 34.6032 8.20956 30.4011C8.20956 18.2022 18.1342 8.27786 30.3331 8.27786C42.5321 8.27786 52.4567 18.2022 52.4567 30.4011C52.4567 34.6032 51.2788 38.5351 49.2364 41.8848H52.7306C54.5352 38.3747 55.4921 34.4618 55.4921 30.4011C55.4921 23.681 52.8752 17.3631 48.1231 12.6111C43.3711 7.85912 37.0533 5.24219 30.3331 5.24219Z" fill="#ECF86E"/>
</svg>
